<svg width="1440" height="697" viewBox="0 0 1440 697" fill="none" xmlns="http://www.w3.org/2000/svg">
<path d="M-109 793C120.133 734.827 265.171 415.097 430.584 197.765C485.117 126.114 548.738 47.1161 618.738 13.3788C641.377 2.46457 667.094 -4.53045 687.719 6.63211C697.342 11.8348 705.753 20.4605 714.891 26.8272C744.302 47.3483 787.957 50.1282 808.077 87.619C759.917 139.794 753.924 239.027 757.287 306.799C762.941 420.722 798.171 523.663 844.584 607.714C980.394 853.664 1213.1 944.663 1447.06 947.915M-107.095 788.079C-42.4227 770.72 16.0845 732.882 69.6733 685.07C131.749 629.692 185.627 561.453 239.532 485.033C304.98 392.229 368.221 289.288 434.577 202.329C490.201 129.46 554.652 49.4365 624.17 16.8459C646.669 6.30043 671.939 0.00243482 692.196 11.5883C701.622 16.9809 709.885 25.6439 718.833 32.166C747.675 53.0062 790.512 56.5577 810.21 94.3852C762.752 146.731 756.788 245.532 760.132 313.537C761.795 347.372 766.056 380.266 772.422 412.023C787.483 487.243 814.255 555.994 846.821 614.469C849.497 619.261 852.227 623.993 854.993 628.623C939.638 772.054 1059.04 853.1 1192.31 899.517C1274.23 928.126 1359.86 943.938 1447.56 946.169C1432.83 946.719 1431.48 942.341 1423.44 940.436M-105.185 783.14C-40.1891 764.762 19.0937 726.068 72.8779 679.989C135.314 626.494 187.131 564.073 241.201 489.561C306.751 399.237 371.156 295.041 438.598 206.881C495.301 132.791 560.578 51.7597 629.631 20.3014C651.985 10.1421 676.805 4.50361 696.706 16.5156C705.938 22.0809 714.024 30.8475 722.816 37.4962C751.027 58.8055 793.099 62.9583 812.383 101.143C765.614 153.657 759.693 252.028 763.018 320.267C764.669 354.044 768.883 386.926 775.193 418.707C790.122 494.206 816.579 563.319 849.121 621.221C851.818 625.981 854.576 630.646 857.351 635.243C942.386 776.039 1061.09 849.661 1194.36 895.034C1276.11 923.018 1360.11 941.18 1448.1 944.432C1418.63 945.549 1415.94 936.796 1399.86 932.968M-103.28 778.219C-37.9598 758.82 22.0987 719.272 76.0705 674.906C138.871 623.276 188.616 566.67 242.855 494.104C308.506 406.259 374.058 300.822 442.591 211.444C500.389 136.119 566.487 54.0974 635.063 23.7685C657.277 13.9779 681.65 9.03649 701.183 21.4717C710.205 27.2242 718.152 36.0482 726.77 42.8379C754.379 64.5499 795.666 69.3907 814.539 107.915C768.473 160.6 762.585 258.522 765.887 327.011C767.527 360.731 771.693 393.601 777.943 425.422C792.746 501.184 818.778 570.797 851.384 628.019C854.085 632.762 856.888 637.347 859.688 641.894C944.894 780.332 1063.12 846.256 1196.39 890.566C1277.99 917.924 1360.37 938.421 1448.63 942.711C1404.45 944.382 1400.39 931.247 1376.26 925.531M-101.375 773.298C-35.7423 752.876 25.1156 712.478 79.2709 669.842C142.444 620.099 190.104 569.304 244.504 498.664C310.241 413.313 376.972 306.606 446.596 216.01C505.473 139.464 572.396 56.435 640.508 27.2384C662.581 17.8167 686.499 13.5521 705.672 26.4307C714.501 32.3559 722.275 41.2661 730.725 48.1796C757.731 70.2943 798.221 75.8201 816.688 114.666C771.324 167.523 765.466 265.012 768.76 333.738C770.385 367.417 774.508 400.259 780.69 432.1C795.365 508.123 821.041 578.163 853.649 634.762C856.37 639.473 859.198 644.009 862.01 648.505C947.368 784.562 1065.14 842.808 1198.41 886.074C1279.83 912.803 1360.6 935.657 1449.14 940.948C1390.22 943.185 1384.81 925.673 1352.64 918.037M-99.47 768.377C-33.5129 746.935 28.1486 705.67 82.4635 664.759C146.025 616.886 191.573 571.915 246.162 503.19C311.984 420.332 379.878 312.37 450.594 220.556C510.561 142.793 578.298 58.7525 645.933 30.6853C667.862 21.6497 691.317 18.0417 710.146 31.3494C718.77 37.4444 726.4 46.4294 734.672 53.5011C761.08 76.0013 800.781 82.2323 818.825 121.415C774.151 174.44 768.334 271.5 771.605 340.476C773.219 374.098 777.294 406.928 783.42 438.792C797.965 515.095 823.293 585.526 855.897 641.52C858.623 646.214 861.479 650.683 864.32 655.112C949.833 788.826 1067.15 839.361 1200.41 881.58C1281.67 907.683 1360.81 932.887 1449.64 939.201C1375.99 941.989 1369.22 920.099 1329.02 910.558M-97.5649 763.456C-31.2794 740.976 31.1773 698.88 85.652 659.692C149.602 613.692 193.038 574.543 247.811 507.75C313.707 427.383 382.792 318.154 454.594 225.14C515.657 146.141 584.215 61.1103 651.373 34.1726C673.162 25.5057 696.162 22.5746 714.642 36.3286C723.073 42.5963 730.531 51.6675 738.646 58.8659C764.444 81.7487 803.367 88.6877 820.989 128.207C777.021 181.386 771.235 278.013 774.482 347.24C776.085 380.805 780.112 413.623 786.178 445.527C800.596 522.092 825.568 592.95 858.172 648.32C860.918 652.983 863.799 657.404 866.665 661.784C952.313 793.131 1069.2 835.976 1202.46 877.152C1283.55 902.629 1361.08 930.186 1450.19 937.521C1361.81 940.859 1353.69 914.611 1305.44 903.144M-95.6597 758.534C-29.0619 735.032 34.2062 692.089 88.8523 654.629C153.203 610.502 194.498 577.189 249.476 512.296C315.442 434.437 385.711 323.921 458.599 229.706C520.741 149.486 590.125 63.448 656.817 37.6425C678.466 29.3445 701.003 27.0699 719.131 41.2877C727.353 47.7424 734.67 56.8711 742.601 64.2075C767.801 87.4758 805.922 95.1171 823.134 134.976C779.868 188.326 774.111 284.521 777.34 353.981C778.919 387.485 782.911 420.295 788.909 452.219C803.195 529.064 827.832 600.316 860.42 655.078C863.175 659.706 866.092 664.081 868.97 668.409C954.75 797.407 1071.19 832.542 1204.46 872.657C1285.39 897.509 1361.3 927.401 1450.68 935.755C1347.58 939.663 1338.1 909.017 1281.81 895.647M-93.7545 753.613C-26.8325 729.091 37.2468 685.301 92.045 649.545C156.808 607.296 195.951 579.814 251.118 516.836C317.141 441.482 388.613 329.703 462.592 234.27C525.829 152.815 596.034 65.7856 662.25 41.1095C683.754 33.1976 705.841 31.5826 723.613 46.2265C731.633 52.8337 738.786 62.0689 746.56 69.532C771.15 93.1828 808.494 101.532 825.287 141.711C782.711 195.228 776.996 290.994 780.217 360.691C781.781 394.154 785.742 426.938 791.672 458.882C805.831 535.989 830.116 607.65 862.697 661.824C865.467 666.438 868.418 670.729 871.308 675.005C957.22 801.654 1073.34 828.668 1206.49 868.152C1287.34 892.121 1361.54 924.62 1451.21 933.997C1333.37 938.455 1322.54 903.448 1258.21 888.174M-91.8494 748.692C-24.6032 723.15 40.2994 678.517 95.2453 644.481C160.416 604.127 197.399 582.457 252.779 521.399C318.848 448.547 391.527 335.487 466.593 238.853C530.909 156.178 601.939 68.1406 667.69 44.5968C689.054 37.0537 710.678 36.0953 728.098 51.2029C735.925 57.9828 742.909 67.2869 750.518 74.9112C774.51 98.9474 811.056 107.982 827.435 148.517C785.561 202.206 779.892 297.525 783.078 367.47C784.631 400.875 788.544 433.647 794.413 465.632C808.434 542.998 832.391 615.074 864.956 668.64C867.747 673.222 870.71 677.461 873.637 681.691C959.664 806.005 1075.38 825.246 1208.51 863.735C1289.19 887.058 1361.78 921.931 1451.72 932.326C1319.15 937.351 1306.97 897.949 1234.6 880.772M-89.9443 743.771C-22.3738 717.208 43.352 671.732 98.438 639.398C164.021 600.921 198.836 585.097 254.437 525.924C320.54 455.572 394.433 341.251 470.602 243.402C536.009 159.509 607.843 70.2937 673.138 48.0495C694.351 40.8175 715.512 40.5705 732.595 56.1273C740.217 63.077 747.057 72.4559 754.481 80.2183C777.863 104.637 813.632 114.38 829.6 155.255C788.416 209.112 782.788 304.001 785.956 374.179C787.497 407.527 791.358 440.305 797.164 472.292C811.054 549.938 834.676 622.408 867.225 675.366C870.024 679.913 873.023 684.106 875.967 688.267C962.097 810.243 1077.41 821.729 1210.54 859.209C1291.06 881.872 1362.03 919.114 1452.24 930.548C1304.94 936.123 1291.41 892.363 1211 873.261M-88.0391 738.849C-20.1563 711.264 46.4046 664.947 101.638 634.334C167.641 597.755 200.268 587.754 256.098 530.487C322.23 462.652 397.359 347.038 474.615 247.989C541.117 162.86 613.776 72.6372 678.591 51.5396C699.662 44.6764 720.361 45.0861 737.092 61.1065C744.513 68.2087 751.193 77.6767 758.455 85.583C781.231 110.367 816.206 120.832 831.764 162.047C791.282 216.075 785.684 310.532 788.84 380.964C790.366 414.271 794.184 447.02 799.934 479.03C813.697 556.938 836.967 629.817 869.512 682.169C872.328 686.702 875.356 690.829 878.324 694.941C964.553 814.597 1079.48 818.296 1212.59 854.764C1292.95 876.783 1362.28 916.393 1452.78 928.83C1290.76 934.959 1275.87 886.818 1187.42 865.813M-86.134 733.928C-17.927 705.323 49.4648 658.183 104.827 629.268C171.266 594.571 201.688 590.408 257.751 535.03C323.906 469.691 400.265 352.802 478.608 252.552C546.189 166.202 619.678 74.9547 684.023 55.0067C704.955 48.5123 725.183 49.5584 741.569 66.0627C748.784 73.3347 755.304 82.8918 762.41 90.9247C784.58 116.074 818.774 127.264 833.909 168.816C794.129 223.015 788.565 317.022 791.697 387.705C793.212 420.955 796.983 453.692 802.672 485.743C816.304 563.93 839.238 637.204 871.776 688.967C874.6 693.466 877.664 697.546 880.649 701.589C966.97 818.904 1081.51 814.851 1214.62 850.313C1294.83 871.689 1362.53 913.669 1453.31 927.127C1276.56 933.823 1260.31 881.304 1163.82 858.376M-84.2407 729.004C-15.7095 699.379 52.5174 651.398 108.02 624.184C174.891 591.388 203.089 593.039 259.393 539.57C325.553 476.742 403.167 358.583 482.601 257.115C551.273 169.548 625.58 77.2721 689.456 58.4737C710.247 52.3481 730.017 54.0336 746.05 71.0015C753.065 78.426 759.436 88.0752 766.353 96.2635C787.917 121.778 821.329 133.694 836.046 175.565C796.956 229.932 791.433 323.51 794.547 394.426C796.039 427.615 799.774 460.344 805.407 492.417C818.912 570.867 841.506 644.552 874.028 695.708C876.872 700.174 879.954 704.186 882.959 708.197C969.363 823.206 1083.53 811.368 1216.62 845.818C1296.67 866.534 1362.75 910.902 1453.81 925.381C1262.33 932.627 1244.74 875.733 1140.19 850.914M-82.3356 724.083C-13.4921 693.435 55.5895 644.636 111.208 619.118C178.511 588.222 204.486 595.688 261.042 544.13C327.212 483.796 406.07 364.364 486.59 261.696C556.345 172.891 631.477 79.6069 694.884 61.9581C715.531 56.2186 734.835 58.5232 750.523 75.9749C757.337 83.552 763.548 93.2903 770.303 101.623C791.273 127.505 823.879 140.141 838.186 182.351C799.798 236.889 794.306 330.035 797.4 401.184C798.881 434.316 802.612 467.007 808.134 499.127C821.64 577.778 843.766 651.935 876.272 702.483C879.121 706.932 882.243 710.88 885.277 714.825C971.751 827.525 1085.55 807.886 1218.63 841.344C1298.53 861.417 1362.99 908.138 1454.32 923.635C1248.09 931.448 1229.16 870.176 1116.58 843.437M-80.4304 719.162C-11.2627 687.493 58.6575 637.892 114.412 614.037C182.155 585.062 205.899 598.322 262.712 548.658C328.864 490.83 409 370.134 490.611 266.248C561.457 176.225 637.419 81.9157 700.344 65.4136C720.851 60.043 739.685 62.984 755.029 80.9196C761.641 88.6491 767.692 98.4766 774.286 106.953C794.65 133.201 826.474 146.561 840.358 189.109C802.661 243.815 797.214 336.514 800.297 407.917C801.763 441.008 805.467 473.656 810.912 505.83C824.291 584.744 846.082 659.296 878.568 709.252C881.437 713.67 884.583 717.569 887.63 721.462C974.176 831.852 1087.95 803.049 1220.68 836.878C1300.2 857.136 1363.24 905.397 1454.86 921.918C1233.92 930.284 1213.62 864.63 1092.99 835.986M-78.5253 714.241C-9.03334 681.552 61.7415 631.133 117.601 608.97C185.795 581.919 207.279 600.984 264.361 553.218C330.499 497.877 411.902 375.916 494.6 270.829C566.537 179.587 643.316 84.2505 705.773 68.898C726.139 63.8961 744.507 67.4563 759.506 85.8757C765.917 93.7578 771.811 103.657 778.224 112.309C797.987 138.905 829.013 153.005 842.499 195.895C805.504 250.772 800.086 343.039 803.146 414.693C804.6 447.727 808.257 480.362 813.646 512.56C826.898 591.735 848.361 666.702 880.815 716.064C883.705 720.45 886.864 724.298 889.935 728.142C976.536 836.238 1089.62 801.019 1222.68 832.439C1302.25 851.223 1363.46 902.684 1455.35 920.223C1219.67 929.156 1198.02 859.108 1069.37 828.562M-76.6159 709.302C-6.81166 675.591 64.8256 624.374 120.81 603.872C189.455 578.744 208.672 603.595 266.019 557.744C332.131 504.888 414.824 381.665 498.613 275.36C571.633 182.881 649.234 86.5536 711.225 72.3333C731.451 67.7003 749.353 71.8797 764.003 90.8002C770.218 98.8174 775.959 108.826 782.199 117.619C801.36 144.563 831.605 159.389 844.668 202.615C808.375 257.664 802.987 349.497 806.028 421.385C807.471 454.361 811.08 486.985 816.401 519.203C829.534 598.661 850.653 674.002 883.088 722.773C885.986 727.125 889.181 730.926 892.282 734.704C978.921 840.519 1091.66 797.505 1224.72 827.898C1304.13 846.039 1363.71 899.871 1455.89 918.413C1205.48 927.897 1182.49 853.49 1045.78 821.019M-74.7108 704.381C-4.5823 669.649 67.9054 617.633 123.998 598.806C193.095 575.601 210.033 606.235 267.672 562.287C333.735 511.91 417.726 387.446 502.606 279.924C576.717 186.226 655.148 88.8739 716.658 75.8004C736.732 71.5332 754.184 76.3174 768.48 95.7563C774.494 103.926 780.075 114.024 786.142 122.958C804.701 150.25 834.148 165.815 846.801 209.381C811.198 264.598 805.856 355.985 808.873 428.123C810.301 461.059 813.866 493.655 819.127 525.912C832.133 605.632 852.917 681.368 885.332 729.548C888.246 733.885 891.458 737.617 894.583 741.346C981.262 844.881 1093.66 794.054 1226.73 823.441C1305.97 840.939 1363.93 897.121 1456.4 916.705C1191.26 926.738 1166.91 847.954 1022.15 813.594M-72.8056 699.46C-2.35292 663.708 70.9811 610.908 127.199 593.742C196.75 572.499 211.394 608.875 269.334 566.85C335.347 518.952 420.652 393.233 506.619 284.51C581.821 189.595 661.069 91.2145 722.11 79.2905C742.043 75.3922 759.034 80.7782 772.993 100.721C778.81 109.026 784.227 119.23 790.132 128.308C808.09 155.948 836.751 172.256 848.981 216.159C814.08 271.547 808.78 362.504 811.778 434.876C813.195 467.754 816.724 500.341 821.918 532.619C834.797 612.601 855.253 688.751 887.64 736.32C890.574 740.625 893.811 744.308 896.953 747.968C983.658 849.22 1095.74 790.586 1228.79 818.961C1307.87 835.813 1364.21 894.368 1456.94 914.97C1177.07 925.571 1151.37 842.408 998.583 806.129M-70.9005 694.539C-0.135473 657.764 74.0686 604.187 130.391 588.659C200.402 569.359 212.748 611.494 270.991 571.375C336.947 525.937 423.559 398.998 510.616 289.056C586.901 192.903 666.987 93.5175 727.547 82.7403C747.34 79.2107 763.868 85.1986 777.475 105.66C783.094 114.1 788.351 124.394 794.087 133.65C811.443 161.638 839.318 178.689 851.126 222.928C816.926 278.487 811.656 369.012 814.635 441.617C816.029 474.435 819.523 507.013 824.648 539.311C837.4 619.555 857.521 696.1 889.888 743.078C892.831 747.349 896.104 750.986 899.27 754.596C985.998 853.583 1097.75 787.138 1230.81 814.47C1309.72 830.696 1364.44 891.604 1457.46 913.226C1162.87 924.38 1135.8 836.837 974.968 798.652M-68.9953 689.617C2.09387 651.823 77.1561 597.466 133.58 583.592C204.045 566.253 214.085 614.128 272.629 575.932C338.516 532.95 426.461 404.779 514.605 293.637C591.981 196.266 672.88 95.8696 732.975 86.2247C752.628 83.0639 768.695 89.6537 781.948 110.633C787.371 119.209 792.462 129.609 798.025 139.006C814.784 167.325 841.857 185.132 853.254 229.711C819.745 285.438 814.521 375.517 817.477 448.373C818.859 481.133 822.305 513.699 827.37 546.037C840.007 626.547 859.792 703.486 892.124 749.887C895.086 754.126 898.377 757.694 901.568 761.256C988.314 857.994 1099.75 783.704 1232.8 810.027C1311.55 825.611 1364.64 888.886 1457.94 911.512C1148.61 923.233 1120.2 831.314 951.333 791.207M-67.0902 684.696C4.32324 645.881 80.2513 590.765 136.784 578.511C207.717 563.136 215.43 616.728 274.294 580.478C340.116 539.934 429.379 410.546 518.61 298.203C597.065 199.611 678.806 98.1929 738.419 89.6946C757.932 86.9027 773.541 94.077 786.441 115.575C791.667 124.286 796.61 134.778 801.996 144.333C818.158 172.982 844.44 191.55 855.431 236.452C822.624 292.35 817.429 381.996 820.362 455.103C821.729 487.822 825.132 520.36 830.141 552.721C842.647 633.51 862.112 710.829 894.424 756.639C897.391 760.861 900.722 764.366 903.937 767.879C990.674 862.379 1101.82 780.254 1234.86 805.548C1313.45 820.488 1364.92 886.116 1458.5 909.78C1134.44 922.051 1104.68 825.755 927.765 783.742M-65.185 679.775C6.54074 639.937 83.3304 584.078 139.973 573.445C211.368 560.051 216.76 619.341 275.948 585.021C341.681 546.91 432.293 416.33 522.615 302.77C602.165 202.942 684.715 100.531 743.864 93.1645C763.232 90.7587 778.388 98.5003 790.93 120.534C795.959 129.38 800.738 139.978 805.958 149.695C821.527 178.658 847.003 198 857.583 243.241C825.466 299.307 820.313 388.524 823.239 461.867C824.595 494.529 827.95 527.055 832.903 559.439C845.282 640.49 864.412 718.203 896.703 763.423C899.691 767.613 903.034 771.066 906.278 774.512C993.018 866.778 1103.86 776.811 1236.89 801.079C1315.31 815.39 1365.18 883.374 1459.02 908.057C1120.23 920.878 1089.11 820.221 904.153 776.302M-63.2798 674.854C8.77431 633.979 86.4256 577.377 143.173 568.382C215.031 556.969 218.094 621.938 277.609 589.584C343.258 553.889 435.207 422.114 526.615 307.353C607.257 206.308 690.636 102.871 749.308 96.6345C768.536 94.5974 783.234 102.924 795.419 125.493C800.256 134.457 804.87 145.162 809.913 155.037C824.884 184.33 849.57 204.432 859.728 250.01C828.313 306.247 823.194 395.014 826.096 468.608C827.441 501.212 830.76 533.729 835.629 566.148C847.881 647.461 866.692 725.555 898.947 770.198C901.955 774.356 905.323 777.76 908.58 781.155C995.31 871.184 1105.86 773.378 1238.9 796.605C1317.17 810.273 1365.39 880.625 1459.53 906.313C1106.02 919.705 1073.55 814.652 880.55 768.829M-61.3747 669.933C11.0036 628.037 89.5166 570.693 146.366 563.298C218.682 553.884 219.408 624.511 279.255 594.107C344.807 560.824 438.113 427.878 530.613 311.899C612.333 209.633 696.554 105.174 754.745 100.084C773.832 98.4161 788.077 107.309 799.905 130.415C804.561 139.499 808.998 150.308 813.876 160.344C828.266 189.954 852.149 210.813 861.881 256.744C831.168 313.153 826.079 401.487 828.962 475.315C830.295 507.861 833.567 540.367 838.38 572.808C850.501 654.401 868.992 732.875 901.212 776.941C904.228 781.065 907.62 784.42 910.914 787.768C997.614 875.592 1107.88 769.916 1240.93 792.116C1319.03 805.159 1365.64 877.846 1460.06 904.573C1091.81 918.515 1057.99 809.101 856.946 761.355M-59.4696 665.011C13.233 622.096 92.6034 564.026 149.566 558.234C222.348 550.839 220.722 627.084 280.916 598.669C346.364 567.78 441.027 433.662 534.625 316.486C617.441 212.985 702.471 107.532 760.197 103.574C779.144 102.275 792.952 111.721 804.401 135.394C808.865 144.597 813.15 155.514 817.85 165.709C831.647 195.632 854.724 217.265 864.049 263.519C834.026 320.096 828.979 408.001 831.855 482.065C833.161 514.568 836.401 547.047 841.158 579.512C853.153 661.367 871.323 740.221 903.507 783.71C906.544 787.803 909.961 791.108 913.271 794.388C999.942 880.006 1109.95 766.462 1242.98 787.633C1320.92 800.033 1365.91 875.09 1460.59 902.835C1077.62 917.344 1042.44 803.535 833.367 753.887M-57.5644 660.09C15.4505 616.152 95.6902 557.36 152.759 553.151C225.995 547.771 222.028 629.637 282.569 603.212C347.906 574.695 443.941 439.446 538.618 321.049C622.513 216.327 708.381 109.87 765.629 107.041C784.436 106.111 797.79 116.124 808.879 140.35C813.145 149.688 817.27 160.695 821.789 171.065C835.004 201.304 857.275 223.712 866.178 270.303C836.861 327.033 831.843 414.506 834.696 488.82C835.991 521.266 839.18 553.751 843.869 586.236C855.736 668.353 873.583 747.604 905.735 790.5C908.788 794.578 912.222 797.814 915.557 801.044C1002.19 884.455 1111.93 763.043 1244.96 783.188C1322.73 794.959 1366.09 872.369 1461.08 901.121C1063.37 916.18 1026.83 798.01 809.719 746.439M-55.6593 655.169C17.6798 610.211 98.777 550.693 155.959 548.087C229.661 544.726 223.351 632.176 284.235 607.758C349.464 581.596 446.86 445.213 542.635 325.618C627.625 219.661 714.318 112.196 771.086 110.514C789.748 109.97 802.669 120.519 813.384 145.295C817.474 154.736 821.418 165.864 825.772 176.395C838.41 206.933 859.858 230.13 868.362 277.063C839.748 333.964 834.76 421.005 837.589 495.57C838.873 527.958 842.014 560.432 846.647 592.939C858.383 675.336 875.915 754.95 908.031 797.269C911.092 801.312 914.547 804.517 917.926 807.667C1004.5 888.903 1113.99 759.607 1247.02 778.691C1324.63 789.836 1366.38 869.599 1461.63 899.369C1049.2 914.981 1011.31 792.433 786.14 738.971M-53.7541 650.248C19.9092 604.269 101.864 544.027 159.152 543.003C233.316 541.678 224.654 634.692 285.876 612.298C350.99 588.471 449.766 450.977 546.616 330.179C632.697 223.004 720.204 114.528 776.506 113.978C795.028 113.803 807.524 124.908 817.849 150.248C821.747 159.807 825.538 171.044 829.714 181.734C841.771 212.588 862.413 236.559 870.495 283.829C842.571 340.899 837.636 427.512 840.434 502.309C841.703 534.656 844.801 567.101 849.377 599.631C860.987 682.29 878.211 762.287 910.279 804.027C913.361 808.038 916.84 811.194 920.232 814.292C1006.76 893.355 1115.99 756.156 1249.02 774.214C1326.47 784.733 1366.6 866.832 1462.13 897.64C1034.96 913.819 995.725 786.876 762.52 731.511M-51.849 645.326C22.1267 598.325 104.942 537.395 162.352 537.94C236.962 538.665 225.952 637.225 287.542 616.844C352.54 595.351 452.68 456.762 550.637 334.731C637.797 226.335 726.141 116.854 781.967 117.434C800.349 117.627 812.407 129.285 822.358 155.175C826.075 164.855 829.69 176.196 833.689 187.044C845.169 218.197 864.989 242.957 872.66 290.567C845.437 347.807 840.537 433.971 843.324 509.021C844.581 541.311 847.631 573.744 852.14 606.295C863.618 689.233 880.527 769.593 912.556 810.773C915.657 814.753 919.149 817.857 922.582 820.891C1009.04 897.795 1118.03 752.696 1251.08 769.714C1328.35 779.604 1366.86 864.056 1462.68 895.888C1020.78 912.617 980.189 781.313 738.945 724.026M-49.9438 640.405C24.3561 592.384 108.025 530.746 165.541 532.873C240.608 535.652 227.248 639.72 289.191 621.404C351.134 603.087 455.594 462.546 554.626 339.311C642.881 229.68 732.046 119.209 787.395 120.918C805.637 121.48 817.274 133.677 826.831 160.149C830.372 169.932 833.818 181.396 837.635 192.42C848.538 223.873 867.547 249.424 874.8 297.353C848.268 354.762 843.409 440.496 846.177 515.78C847.423 548.011 850.426 580.433 854.874 613.024C866.226 696.224 882.815 776.964 914.807 817.568C917.929 821.516 921.445 824.571 924.891 827.554C1011.28 902.315 1120.05 749.286 1253.08 765.274C1330.18 774.539 1367.08 861.344 1463.17 894.176C1006.54 911.473 964.598 775.774 715.321 716.584M-48.0387 635.484C26.5854 586.443 111.103 524.114 168.745 527.793C244.27 532.624 228.559 642.201 290.856 625.949C355.63 609.055 458.508 468.33 558.643 343.881C647.977 233.029 737.984 121.535 792.851 124.391C810.948 125.339 822.169 138.057 831.344 165.114C834.704 175.018 837.973 186.586 841.626 197.77C851.956 229.505 870.15 255.865 876.981 304.131C851.15 361.711 846.321 447.013 849.07 522.529C850.293 554.701 853.26 587.114 857.653 619.728C868.877 703.19 885.159 784.313 917.115 824.34C920.241 828.271 923.786 831.26 927.26 834.176C1013.58 906.795 1122.11 745.85 1255.14 760.794C1332.08 769.433 1367.36 858.591 1463.73 892.444C992.372 910.291 949.082 770.234 691.754 709.119M-46.1293 630.546C28.8071 580.481 114.186 517.464 171.938 522.709C247.905 529.608 229.867 644.645 292.514 630.475C357.161 615.858 461.43 474.079 562.64 348.427C653.065 236.357 743.886 123.852 798.276 127.838C816.233 129.155 827.032 142.411 835.818 170.032C839.001 180.04 842.106 191.714 845.565 203.072C855.33 235.108 872.694 262.237 879.11 310.859C853.982 368.61 849.186 453.463 851.912 529.23C853.12 561.361 856.043 593.745 860.38 626.382C871.473 710.124 887.44 791.61 919.36 831.06C922.506 834.959 926.064 837.896 929.574 840.767C1015.81 911.258 1124.11 742.381 1257.15 756.265C1333.93 764.278 1367.59 855.772 1464.23 890.661C978.151 909.06 933.496 764.622 668.135 701.604M-44.2242 625.624C31.0364 574.54 117.264 510.832 175.13 517.625C251.551 526.595 231.163 647.086 294.156 635.015C358.696 622.643 464.325 479.841 566.633 352.99C658.153 239.685 749.795 126.19 803.709 131.305C821.525 132.991 831.919 146.771 840.295 174.988C843.298 185.117 846.238 196.898 849.516 208.431C858.719 240.752 875.256 268.687 881.25 317.646C856.812 375.565 852.058 459.988 854.772 536.009C855.969 568.082 858.845 600.455 863.11 633.129C874.076 717.133 889.739 798.984 921.603 837.89C924.77 841.757 928.348 844.663 931.875 847.464C1018.02 915.845 1126.1 739.037 1259.15 751.86C1335.75 759.244 1367.79 853.091 1464.73 888.986C963.912 907.954 917.903 759.137 644.498 694.214M-42.319 620.703C33.2658 568.599 120.338 504.218 178.331 512.562C255.188 523.616 232.475 649.512 295.821 639.56C359.167 629.609 467.251 485.628 570.638 357.556C663.237 243.031 755.716 128.531 809.153 134.775C826.825 136.847 836.818 151.134 844.784 179.947C847.61 190.18 850.381 202.084 853.482 213.775C862.121 246.398 877.824 275.119 883.423 324.403C859.687 382.493 854.963 466.484 857.658 542.739C858.843 574.754 861.683 607.118 865.88 639.813C876.715 724.096 892.063 806.31 923.891 844.639C927.066 848.472 930.669 851.328 934.225 854.063C1020.27 920.351 1128.15 735.581 1261.19 747.357C1337.63 754.115 1368.05 850.315 1465.25 887.228C949.711 906.746 902.36 753.554 620.899 686.723M-40.4139 615.782C35.4833 562.654 123.4 497.6 181.523 507.478C258.818 520.617 233.791 651.921 297.474 644.103C361.158 636.285 470.157 491.392 574.643 362.123C668.333 246.379 761.638 130.871 814.598 138.245C832.129 140.686 841.713 155.514 849.278 184.889C851.939 195.228 854.534 207.236 857.441 219.1C865.518 252.007 880.395 281.534 885.572 331.155C862.526 389.413 857.848 472.957 860.519 549.463C861.689 581.438 864.486 613.773 868.627 646.49C879.323 731.033 894.379 813.616 926.156 851.382C929.351 855.184 932.966 857.988 936.559 860.677C1022.5 924.886 1130.18 732.136 1263.23 742.871C1339.5 749.021 1368.31 847.557 1465.79 885.491C935.513 905.576 886.809 748.006 597.32 679.255M-38.5087 610.861C37.7126 556.713 126.475 490.986 184.724 502.414C262.452 517.656 235.108 654.33 299.136 648.666C363.359 642.977 473.079 497.196 578.644 366.706C673.417 249.724 767.543 133.226 820.038 141.732C837.429 144.542 846.62 159.897 853.762 189.865C856.247 200.308 858.673 212.439 861.403 224.462C868.92 257.654 882.958 287.984 887.724 337.944C865.38 396.374 860.732 479.485 863.396 556.227C864.555 588.145 867.304 620.468 871.373 653.223C881.938 738.045 896.695 820.976 928.419 858.18C931.635 861.95 935.275 864.705 938.884 867.325C1024.71 929.473 1132.19 728.743 1265.25 738.4C1341.36 743.924 1368.54 844.792 1466.32 883.75C921.318 904.388 871.25 742.438 573.716 671.781M-36.6036 605.94C39.942 550.772 130.533 480.434 187.912 497.348C264.748 519.974 236.416 656.719 300.777 653.206C365.138 649.693 475.973 502.957 582.637 371.27C678.501 253.07 773.448 135.581 825.47 145.199C842.717 148.395 851.535 164.245 858.24 194.822C860.56 205.37 862.809 217.605 865.354 229.821C872.321 263.3 885.52 294.433 889.864 344.73C868.222 403.331 863.616 486.013 866.249 562.986C867.385 594.842 870.099 627.157 874.111 659.935C884.549 745.019 899.003 828.316 930.671 864.975C933.907 868.713 937.555 871.434 941.205 873.991C1026.91 934.077 1134.21 725.352 1267.27 733.963C1343.2 738.876 1368.77 842.083 1466.82 882.059C907.088 903.246 855.662 736.935 550.1 664.359M-34.6984 601.018C42.1714 544.831 133.597 473.964 191.117 492.267C268.356 516.86 237.757 659.079 302.443 657.752C367.128 656.424 478.903 508.727 586.654 375.839C683.609 256.421 779.381 137.924 830.927 148.672C848.045 152.239 856.458 168.614 862.745 199.766C864.9 210.421 866.973 222.76 869.324 235.148C875.743 268.915 888.103 300.851 892.025 351.485C871.073 410.254 866.512 492.489 869.118 569.73C870.243 601.529 872.909 633.832 876.866 666.633C887.173 751.996 901.327 835.642 932.943 871.739C936.188 875.442 939.86 878.114 943.539 880.604C1029.13 938.646 1136.23 721.925 1269.29 729.475C1345.06 733.761 1369.02 839.321 1467.34 880.318C892.878 902.073 840.115 731.37 526.493 656.903M-32.7933 596.097C44.3888 538.886 136.674 467.496 194.305 487.201C271.964 513.746 239.074 661.433 304.092 662.312C369.11 663.19 481.801 514.526 590.643 380.419C688.681 259.764 785.286 140.279 836.355 152.157C853.329 156.11 861.365 172.997 867.218 204.74C869.205 215.519 871.101 227.961 873.275 240.507C879.148 274.544 890.654 307.298 894.17 358.254C873.92 417.194 869.389 498.997 871.976 576.471C873.085 608.23 875.703 640.521 879.604 673.345C889.772 758.968 903.635 842.982 935.199 878.517C938.464 882.188 942.157 884.828 945.852 887.249C1031.32 943.265 1138.23 718.528 1271.3 725.018C1346.9 728.696 1369.23 836.571 1467.83 878.607C878.64 900.912 824.519 725.847 502.857 649.458M-30.8881 591.176C46.6224 532.928 138.719 464.587 197.51 482.12C276.946 505.819 240.423 663.759 305.762 666.84C369.628 669.856 484.736 520.278 594.664 384.971C693.793 263.098 791.208 142.62 841.815 155.612C858.649 159.934 866.32 177.337 871.723 209.684C873.545 220.57 875.277 233.118 877.241 245.851C882.578 280.179 893.237 313.716 896.338 365.029C876.79 424.14 872.289 505.51 874.869 583.221C875.967 614.922 878.538 647.202 882.37 680.046C892.407 765.948 905.959 850.307 937.483 885.283C940.768 888.923 944.473 891.511 948.21 893.869C1033.53 947.872 1140.29 715.109 1273.35 720.518C1348.79 723.587 1369.5 833.799 1468.39 876.837C864.474 899.713 808.992 720.25 479.298 641.958M-28.983 586.255C48.8517 526.987 141.772 458.004 200.698 477.054C280.551 502.869 241.773 666.084 307.399 671.397C371.197 676.558 487.622 526.074 598.641 389.549C698.861 266.458 797.101 144.972 847.232 159.094C863.921 163.802 871.227 181.72 876.188 214.638C877.846 225.629 879.401 238.281 881.184 251.19C885.972 285.806 895.781 320.142 898.471 371.795C879.613 431.074 875.158 511.998 877.714 589.959C878.801 621.603 881.324 653.871 885.101 686.738C895.007 772.92 908.264 857.61 939.743 892.044C943.048 895.652 946.762 898.206 950.527 900.497C1035.72 952.508 1142.29 711.713 1275.38 716.046C1350.65 718.508 1369.75 831.055 1468.91 875.114C850.264 898.54 793.424 714.716 455.69 634.501M-27.0778 581.334C51.0692 521.042 144.826 451.421 203.899 471.99C284.164 499.94 243.126 668.392 309.064 675.943C372.793 683.249 490.552 531.844 602.662 394.101C703.965 269.771 803.034 147.315 852.692 162.549C869.241 167.626 876.182 186.06 880.693 219.582C882.186 230.68 883.573 243.456 885.167 256.521C889.417 291.426 898.376 326.563 900.643 378.553C882.488 438.003 878.062 518.494 880.599 596.689C881.671 628.292 884.139 660.528 887.867 693.438C897.634 779.88 910.612 864.942 942.023 898.827C945.349 902.404 949.075 904.906 952.865 907.148C1037.92 957.167 1144.32 708.326 1277.41 711.595C1352.5 713.445 1369.98 828.328 1469.43 873.408C836.049 897.384 777.869 709.185 432.09 627.065M-25.1727 576.412C53.2986 515.101 147.872 444.818 207.091 466.906C287.77 496.99 244.484 670.683 310.718 680.486C374.398 689.905 493.458 537.608 606.655 398.664C709.049 273.117 808.944 149.653 858.125 166.016C874.529 171.479 881.116 190.432 885.171 224.538C886.499 235.743 887.709 248.622 889.11 261.859C892.827 297.038 900.919 332.99 902.78 385.301C885.315 444.92 880.931 524.982 883.449 603.41C884.509 634.955 886.93 667.18 890.59 700.11C900.226 786.831 912.908 872.224 944.263 905.565C947.597 909.107 951.356 911.58 955.179 913.739C1040.09 961.78 1146.32 704.875 1279.41 707.084C1354.34 708.325 1370.21 825.526 1469.94 871.628C821.824 896.17 762.294 703.576 408.467 619.568M-23.2675 571.491C55.528 509.16 150.922 438.253 210.292 461.843C291.371 494.057 245.865 672.98 312.379 685.049C376.011 696.581 496.38 543.412 610.667 403.251C714.14 276.483 814.856 152.028 863.577 169.506C879.841 175.338 886.075 194.809 889.683 229.503C890.859 240.817 891.893 253.8 893.096 267.227C896.288 302.699 903.517 339.448 904.956 392.096C888.193 451.886 883.843 531.498 886.345 610.197C887.383 641.682 889.767 673.898 893.372 706.851C902.881 793.834 915.264 879.576 946.562 912.372C949.917 915.882 953.684 918.32 957.536 920.413C1042.3 966.513 1148.37 701.528 1281.47 702.638C1356.22 703.271 1370.48 822.808 1470.48 869.927C807.645 895.023 746.746 698.065 384.879 612.135M-21.3623 566.57C57.7454 503.216 153.964 431.667 213.484 456.759C294.96 491.122 245.842 682.078 314.025 689.572C378.954 696.711 499.278 549.156 614.653 407.794C719.221 279.791 820.758 154.346 869.002 172.953C885.121 179.171 891.006 199.143 894.153 234.439C895.176 245.862 896.029 258.966 897.043 272.548C899.697 308.311 906.077 345.86 907.093 398.845C891.032 458.806 886.711 537.985 889.195 616.918C890.221 648.345 892.558 680.55 896.102 713.543C905.468 800.803 917.564 886.895 948.811 919.129C952.186 922.608 955.965 924.994 959.858 927.023C1044.47 971.181 1150.38 698.115 1283.48 698.147C1358.07 698.171 1370.7 820.04 1470.99 868.184C793.423 893.847 731.187 692.497 361.276 604.661M-19.4572 561.649C59.9748 497.275 157.006 425.081 216.685 451.696C298.557 488.207 247.209 683.968 315.686 694.135C380.601 703.762 502.2 554.96 618.665 412.381C724.324 283.159 826.683 156.724 874.454 176.443C890.433 183.03 895.973 203.541 898.65 239.418C899.508 250.948 900.197 264.158 901.005 277.91C903.139 313.949 908.639 352.31 909.258 405.637C893.886 465.766 889.607 544.516 892.072 623.683C893.083 655.069 895.332 687.271 898.852 720.258C907.964 807.84 919.893 894.204 951.074 925.927C954.47 929.374 958.27 931.729 962.179 933.689C1046.64 975.923 1152.39 694.759 1285.49 693.71C1359.92 693.126 1370.93 817.331 1471.49 866.492C779.193 892.706 715.599 686.995 337.648 597.236M-17.5479 556.71C62.2084 491.316 160.048 418.495 219.882 446.595C302.151 485.254 248.593 685.789 317.348 698.643C382.257 710.779 505.115 560.69 622.667 416.909C729.409 286.45 832.585 159.041 879.895 179.876C895.729 186.849 900.928 207.88 903.14 244.323C903.845 255.962 904.357 269.275 904.968 283.218C906.576 319.549 911.219 358.69 911.411 412.372C896.741 472.672 892.508 550.975 894.949 630.392C895.949 661.721 898.151 693.911 901.615 726.922C910.595 814.783 922.229 901.478 953.355 932.656C956.77 936.071 960.579 938.392 964.521 940.268C1048.83 980.579 1154.43 691.317 1287.54 689.19C1361.8 687.997 1371.2 814.521 1472.04 864.703C765.007 891.483 700.064 681.377 314.081 589.716M-15.6546 551.786C64.4139 485.369 163.066 411.903 223.058 441.525C305.724 482.333 251.422 681.991 318.985 703.2C382.511 723.132 508.001 566.485 626.656 421.49C734.489 289.813 838.486 161.413 885.327 183.343C901.021 190.684 905.89 212.241 907.617 249.279C908.165 261.044 908.501 274.462 908.923 288.559C910.006 325.184 913.774 365.12 913.559 419.124C899.596 479.577 895.389 557.466 897.811 637.116C898.799 668.387 900.954 700.566 904.358 733.617C913.211 821.74 924.558 908.786 955.615 939.417C959.039 942.797 962.868 945.086 966.85 946.899C1051 985.322 1156.45 687.927 1289.57 684.701C1363.66 682.917 1371.45 811.759 1472.57 862.962C750.801 890.293 684.501 675.826 290.474 582.259M-13.7494 546.865C66.6433 479.428 166.104 405.335 226.258 436.462C309.305 479.432 252.84 684.242 320.647 707.763C384.168 729.782 510.927 572.272 630.656 426.074C739.569 293.175 844.387 163.786 890.767 186.83C906.317 194.558 910.857 216.638 912.106 254.238C912.502 266.113 912.661 279.633 912.877 293.901C913.447 330.822 916.341 371.552 915.704 425.893C902.431 486.514 898.265 563.973 900.668 643.857C901.641 675.088 903.752 707.238 907.1 740.312C915.814 828.694 926.878 916.074 957.875 946.177C961.319 949.526 965.157 951.78 969.172 953.51C1053.17 990.044 1158.46 684.514 1291.58 680.21C1365.5 677.817 1371.67 808.992 1473.07 861.216C736.584 889.1 668.93 670.255 266.846 574.78M-11.8443 541.944C68.8726 473.486 169.129 398.763 229.451 431.378C312.882 476.494 254.262 686.475 322.292 712.285C385.821 736.395 513.826 578.016 634.654 430.62C744.661 296.486 850.296 166.123 896.204 190.28C911.609 198.394 915.819 220.998 916.587 259.177C916.831 271.161 916.813 284.785 916.836 299.225C916.881 336.44 918.9 377.964 917.853 432.644C905.282 493.437 901.15 570.446 903.525 650.598C904.476 681.769 906.551 713.91 909.831 747.003C918.414 835.666 929.183 923.377 960.123 952.935C963.588 956.252 967.445 958.474 971.478 960.135C1055.32 994.818 1160.45 681.135 1293.58 675.732C1367.33 672.749 1371.88 806.242 1473.57 859.47C722.35 887.921 653.343 664.698 243.231 567.303M-9.93918 537.023C71.102 467.545 172.155 392.192 232.651 426.315C316.463 473.593 255.696 688.711 323.953 716.849C387.494 743.031 516.747 583.821 638.654 435.203C749.753 299.852 856.197 168.496 901.644 193.767C916.897 202.247 920.786 225.396 921.072 264.153C921.158 276.264 920.976 289.995 920.794 304.605C920.321 342.133 921.471 384.434 920.001 439.451C908.12 500.412 904.03 576.992 906.398 657.38C907.337 688.493 909.361 720.639 912.584 753.756C921.041 842.68 931.526 930.726 962.402 959.773C965.887 963.059 969.753 965.247 973.826 966.844C1057.52 999.676 1162.5 677.823 1295.62 671.339C1369.21 667.747 1372.15 803.559 1474.1 857.822C708.147 886.822 637.786 659.221 219.631 559.921M-8.03402 532.101C73.3195 461.601 175.181 385.62 235.844 421.231C320.036 470.672 257.134 690.93 325.611 721.374C389.164 749.629 519.658 589.567 642.663 439.752C754.841 303.18 862.118 170.836 907.093 197.22C922.201 206.086 925.772 229.761 925.569 269.077C925.503 281.298 925.145 295.132 924.757 309.912C923.771 347.736 924.046 390.832 922.166 446.188C910.987 507.32 906.926 583.468 909.276 664.09C910.204 695.145 912.179 727.28 915.347 760.419C923.672 849.623 933.867 937.982 964.682 966.502C968.192 969.739 972.062 971.909 976.168 973.423C1059.7 1004.4 1164.53 674.398 1297.66 666.816C1371.07 662.632 1372.39 800.76 1474.63 856.046C693.945 885.615 622.231 653.636 196.048 552.416M-6.12887 527.18C75.5488 455.66 178.207 379.049 239.044 416.167C323.605 467.768 258.58 693.169 327.272 725.937C390.86 756.27 522.58 595.372 646.676 444.339C759.949 306.531 868.031 173.211 912.545 200.71C927.509 209.962 930.762 234.165 930.066 274.057C929.855 286.406 929.32 300.344 928.731 315.276C927.232 353.397 926.621 397.284 924.334 452.963C913.857 514.266 909.831 589.964 912.157 670.836C913.069 701.851 915.002 733.957 918.102 767.117C926.3 856.583 936.2 945.273 966.954 973.266C970.473 976.468 974.375 978.609 978.51 980.056C1061.89 1009.22 1166.56 671.028 1299.71 662.333C1372.96 657.544 1372.66 798.004 1475.18 854.294C679.779 884.416 606.712 648.059 172.468 544.948M-4.22371 522.259C77.7782 449.718 181.221 372.474 242.233 411.101C327.163 464.861 260.03 695.391 328.91 730.494C392.521 762.903 525.47 601.15 650.653 448.916C765.005 309.888 873.863 175.713 917.961 204.191C932.772 213.864 935.717 238.56 934.527 279.027C934.163 291.486 933.452 305.528 932.67 320.632C930.653 359.066 929.172 403.731 926.463 459.747C916.676 521.218 912.691 596.486 914.998 677.592C915.899 708.549 917.796 740.646 920.824 773.844C928.895 863.572 938.512 952.596 969.194 980.058C972.733 983.228 976.644 985.335 980.811 986.699C1064.05 1014.05 1168.55 667.666 1301.7 657.873C1374.79 652.493 1372.87 795.254 1475.66 852.58C665.529 883.251 591.104 642.533 148.832 537.503M-2.31859 517.338C79.9956 443.774 184.246 365.903 245.437 406.02C330.736 461.94 261.497 697.598 330.579 735.023C394.238 769.513 528.404 606.902 654.678 453.451C770.121 313.205 879.792 178.019 923.426 207.63C938.081 217.685 940.727 242.931 939.041 283.937C938.52 296.523 937.644 310.671 936.645 325.943C934.122 364.693 931.752 410.112 928.628 466.484C919.543 528.126 915.588 602.962 917.887 684.305C918.778 715.204 920.627 747.29 923.599 780.51C931.539 870.518 940.865 959.855 971.482 986.807C975.041 989.946 978.972 992.021 983.157 993.316C1066.24 1018.87 1170.57 664.622 1303.74 653.388C1376.64 647.595 1373.12 792.493 1476.2 850.842C651.331 882.081 575.557 636.968 125.241 530.032M-0.413422 512.417C82.225 437.833 187.26 359.328 248.626 400.954C334.293 459.034 262.959 699.823 332.229 739.583C395.939 776.137 531.302 612.701 658.667 458.032C775.205 316.551 885.686 180.371 928.854 211.114C943.369 221.539 945.701 247.349 943.514 288.911C942.848 301.626 941.795 315.877 940.595 331.301C937.559 370.348 934.314 416.561 930.768 473.27C922.373 535.081 918.464 609.47 920.736 691.08C921.599 721.937 923.417 753.996 926.321 787.237C934.134 877.506 943.181 967.161 973.722 993.599C977.306 996.689 981.241 998.747 985.47 999.961C1068.4 1023.74 1172.57 661.208 1305.75 648.931C1378.48 642.512 1373.34 789.763 1476.69 849.131C637.093 880.919 559.978 631.431 101.605 522.587M1.49173 507.495C84.4544 431.892 190.27 352.771 251.831 395.873C337.85 456.127 264.449 702.036 333.898 744.111C397.656 782.747 534.236 618.454 662.688 462.584C780.305 319.882 891.623 182.697 934.315 214.57C948.689 225.363 950.707 251.738 948.031 293.858C947.208 306.7 945.983 321.038 944.59 336.635C941.048 375.998 936.921 422.985 932.957 480.013C925.264 541.995 921.396 615.955 923.637 697.796C924.489 728.594 926.26 760.642 929.103 793.923C936.785 884.472 945.542 974.44 976.022 1000.35C979.626 1003.41 983.565 1005.45 987.828 1006.58C1070.62 1028.61 1174.63 657.772 1307.8 644.431C1380.37 637.386 1373.61 786.99 1477.25 847.361C622.927 879.72 544.446 625.851 78.0461 515.087M3.39687 502.574C86.676 425.93 193.284 346.197 255.019 390.806C341.407 453.22 265.923 704.264 335.536 748.668C399.357 789.372 537.122 624.249 666.665 467.161C785.373 323.242 897.505 185.046 939.731 218.051C953.961 229.23 955.669 256.153 952.496 298.811C951.528 311.783 950.127 326.224 948.517 341.988C944.465 381.685 939.448 429.426 935.073 486.794C928.083 548.947 924.245 622.474 926.479 704.551C927.319 735.292 929.042 767.329 931.83 800.632C939.385 891.444 947.851 981.726 978.266 1007.13C981.89 1010.15 985.867 1012.09 990.134 1013.21C1072.42 1034.98 1176.63 654.339 1309.8 639.953C1382.21 632.283 1373.82 784.22 1477.74 845.629C608.681 878.538 528.847 620.291 54.3985 507.639M5.30203 497.653C88.9054 419.989 196.249 339.721 258.224 385.726C344.895 450.443 267.413 706.477 337.201 753.214C401.082 796.002 540.053 630.019 670.682 471.731C790.473 326.573 903.438 187.39 945.187 221.524C959.277 233.072 960.671 260.559 956.997 303.773C955.889 316.857 954.306 331.419 952.495 347.335C947.937 387.348 942.039 435.864 937.254 493.572C930.953 555.893 927.161 628.973 929.372 711.301C930.201 741.984 931.876 774.009 934.608 807.336C942.036 898.409 950.252 988.942 980.562 1013.9C984.211 1016.87 988.17 1018.88 992.499 1019.84C1075.02 1038.38 1178.7 650.905 1311.87 635.494C1384.12 627.198 1374.11 781.487 1478.3 843.918C594.518 877.377 513.327 614.769 30.8505 500.197M7.20718 492.732C497.74 609.212 580.269 876.212 1478.79 842.186C1374.31 778.752 1385.94 622.109 1313.85 631.031C1180.69 647.506 1077.19 1043.29 994.789 1026.48C954.427 1018.26 945.489 916.415 937.31 814.039C909.348 463.819 994.941 262.902 950.604 225.005C864.357 151.305 461.496 843.806 338.838 757.771C268.887 708.705 348.493 447.419 261.396 380.674C199.291 333.08 91.1187 414.062 7.19105 492.746L7.20718 492.732Z" stroke="url(#paint0_linear_4_304)" stroke-miterlimit="10"/>
<defs>
<linearGradient id="paint0_linear_4_304" x1="29.6309" y1="394.663" x2="1503.44" y2="753.819" gradientUnits="userSpaceOnUse">
<stop stop-color="#7594FC"/>
<stop offset="0.79" stop-color="white"/>
</linearGradient>
</defs>
</svg>
