<svg width="1440" height="366" viewBox="0 0 1440 366" fill="none" xmlns="http://www.w3.org/2000/svg">
<path d="M-170.884 365.023C47.9604 322.776 116.297 191.202 230.782 95.7322C268.525 64.2573 313.698 29.2392 376.593 10.4168C396.934 4.32813 421.381 -0.58621 445.148 1.68769C456.236 2.74658 466.939 5.18339 477.822 6.71743C512.857 11.6657 557.991 8.75375 587.777 20.8292C551.69 44.5117 570.208 81.824 590.446 106.633C624.467 148.337 685.874 183.301 753.98 210.255C953.267 289.129 1212.75 301.836 1451.76 281.914M-170.166 363.028C-108.63 350.755 -58.4526 331.451 -15.7565 308.895C33.7027 282.769 71.6248 252.618 107.545 219.432C151.152 179.133 189.998 135.278 235.98 97.0626C274.531 65.0379 320.294 29.565 382.984 11.2109C403.274 5.27163 427.439 0.655954 450.936 3.11991C461.87 4.26704 472.432 6.731 483.16 8.3397C517.695 13.4577 562.187 10.9055 591.627 23.1438C556.297 46.8263 574.738 83.9758 595.015 108.873C605.102 121.261 617.601 133.065 631.962 144.258C665.957 170.771 710.27 193.829 757.932 212.556C761.847 214.09 765.799 215.597 769.765 217.063C891.526 262.569 1033.19 281.819 1180.39 286.984C1270.89 290.188 1361.99 288.315 1451.84 281.221C1436.98 282.755 1434.51 281.255 1425.85 281.276M-169.447 361.025C-107.835 348.346 -57.0795 328.654 -13.7545 306.723C36.5388 281.262 73.8065 253.453 110.368 220.96C154.694 181.57 194.413 137.144 241.203 98.3862C280.55 65.8117 326.903 29.8908 389.401 11.9983C409.639 6.21513 433.509 1.88453 456.75 4.53855C467.53 5.76713 477.937 8.2854 488.538 9.95519C522.546 15.304 566.409 13.0436 595.515 25.4517C560.93 49.1342 579.307 86.1207 599.622 111.106C609.683 123.474 622.131 135.278 636.44 146.484C670.371 173.113 714.453 196.334 761.949 214.851C765.876 216.371 769.842 217.851 773.807 219.303C895.312 263.797 1034.42 280.359 1181.36 285.138C1271.54 288.125 1361.57 287.269 1451.95 280.529C1422.23 283.604 1417.32 280.604 1399.99 280.638M-168.728 359.03C-107.039 345.943 -55.7063 325.864 -11.7654 304.551C39.3622 279.748 75.9625 254.281 113.179 222.494C158.223 184.014 198.802 139.025 246.4 99.7166C286.556 66.5855 333.499 30.2235 395.792 12.7925C415.979 7.15863 439.566 3.1267 462.537 5.97077C473.15 7.2876 483.43 9.8398 493.889 11.5775C527.384 17.1299 570.619 15.1953 599.391 27.7663C565.562 51.4488 583.863 88.2656 604.216 113.346C614.252 125.693 626.649 137.497 640.906 148.724C674.773 175.461 718.547 198.906 765.94 217.165C769.867 218.679 773.858 220.125 777.837 221.557C898.931 265.162 1035.66 278.914 1182.33 283.298C1272.18 286.068 1361.14 286.224 1452.07 279.843C1407.5 284.452 1400.11 279.952 1374.12 280.013M-168.01 357.034C-106.256 343.54 -54.3203 323.075 -9.76338 302.386C42.2111 278.248 78.1313 255.122 115.989 224.034C161.74 186.471 203.204 140.905 251.611 101.047C292.562 67.3661 340.096 30.556 402.196 13.5866C422.331 8.10212 445.623 4.36206 468.338 7.40298C478.797 8.80126 488.923 11.401 499.24 13.1997C532.222 18.9558 574.815 17.3471 603.254 30.0741C570.182 53.7566 588.406 90.4105 608.81 115.58C618.82 127.913 631.166 139.71 645.359 150.951C679.162 177.796 722.68 201.431 769.919 219.46C773.858 220.96 777.862 222.385 781.841 223.797C902.498 266.506 1036.85 277.454 1183.26 281.452C1272.79 284.004 1360.7 285.179 1452.15 279.144C1392.71 285.294 1382.86 279.294 1348.22 279.368M-167.291 355.038C-105.461 341.137 -52.9215 320.278 -7.77425 300.214C45.0601 276.735 80.2745 255.957 118.8 225.562C165.256 188.915 207.593 142.778 256.808 102.371C298.567 68.1399 346.679 30.8819 408.574 14.374C428.658 9.04563 451.642 5.59066 474.113 8.82164C484.405 10.3014 494.402 12.9418 504.579 14.8152C537.047 20.7681 579.012 19.492 607.104 32.382C574.777 56.0645 592.936 92.5555 613.379 117.82C623.363 130.133 635.657 141.93 649.8 153.184C683.538 180.145 726.799 203.956 773.884 221.761C777.824 223.254 781.841 224.652 785.832 226.037C906.066 267.863 1038.04 275.995 1184.19 279.606C1273.39 281.941 1360.22 284.133 1452.22 278.452C1377.93 286.136 1365.61 278.635 1322.31 278.73M-166.572 353.043C-104.665 338.727 -51.5227 317.488 -5.7851 298.048C47.9091 275.228 82.4176 256.799 121.61 227.103C168.759 191.372 211.995 144.658 262.018 103.708C304.586 68.9205 353.288 31.2213 414.978 15.175C435.01 9.99592 457.699 6.83282 479.926 10.2606C490.065 11.8218 499.908 14.5098 509.956 16.4443C541.898 22.594 583.247 21.6505 610.992 34.7034C579.422 58.3791 597.504 94.7072 617.986 120.066C627.945 132.359 640.188 144.156 654.279 155.431C687.953 182.5 730.957 206.502 777.888 224.075C781.841 225.555 785.87 226.933 789.874 228.297C909.659 269.234 1039.29 274.556 1185.18 277.78C1274.06 279.898 1359.82 283.108 1452.36 277.78C1363.21 286.998 1348.44 278.004 1296.47 278.113M-165.854 351.047C-103.882 336.324 -50.1239 314.699 -3.78311 295.883C50.7837 273.721 84.5607 257.647 124.434 228.637C172.276 193.829 216.396 146.532 267.229 105.038C310.592 69.7011 359.885 31.5539 421.381 15.9691C441.363 10.9394 463.744 8.0614 485.727 11.6929C495.698 13.3423 505.413 16.0642 515.308 18.0666C546.736 24.4131 587.443 23.8022 614.855 37.018C584.042 60.6937 602.047 96.8589 622.568 122.306C632.488 134.579 644.692 146.376 658.719 157.664C692.329 184.849 735.089 209.027 781.853 226.376C785.806 227.842 789.861 229.2 793.865 230.544C913.201 270.599 1040.47 273.103 1186.1 275.934C1274.66 277.834 1359.36 282.056 1452.43 277.081C1348.43 287.839 1331.18 277.339 1270.56 277.468M-165.135 349.051C-103.087 333.922 -48.7122 311.909 -1.79396 293.711C53.6584 272.207 86.691 258.489 127.231 230.171C175.754 196.286 220.785 148.412 272.426 106.369C316.598 70.4749 366.481 31.8864 427.772 16.7633C447.702 11.8897 469.788 9.29678 491.515 13.1183C501.319 14.8424 510.893 17.6186 520.659 19.6821C551.561 26.2255 591.652 25.9472 618.718 39.319C588.649 62.9948 606.59 98.9971 627.162 124.533C637.056 136.791 649.222 148.582 663.185 159.883C696.731 187.177 739.234 211.538 785.845 228.671C789.81 230.13 793.878 231.453 797.882 232.777C916.769 271.949 1041.69 271.474 1187.05 274.081C1275.3 275.662 1358.91 281.004 1452.53 276.382C1333.67 288.674 1313.96 276.68 1244.67 276.83M-164.416 347.056C-102.291 331.519 -47.2877 309.119 0.208023 291.546C56.5458 270.707 88.8214 259.338 130.055 231.711C179.244 198.75 225.187 150.292 277.637 107.706C322.604 71.2623 373.077 32.2258 434.176 17.5643C454.055 12.84 475.833 10.5322 497.315 14.5573C506.966 16.3628 516.386 19.1798 526.023 21.3179C556.412 28.0582 595.862 28.1057 622.593 41.6473C593.282 65.323 611.159 101.156 631.756 126.786C641.625 139.025 653.739 150.815 667.651 162.137C701.12 189.539 743.392 214.084 789.836 230.992C793.814 232.438 797.882 233.741 801.912 235.044C920.337 273.341 1042.92 270.022 1188.01 272.262C1275.93 273.619 1358.49 279.986 1452.63 275.717C1318.91 289.55 1296.73 276.049 1218.8 276.219M-163.698 345.06C-101.495 329.116 -45.8632 306.329 2.19717 289.374C59.4205 269.193 90.9389 260.186 132.865 233.239C182.709 201.2 229.576 152.166 282.847 109.029C328.623 72.0361 379.622 32.4906 440.58 18.3517C460.381 13.7563 481.864 11.7539 503.116 15.9759C512.6 17.8629 521.891 20.7206 531.375 22.9266C561.238 29.8637 600.071 30.2438 626.469 43.9483C597.902 67.624 615.715 103.294 636.35 129.013C646.194 141.231 658.257 153.028 672.104 164.356C705.509 191.874 747.537 216.595 793.814 233.279C797.792 234.712 801.886 235.995 805.916 237.271C923.866 274.692 1044.11 268.535 1188.95 270.402C1276.55 271.528 1358.04 278.92 1452.72 275.011C1304.14 290.378 1279.51 275.384 1192.9 275.567M-162.979 343.065C-100.712 326.713 -44.4387 303.54 4.19916 287.208C62.3208 267.693 93.0563 261.041 135.688 234.779C186.187 203.671 233.991 154.046 288.07 110.367C334.654 72.8167 386.244 32.8232 446.996 19.1526C466.747 14.7066 487.922 12.9893 508.93 17.4149C518.246 19.3766 527.396 22.2818 536.752 24.5557C566.089 31.6828 604.293 32.4023 630.357 46.2697C602.548 69.9454 620.283 105.452 640.97 131.266C650.788 143.471 662.8 155.261 676.595 166.603C709.936 194.229 751.708 219.134 797.831 235.594C801.822 237.019 805.929 238.275 809.971 239.531C927.446 276.083 1045.37 267.076 1189.94 268.569C1277.22 269.472 1357.63 277.889 1452.85 274.325C1289.42 291.227 1262.32 274.732 1167.06 274.936M-162.26 341.069C-99.9167 324.31 -43.0014 300.757 6.18831 285.043C65.2211 266.186 95.1609 261.897 138.499 236.314C189.639 206.128 238.38 155.919 293.267 111.697C340.648 73.5973 392.827 33.149 453.387 19.9468C473.086 15.6501 493.94 14.2111 514.717 18.8472C523.867 20.8903 532.876 23.843 542.103 26.1779C570.914 33.4952 608.502 34.5541 634.22 48.5844C607.168 72.2601 624.826 107.597 645.552 133.506C655.344 145.69 667.304 157.48 681.049 168.843C714.325 196.585 755.853 221.666 801.822 237.909C805.813 239.321 809.945 240.556 813.988 241.784C930.975 277.461 1046.58 265.616 1190.9 266.736C1277.86 267.415 1357.2 276.857 1452.97 273.646C1274.67 292.089 1245.11 274.094 1141.18 274.311M-161.555 339.074C-99.1339 321.907 -41.5769 297.967 8.17746 282.871C68.1214 264.68 97.24 262.745 141.296 237.848C193.066 208.592 242.769 157.799 298.465 113.027C346.653 74.3779 399.411 33.4748 459.778 20.7409C479.426 16.5936 499.972 15.4329 520.505 20.2726C529.488 22.3904 538.369 25.3906 547.442 27.8002C575.726 35.3075 612.699 36.7058 638.07 50.8922C611.762 74.5679 629.356 109.742 650.12 135.739C659.874 147.903 671.796 159.693 685.489 171.07C718.701 198.92 759.986 224.184 805.787 240.203C809.791 241.601 813.924 242.809 817.979 244.024C934.479 278.839 1047.77 264.143 1191.82 264.89C1278.46 265.338 1356.74 275.812 1453.04 272.954C1259.89 292.93 1227.87 273.436 1115.27 273.68M-160.836 337.078C-98.3511 319.504 -40.1268 295.184 10.1666 280.706C71.0217 263.179 99.319 263.6 144.107 239.388C196.505 211.056 247.158 159.68 303.662 114.365C352.647 75.1585 405.994 33.8074 466.169 21.5419C485.766 17.5507 505.991 16.6615 526.293 21.7116C535.109 23.904 543.849 26.9518 552.793 29.4293C580.565 37.1266 616.895 38.8643 641.933 53.2136C616.382 76.8893 633.899 111.901 654.702 137.986C664.43 150.129 676.339 161.906 689.929 173.31C723.193 201.234 764.118 226.716 809.753 242.511C813.757 243.902 817.915 245.083 821.983 246.271C937.982 280.224 1048.96 262.67 1192.76 263.051C1279.08 263.275 1356.29 274.766 1453.12 272.262C1245.11 293.779 1210.62 272.784 1089.38 273.042M-160.117 335.082C-97.5554 317.102 -38.6766 292.408 12.1686 278.533C73.9477 261.679 101.411 264.449 146.93 240.916C199.931 213.513 251.572 161.553 308.885 115.688C358.678 75.9323 412.616 34.1264 472.586 22.3293C492.131 18.4874 512.035 17.8765 532.106 23.137C540.756 25.4041 549.354 28.4994 558.171 31.0448C585.416 38.9322 621.13 41.0092 645.821 55.5214C621.015 79.1972 638.468 114.039 659.322 140.219C669.024 152.349 680.895 164.112 694.421 175.543C727.62 203.576 768.302 229.234 813.77 244.812C817.787 246.19 821.957 247.35 826.025 248.518C941.524 281.608 1050.21 260.661 1193.74 261.211C1279.72 261.537 1355.87 273.728 1453.25 271.576C1230.39 294.627 1193.43 272.133 1063.52 272.411M-159.399 333.087C-96.7598 314.699 -37.2136 289.625 14.1577 276.368C76.8736 260.186 103.477 265.311 149.741 242.456C203.345 215.977 255.961 163.433 314.083 117.025C364.684 76.7196 419.2 34.459 478.977 23.1302C498.47 19.4377 518.054 19.0983 537.894 24.5692C546.377 26.911 554.834 30.047 563.509 32.6738C590.228 40.7445 625.314 43.1677 649.684 57.8429C625.635 81.5186 643.011 116.197 663.903 142.473C673.58 154.582 685.399 166.345 698.874 177.789C732.009 205.932 772.46 231.773 817.748 247.133C821.778 248.498 825.948 249.638 830.029 250.785C945.015 283.02 1051.4 259.758 1194.67 259.385C1280.33 259.161 1355.42 272.703 1453.33 270.904C1215.6 295.496 1176.18 271.494 1037.62 271.793M-158.68 331.084C-95.9769 312.289 -35.7506 286.842 16.1597 274.189C79.8125 258.679 105.543 266.153 152.551 243.984C206.746 218.428 260.363 165.3 319.293 118.342C370.69 77.4799 425.796 34.778 485.381 23.9108C504.823 20.3676 524.086 20.2997 543.695 25.9879C552.011 28.3975 560.339 31.5878 568.873 34.2825C595.066 42.5365 629.536 45.2991 653.56 60.1371C630.268 83.8128 647.567 118.329 668.498 144.692C678.148 156.781 689.916 168.545 703.327 180.002C736.411 208.26 776.605 234.27 821.726 249.414C825.756 250.765 829.952 251.885 834.046 253.005C948.506 284.391 1052.61 258.272 1195.62 257.519C1280.96 257.071 1354.99 271.637 1453.43 270.184C1200.85 296.311 1158.97 270.816 1011.73 271.128M-157.961 329.089C-95.1813 309.886 -34.2877 284.065 18.1488 272.024C82.7384 257.186 107.584 267.008 155.362 245.518C210.121 220.885 264.752 167.18 324.491 119.673C376.696 78.2605 432.392 35.1039 491.771 24.705C511.15 21.3111 530.104 21.508 549.482 27.4201C557.632 29.9044 565.819 33.1422 574.212 35.9048C599.879 44.342 633.72 47.4508 657.41 62.4518C634.862 86.1275 652.097 120.474 673.066 146.932C682.691 159.008 694.408 170.764 707.767 182.242C740.787 210.608 780.737 236.795 825.692 251.722C829.734 253.066 833.931 254.159 838.037 255.258C951.971 285.796 1053.79 256.813 1196.56 255.686C1281.58 255.014 1354.52 270.599 1453.52 269.506C1186.07 297.166 1141.74 270.171 985.838 270.51M-157.243 327.093C-94.3856 307.483 -32.8247 281.296 20.1508 269.859C85.6901 255.706 109.624 267.863 158.185 247.059C213.509 223.349 269.167 169.06 329.714 121.01C382.728 79.0478 439.001 35.4365 498.188 25.506C517.515 22.2614 536.149 22.723 555.309 28.8523C563.291 31.4045 571.337 34.6966 579.602 37.5271C604.742 46.1475 637.968 49.6025 661.311 64.7664C639.52 88.4421 656.691 122.625 677.699 149.172C687.298 161.227 698.977 172.984 712.272 184.475C745.228 212.95 784.946 239.32 829.721 254.023C833.777 255.353 837.986 256.426 842.093 257.498C955.487 287.188 1055.05 255.34 1197.55 253.84C1282.23 252.944 1354.13 269.553 1453.65 268.813C1171.34 298.014 1124.54 269.519 959.991 269.872M-156.524 325.098C-93.6028 305.08 -31.3489 278.527 22.14 267.687C88.6289 254.213 111.652 268.712 160.995 248.586C216.871 225.792 273.556 170.934 334.911 122.333C388.721 79.8149 445.598 35.7555 504.579 26.2933C523.855 23.1981 542.168 23.9244 561.096 30.2778C568.912 32.8978 576.817 36.2374 584.953 39.1494C609.568 47.9531 642.177 51.7542 665.174 67.081C644.14 90.7567 661.234 124.777 682.281 151.412C691.841 163.447 703.481 175.203 716.712 186.709C749.604 215.292 789.079 241.839 833.687 256.324C837.742 257.641 841.977 258.693 846.097 259.745C958.952 288.593 1056.24 253.88 1198.48 251.993C1282.85 250.88 1353.68 268.508 1453.74 268.121C1156.58 298.856 1107.3 268.861 934.094 269.234M-155.805 323.102C-92.8071 302.678 -29.8731 275.757 24.1291 265.521C91.5677 252.733 113.666 269.567 163.793 250.127C220.208 228.25 277.944 172.814 340.109 123.671C394.727 80.6022 452.181 36.0949 510.97 27.0943C530.194 24.1484 548.186 25.1394 566.884 31.7168C574.533 34.4047 582.297 37.7986 590.292 40.7784C614.38 49.7587 646.36 53.9128 669.024 69.4024C648.735 93.0782 665.764 126.929 686.849 153.659C696.384 165.673 707.973 177.43 721.152 188.955C753.993 217.647 793.224 244.371 837.652 258.645C841.72 259.949 845.955 260.974 850.088 262.005C962.404 290.018 1057.42 252.428 1199.41 250.167C1283.45 248.83 1353.2 267.483 1453.8 267.442C1141.79 299.718 1090.06 268.223 908.184 268.61M-155.087 321.106C-92.0115 300.275 -28.3844 272.995 26.1311 263.349C94.5321 251.247 115.681 270.408 166.616 251.661C223.57 230.693 282.346 174.687 345.319 125.001C400.733 81.3828 458.79 36.4207 517.374 27.8885C536.547 25.0919 554.218 26.3409 572.685 33.1422C580.167 35.898 587.802 39.3394 595.656 42.3939C619.218 51.5506 650.583 56.0577 672.912 71.7035C653.38 95.3792 670.333 129.067 691.456 155.892C700.966 167.893 712.503 179.643 725.631 191.182C758.407 219.989 797.407 246.882 841.669 260.94C845.737 262.236 849.998 263.234 854.143 264.245C965.895 291.43 1058.68 250.962 1200.4 248.321C1284.12 246.76 1352.8 266.431 1453.94 266.75C1127.07 300.56 1072.87 267.564 882.338 267.972M-154.368 319.111C-91.2286 297.872 -26.9086 270.239 28.1203 261.184C97.4838 249.774 117.683 271.257 169.427 253.195C226.894 233.137 286.748 176.568 350.529 126.331C406.751 82.1566 465.386 36.7533 523.778 28.6826C542.899 26.0422 560.25 27.5423 578.486 34.5744C585.801 37.3981 593.295 40.8938 601.021 44.023C624.056 53.3494 654.792 58.2162 676.788 74.0249C658 97.7006 674.889 131.225 696.064 158.139C705.547 170.119 717.033 181.869 730.11 193.422C762.822 222.338 801.578 249.407 845.673 263.247C849.754 264.53 854.015 265.508 858.173 266.492C969.372 292.849 1059.9 249.502 1201.36 246.482C1284.75 244.703 1352.38 265.392 1454.04 266.064C1112.31 301.408 1055.65 266.92 856.453 267.347M-153.649 317.115C-90.433 295.462 -25.4199 267.476 30.1222 259.019C100.448 248.301 119.685 272.099 172.25 254.736C230.231 235.58 291.15 178.448 355.739 127.669C412.77 82.944 471.995 37.0859 530.181 29.4768C549.251 26.9857 566.281 28.7437 584.286 36.0066C591.434 38.8914 598.788 42.4414 606.372 45.6452C628.882 55.1481 659.001 60.3679 680.651 76.3395C662.62 100.015 679.432 133.37 700.645 160.379C710.103 172.339 721.55 184.088 734.55 195.662C767.198 224.686 805.723 251.925 849.639 265.555C853.732 266.824 858.006 267.782 862.164 268.745C972.799 294.274 1061.08 248.05 1202.3 244.642C1285.36 242.64 1351.92 264.354 1454.13 265.372C1097.55 302.257 1038.43 266.261 830.568 266.709M-152.931 315.12C-89.6373 293.059 -23.9312 264.72 32.1114 256.847C103.4 246.828 121.662 272.934 175.048 256.263C233.529 238.011 295.539 180.321 360.937 128.992C418.763 83.7178 478.592 37.4049 536.572 30.2642C555.591 27.9224 572.3 29.9316 590.074 37.4253C597.068 40.3712 604.267 43.9755 611.724 47.254C633.72 56.9265 663.21 62.4993 684.514 78.6406C667.24 102.316 683.975 135.508 705.226 162.605C714.659 174.545 726.055 186.295 739.003 197.881C771.587 227.021 809.881 254.43 853.617 267.85C857.711 269.105 861.997 270.042 866.181 270.985C976.238 295.7 1062.28 246.583 1203.24 242.796C1285.99 240.576 1351.48 263.302 1454.24 264.68C1082.79 303.098 1021.21 265.61 804.684 266.071M-152.212 313.124C-88.8417 290.656 -22.4426 261.971 34.1134 254.681C106.377 245.368 123.638 273.768 177.871 257.804C236.84 240.447 299.941 182.201 366.16 130.329C424.795 84.4984 485.201 37.7443 542.989 31.0651C561.956 28.8727 578.357 31.1262 595.887 38.8643C602.715 41.8713 609.786 45.5299 617.101 48.883C638.571 58.7253 667.433 64.6578 688.402 80.9552C671.873 104.631 688.543 137.66 709.846 164.845C719.24 176.771 730.598 188.514 743.495 200.114C776.014 229.363 814.078 256.942 857.634 270.151C861.74 271.393 866.039 272.309 870.223 273.225C979.703 297.125 1063.53 245.117 1204.22 240.95C1286.65 238.506 1351.07 262.256 1454.35 263.987C1068.05 303.947 1004 264.951 778.825 265.433M-151.493 311.128C-88.0588 288.253 -20.954 259.222 36.1025 252.509C109.329 243.902 125.601 274.597 180.682 259.338C240.125 242.871 304.342 184.082 371.357 131.66C430.788 85.279 491.797 38.0769 549.38 31.8593C568.296 29.8162 584.376 32.3209 601.675 40.2965C608.336 43.3713 615.266 47.0775 622.439 50.5121C643.396 60.524 671.629 66.8163 692.252 83.2766C676.48 106.946 693.073 139.812 714.415 167.092C723.783 178.998 735.089 190.747 747.922 202.361C780.378 231.718 818.21 259.473 861.586 272.465C865.706 273.701 870.005 274.59 874.201 275.486C983.091 298.571 1064.7 243.671 1205.13 239.124C1287.23 236.463 1350.58 261.231 1454.42 263.308C1053.25 304.802 986.736 264.313 752.902 264.809M-150.775 309.133C-87.2632 285.851 -19.4653 256.473 38.1045 250.344C112.306 242.443 127.578 275.418 183.505 260.872C243.423 245.287 308.744 185.955 376.581 132.99C436.82 86.0528 498.419 38.4027 555.796 32.6535C574.661 30.7665 590.433 33.5087 607.489 41.7219C613.995 44.8511 620.771 48.6183 627.816 52.1276C648.26 62.3024 675.851 68.9612 696.153 85.5844C681.138 109.253 697.655 141.957 719.035 169.332C728.377 181.217 739.632 192.967 752.414 204.594C784.805 234.067 822.406 261.985 865.603 274.766C869.722 275.988 874.034 276.864 878.257 277.726C986.556 300.01 1065.94 242.212 1206.12 237.271C1287.89 234.393 1350.19 260.179 1454.55 262.609C1038.53 305.637 969.552 263.648 727.043 264.171M-150.056 307.137C-86.4675 283.448 -17.9766 253.724 40.0937 248.172C115.271 240.984 129.528 276.232 186.302 262.406C246.683 247.697 313.133 187.829 381.765 134.321C442.813 86.8334 504.99 38.7353 562.174 33.4476C580.988 31.71 596.465 34.6966 613.264 43.1541C619.603 46.3444 626.251 50.1659 633.155 53.7498C653.085 64.0944 680.048 71.1129 700.003 87.8991C685.733 111.568 702.198 144.109 723.603 171.572C732.92 183.444 744.124 195.186 756.854 206.827C789.181 236.409 826.564 264.496 869.568 277.067C873.701 278.275 878.026 279.131 882.248 279.972C989.957 301.456 1067.12 240.753 1207.04 235.431C1288.5 232.336 1349.72 259.134 1454.62 261.924C1023.75 306.492 952.304 262.996 701.145 263.539M-149.337 305.141C-85.6847 281.045 -16.488 250.989 42.0956 246.006C118.235 239.538 131.479 277.054 189.126 263.94C249.968 250.106 317.535 189.709 386.988 135.644C448.832 87.6072 511.612 39.0611 568.591 34.235C587.353 32.6467 602.522 35.8777 619.077 44.5728C625.263 47.8241 631.756 51.6999 638.519 55.3586C657.936 65.866 684.257 73.2511 703.879 90.2001C690.365 113.869 706.753 146.24 728.211 173.798C737.502 185.65 748.654 197.392 761.32 209.047C793.583 238.744 830.735 266.994 873.56 279.362C877.705 280.556 882.03 281.391 886.277 282.206C993.383 302.895 1068.34 239.287 1208.02 233.578C1289.14 230.266 1349.3 258.082 1454.75 261.225C1009.01 307.327 935.108 262.338 675.286 262.894M-148.619 303.146C-84.889 278.642 -14.9993 248.246 44.0848 243.841C121.2 238.092 133.417 277.861 191.936 265.481C250.456 253.1 321.937 191.589 392.186 136.981C454.837 88.3878 518.208 39.4005 574.982 35.036C593.693 33.597 608.567 37.0655 624.865 46.0118C630.896 49.3174 637.249 53.2543 643.871 56.9944C662.774 67.6648 688.466 75.4164 707.742 92.5215C694.973 116.19 711.296 148.398 732.792 176.045C742.058 187.876 753.158 199.619 765.773 211.294C797.972 241.099 834.893 269.519 877.538 281.676C881.696 282.857 886.033 283.672 890.281 284.466C996.784 304.368 1069.55 237.841 1208.96 231.752C1289.75 228.223 1348.85 257.057 1454.83 260.546C994.23 308.189 917.86 261.693 649.389 262.27M-147.9 301.15C-84.0934 276.239 -13.5107 245.511 46.0868 241.669C124.177 236.639 135.367 278.662 194.76 267.015C256.513 254.905 326.338 193.469 397.409 138.312C460.856 89.1684 524.83 39.7263 581.399 35.8301C600.058 34.5472 614.637 38.2466 630.691 47.444C636.569 50.8107 642.767 54.8019 649.261 58.6167C667.651 69.4431 692.714 77.5681 711.643 94.8362C699.631 118.505 715.878 150.55 737.412 178.285C746.639 190.096 757.701 201.838 770.265 213.527C802.399 243.441 839.102 272.031 881.568 283.977C885.725 285.151 890.076 285.939 894.337 286.706C1000.24 305.82 1070.79 236.381 1209.94 229.906C1290.42 226.159 1348.45 256.012 1454.97 259.854C979.511 309.031 900.689 261.041 623.543 261.632M-147.181 299.148C-83.3105 273.829 -12.0221 242.769 48.0759 239.497C127.129 235.194 137.305 279.45 197.57 268.542C259.76 257.288 330.74 195.336 402.606 139.635C466.862 89.9422 531.413 40.0521 587.777 36.6175C606.385 35.484 620.668 39.4209 636.466 48.8626C642.19 52.2837 648.247 56.3292 654.586 60.2253C672.476 71.2147 696.885 79.6994 715.48 97.1372C704.225 120.806 720.395 152.681 741.968 180.511C751.169 192.308 762.18 204.044 774.693 215.747C806.763 245.776 843.235 274.529 885.52 286.265C889.691 287.425 894.041 288.192 898.328 288.939C1003.61 307.273 1071.97 234.915 1210.87 228.046C1291.02 224.082 1347.99 254.946 1455.03 259.148C964.727 309.859 883.428 260.369 597.633 260.98M-146.463 297.152C-82.5149 271.427 -10.5334 240.033 50.0651 237.325C130.093 233.748 139.23 280.237 200.368 270.076C263.007 259.663 335.116 197.209 407.804 140.966C472.868 90.716 538.01 40.3847 594.168 37.4117C612.725 36.4275 626.726 40.5952 642.254 50.2949C647.823 53.777 653.739 57.8768 659.938 61.8544C677.327 72.9999 701.094 81.858 719.343 99.4586C708.832 123.128 724.938 154.84 746.562 182.765C755.738 194.542 766.697 206.278 779.146 218C811.152 248.138 847.406 277.054 889.499 288.593C893.682 289.74 898.045 290.494 902.332 291.213C1007 308.773 1073.17 233.497 1211.8 226.234C1291.63 222.052 1347.53 253.935 1455.12 258.482C949.956 310.735 866.193 259.745 571.735 260.376M-145.744 295.157C-81.7192 269.024 -9.04472 237.305 52.067 235.16C133.057 232.316 141.168 281.018 203.191 271.61C265.214 262.202 339.531 199.089 413.014 142.296C478.874 91.4966 544.619 40.7173 600.571 38.2059C619.077 37.3778 632.796 41.7694 648.054 51.7271C653.47 55.2635 659.245 59.4244 665.302 63.4767C682.191 74.7851 705.303 84.0097 723.231 101.767C713.478 125.435 729.507 156.985 751.169 184.998C760.319 196.754 771.24 208.49 783.624 220.227C815.566 250.48 851.589 279.558 893.502 290.887C897.686 292.021 902.062 292.754 906.361 293.446C1010.41 310.239 1074.4 232.03 1212.77 224.381C1292.27 219.982 1347.11 252.882 1455.23 257.783C935.198 311.569 848.984 259.08 545.851 259.731M-145.025 293.161C-80.9364 266.621 -7.5689 234.576 54.0562 232.988C136.009 230.877 143.106 281.792 206.001 273.144C268.897 264.496 343.92 200.963 418.224 143.627C484.893 92.2772 551.228 41.0499 606.975 39C625.429 38.3212 638.866 42.9505 653.855 53.1525C659.129 56.7432 664.75 60.9584 670.654 65.0922C687.042 76.5567 709.513 86.1546 727.094 104.074C718.085 127.743 734.05 159.123 755.751 187.231C764.875 198.974 775.745 210.703 788.078 222.453C819.942 252.815 855.76 282.056 897.481 293.181C901.677 294.301 906.053 295.014 910.378 295.686C1013.8 311.719 1075.61 230.571 1213.73 222.534C1292.91 217.925 1346.68 251.837 1455.34 257.091C920.452 312.418 831.775 258.428 519.992 259.093M-144.307 291.165C-80.1407 264.218 -6.08024 231.847 56.0582 230.822C138.974 229.451 145.044 282.565 208.825 274.685C272.798 266.777 348.335 202.85 423.435 144.964C490.899 93.0578 557.824 41.3893 613.379 39.801C631.782 39.2715 644.949 44.1316 659.656 54.5915C664.776 58.2365 670.256 62.5128 676.018 66.7212C691.906 78.3419 713.722 88.3131 730.97 106.396C722.718 130.065 738.606 161.282 760.358 189.478C769.457 201.2 780.275 212.93 792.544 224.7C824.344 255.177 859.944 284.575 901.472 295.496C905.681 296.602 910.07 297.295 914.395 297.94C1017.19 313.219 1076.81 229.132 1214.68 220.695C1293.54 215.869 1346.23 250.792 1455.44 256.399C905.707 313.26 814.553 257.77 494.107 258.455M-143.588 289.17C-79.3451 261.815 -4.56593 227.571 58.0473 228.657C141.887 230.103 146.969 283.332 211.622 276.219C276.276 269.105 352.711 204.723 428.632 146.294C496.905 93.8384 564.42 41.7287 619.77 40.5951C638.122 40.2218 651.032 45.2991 665.443 56.0237C670.423 59.7231 675.748 64.0537 681.369 68.3503C696.769 80.1271 717.931 90.4716 734.833 108.717C727.338 132.386 743.161 163.44 764.939 191.725C774 203.427 784.779 215.156 796.997 226.94C828.733 257.525 864.114 287.086 905.45 297.811C909.672 298.903 914.061 299.582 918.412 300.2C1020.58 314.726 1078.03 227.693 1215.63 218.869C1294.16 213.832 1345.8 249.767 1455.53 255.727C890.936 314.122 797.318 257.138 468.223 257.838M-142.869 287.174C-78.5494 259.412 -3.05161 224.896 60.0493 226.485C144.787 228.623 148.919 284.086 214.446 277.753C279.972 271.42 357.125 206.597 433.855 147.625C502.936 94.619 571.042 42.0613 626.187 41.3893C644.5 41.1653 657.127 46.4734 671.257 57.4492C676.095 61.2028 681.267 65.5877 686.734 69.9658C701.646 81.8987 722.153 92.6166 738.708 111.025C731.958 134.694 747.717 165.578 769.534 193.965C778.568 205.646 789.297 217.376 801.463 229.173C833.135 259.874 868.298 289.591 909.441 300.112C913.663 301.191 918.065 301.849 922.428 302.44C1023.96 316.219 1079.24 226.24 1216.58 217.023C1294.78 211.769 1345.36 248.722 1455.64 255.034C876.178 314.97 780.108 256.48 442.338 257.206M-142.151 285.179C-77.7666 257.009 -1.52446 222.222 62.0385 224.32C147.687 227.143 150.844 284.839 217.256 279.294C283.668 273.748 361.514 208.484 439.053 148.962C508.93 95.3996 577.639 42.4007 632.578 42.1903C650.839 42.1224 663.21 47.6544 677.045 58.8882C681.742 62.7029 686.759 67.1421 692.085 71.5949C706.51 83.6771 726.35 94.7751 742.571 113.34C736.578 137.009 752.26 167.73 774.115 196.205C783.124 207.873 793.801 219.602 805.916 231.413C837.511 262.222 872.469 292.102 913.42 302.42C917.655 303.485 922.069 304.13 926.432 304.693C1027.34 317.733 1080.43 224.801 1217.52 215.19C1295.4 209.726 1344.9 247.683 1455.71 254.355C861.394 315.825 762.86 255.842 416.428 256.582M-141.432 283.183C-76.9709 254.6 -0.164139 220.96 64.0404 222.147C150.793 223.756 152.795 285.579 220.079 280.821C285.85 276.171 365.929 210.35 444.276 150.285C514.961 96.1734 584.248 42.7333 638.994 42.9776C657.204 43.0591 669.332 48.8151 682.858 60.3136C687.414 64.1826 692.29 68.6761 697.449 73.2171C711.399 85.4555 730.572 96.92 746.459 115.654C741.224 139.323 756.829 169.882 778.735 198.445C787.718 210.092 798.344 221.822 810.395 233.646C841.926 264.571 876.652 294.607 917.424 304.721C921.671 305.773 926.086 306.397 930.475 306.933C1030.74 319.24 1081.68 223.349 1218.49 213.337C1296.05 207.662 1344.49 246.631 1455.84 253.649C846.674 316.66 745.664 255.17 390.582 255.93M-140.714 281.187C-76.1753 252.197 1.31168 218.245 66.0296 219.982C153.732 222.338 154.746 286.319 222.877 282.362C289.109 278.513 370.305 212.237 449.46 151.623C520.954 96.9607 590.831 43.0727 645.372 43.7786C663.531 44.0162 675.415 49.9962 688.633 61.7458C693.048 65.6692 697.77 70.2169 702.788 74.8394C716.25 87.2339 734.756 99.0717 750.309 117.969C745.818 141.638 761.359 172.027 783.304 200.685C792.261 212.312 802.836 224.041 814.835 235.879C846.302 266.92 880.81 297.105 921.402 307.022C925.662 308.06 930.077 308.671 934.479 309.18C1034.12 320.76 1082.87 221.91 1219.44 211.497C1296.68 205.612 1344.05 245.592 1455.94 252.964C831.916 317.509 728.442 254.525 364.697 255.299M-139.995 279.192C-75.3925 249.794 2.78751 215.529 68.0316 217.817C156.683 220.926 156.696 287.052 225.7 283.896C292.395 280.848 374.72 214.111 454.684 152.946C526.973 97.7278 597.453 43.4053 651.789 44.566C669.897 44.9529 681.536 51.1569 694.446 63.1713C698.72 67.1489 703.301 71.7578 708.165 76.4549C721.152 89.0055 738.991 101.217 754.198 120.277C750.463 143.946 765.927 174.172 787.911 202.918C796.843 214.532 807.353 226.254 819.314 238.112C850.704 269.261 885.02 299.609 925.406 309.33C929.679 310.354 934.094 310.945 938.509 311.434C1037.52 322.287 1084.1 220.471 1220.4 209.665C1297.31 203.569 1343.61 244.561 1456.05 252.285C817.158 318.364 711.232 253.88 338.825 254.674M-139.276 277.196C-74.5968 247.391 4.2505 212.808 70.0207 215.645C159.622 219.507 158.647 287.778 228.511 285.43C295.68 283.17 379.109 215.984 459.881 154.277C532.979 98.5084 604.049 43.7379 658.18 45.3602C676.236 45.9032 687.645 52.3312 700.234 64.6035C704.367 68.6354 708.794 73.2986 713.504 78.0772C726.016 90.7771 743.174 103.368 758.048 122.585C755.058 146.253 770.458 176.317 792.479 205.151C801.386 216.744 811.845 228.467 823.741 240.339C855.067 271.603 889.165 302.101 929.359 311.624C933.632 312.635 938.072 313.212 942.5 313.667C1040.87 323.801 1085.28 219.012 1221.33 207.812C1297.92 201.506 1343.15 243.502 1456.12 251.579C802.374 319.199 693.984 253.208 312.915 254.03M-138.558 275.201C-73.8011 244.988 5.7263 210.099 72.0227 213.48C162.561 218.095 160.623 288.505 231.334 286.971C298.978 285.498 383.523 217.871 465.104 155.614C538.998 99.2957 610.658 44.0841 664.596 46.1611C682.601 46.8535 693.779 53.5055 706.061 66.0357C710.065 70.1219 714.338 74.8394 718.894 79.7063C730.944 92.5623 747.422 105.527 761.949 124.906C759.716 148.575 775.039 178.468 797.112 207.404C805.98 218.978 816.401 230.7 828.246 242.585C859.507 273.958 893.387 304.612 933.388 313.938C937.674 314.936 942.115 315.5 946.555 315.927C1044.29 325.355 1086.54 217.586 1222.31 205.979C1298.58 199.463 1342.75 242.47 1456.25 250.9C787.654 320.054 676.788 252.57 287.056 253.405M-137.839 273.205C-73.0183 242.585 7.18928 207.384 74.0118 211.307C165.487 216.683 162.856 291.878 234.132 288.498C302.007 285.28 387.899 219.738 470.289 156.937C544.991 100.063 617.242 44.4099 670.974 46.9485C688.928 47.797 699.875 54.6662 711.836 67.4611C715.711 71.6016 719.831 76.3802 724.232 81.3217C735.808 94.3339 751.618 107.672 765.799 127.214C764.323 150.883 779.569 180.613 801.681 209.638C810.523 221.19 820.892 232.913 832.686 244.819C863.871 276.307 897.545 307.117 937.354 316.239C941.653 317.224 946.093 317.767 950.559 318.167C1047.66 326.889 1087.73 216.14 1223.25 204.133C1299.2 197.406 1342.29 241.425 1456.34 250.208C772.883 320.903 659.566 251.912 261.171 252.767M-137.12 271.209C-72.2226 240.183 8.65228 204.669 76.0138 209.142C168.426 215.278 164.717 292.455 236.955 290.039C305.433 287.744 392.314 221.625 475.512 158.275C551.022 100.85 623.864 44.756 677.391 47.7495C695.293 48.7473 706.022 55.8473 717.649 68.9001C721.383 73.095 725.362 77.9279 729.597 82.9508C740.71 96.1123 755.828 109.83 769.688 129.535C768.956 153.204 784.138 182.772 806.288 211.884C815.104 223.424 825.384 235.153 837.152 247.059C868.157 278.69 901.729 309.615 941.345 318.554C945.657 319.525 950.11 320.054 954.576 320.428C1051.04 328.451 1088.95 214.715 1224.2 202.307C1299.83 195.37 1341.86 240.4 1456.43 249.536C758.112 321.765 642.331 251.281 235.274 252.149M-136.402 269.207C-71.427 237.773 10.1152 201.954 78.003 206.963C171.352 213.86 166.578 293.005 239.766 291.559C308.86 290.195 396.703 223.485 480.709 159.591C557.016 101.61 630.447 45.0819 683.782 48.5301C701.633 49.684 712.143 57.008 723.437 70.312C727.043 74.5611 730.867 79.4483 734.948 84.5595C745.6 97.8771 760.037 111.962 773.55 131.836C773.576 155.505 788.694 184.903 810.882 214.111C819.673 225.63 829.901 237.359 841.618 249.278C872.559 281.025 905.912 312.099 945.336 320.842C949.661 321.799 954.114 322.315 958.593 322.654C1054.43 329.978 1090.17 213.255 1225.16 200.447C1300.47 193.299 1341.43 239.334 1456.55 248.823C743.367 322.593 625.121 250.602 209.415 251.491M-135.696 267.211C-70.657 235.37 11.5526 199.239 79.9793 204.798C174.265 212.455 168.516 291.342 242.563 293.1C312.183 294.749 401.079 225.372 485.907 160.929C563.022 102.398 637.043 45.4281 690.173 49.3242C707.973 50.6275 718.278 58.1755 729.224 71.7442C732.702 76.0544 736.373 80.9959 740.299 86.1818C750.489 99.6555 764.233 114.113 777.413 134.144C778.196 157.806 793.236 187.048 815.464 216.344C824.229 227.842 834.405 239.572 846.071 251.511C876.948 283.366 910.096 314.597 949.314 323.143C953.639 324.086 958.105 324.588 962.609 324.901C1057.82 331.539 1091.39 211.816 1226.11 198.601C1301.1 191.25 1341 238.289 1456.65 248.131C728.608 323.434 607.899 249.95 183.53 250.86M-134.977 265.216C-69.8613 232.967 13.0156 196.53 81.9813 202.633C177.191 211.056 170.518 292.048 245.387 294.641C315.52 297.064 405.494 227.252 491.117 162.266C569.027 103.185 643.64 45.7742 696.577 50.1252C714.325 51.5845 724.425 59.3565 735.025 73.1764C738.375 77.5409 741.891 82.5367 745.651 87.8041C755.391 101.434 768.443 116.265 781.276 136.459C782.803 160.121 797.779 189.2 820.045 218.584C828.785 230.069 838.91 241.791 850.524 253.745C881.324 285.708 914.267 317.088 953.292 325.444C957.63 326.374 962.096 326.862 966.613 327.141C1061.19 333.093 1092.58 210.371 1227.05 196.754C1301.71 189.193 1340.53 237.243 1456.73 247.439C713.838 324.276 590.664 249.292 157.62 250.222M-134.258 263.22C-69.0657 230.564 14.4657 193.822 83.9704 200.461C180.104 209.644 172.52 292.747 248.184 296.168C318.844 299.365 409.87 229.119 496.314 163.589C575.033 103.952 650.236 46.1068 702.968 50.9126C720.665 52.528 730.559 60.524 740.813 74.6018C744.034 79.0207 747.396 84.0708 751.002 89.4195C760.281 103.205 772.639 118.41 785.139 138.767C787.423 162.429 802.322 191.338 824.627 220.824C833.328 232.288 843.414 244.011 854.964 255.978C885.7 288.057 918.425 319.586 957.258 327.745C961.608 328.661 966.087 329.136 970.604 329.387C1064.57 334.668 1093.78 208.938 1227.97 194.915C1302.32 187.15 1340.07 236.205 1456.8 246.746C699.053 325.125 573.416 248.64 131.723 249.584M-133.54 261.225C-68.27 228.161 15.9159 191.114 85.9724 198.295C183.03 208.246 174.534 293.446 251.008 297.709C322.193 301.673 414.285 231.006 501.525 164.927C581.052 104.74 656.832 46.453 709.372 51.7135C727.004 53.4783 736.706 61.7051 746.613 76.0408C749.706 80.5208 752.927 85.6252 756.367 91.0554C765.196 105.004 776.861 120.575 789.014 141.095C792.043 164.757 806.878 193.503 829.234 223.077C837.909 234.522 847.945 246.251 859.443 258.231C890.114 290.419 922.634 322.097 961.275 330.073C965.638 330.976 970.117 331.437 974.66 331.661C1068.01 336.27 1095.04 207.527 1228.96 193.103C1302.98 185.127 1339.67 235.187 1456.93 246.088C684.321 326 556.22 248.016 105.864 248.98M-132.821 259.229C-67.4872 225.759 17.366 188.405 87.9615 196.123C185.943 206.841 176.549 294.139 253.818 299.236C325.53 303.967 418.673 232.872 506.735 166.25C587.058 105.513 663.441 46.7856 715.775 52.5009C733.357 54.4218 742.866 62.8726 752.414 77.4595C755.379 81.9937 758.446 87.1524 761.718 92.6641C770.098 106.769 781.071 122.714 792.89 143.396C796.676 167.058 811.434 195.641 833.828 225.304C842.478 236.728 852.462 248.457 863.909 260.451C894.516 292.754 926.817 324.575 965.266 332.36C969.642 333.243 974.121 333.698 978.677 333.888C1071.41 337.825 1096.25 206.074 1229.91 191.243C1303.61 183.064 1339.23 234.128 1457.03 245.382C669.563 326.835 538.998 247.35 79.9921 248.328M-132.102 257.233C-66.6915 223.356 18.8162 185.697 89.9635 193.958C188.856 205.443 178.577 294.838 256.641 300.777C328.905 306.275 423.088 234.759 511.958 167.587C593.09 106.294 670.051 47.1318 722.192 53.3018C739.722 55.3789 749.039 64.0537 758.228 78.8985C761.077 83.4938 763.99 88.7068 767.095 94.2932C775.026 108.554 785.293 124.872 796.779 145.71C801.321 169.373 816.003 197.786 838.435 227.544C847.059 238.954 856.992 250.676 868.375 262.684C898.918 295.096 931.001 327.066 969.257 334.661C973.633 335.53 978.138 335.971 982.706 336.134C1074.84 339.413 1097.49 204.642 1230.89 189.396C1304.28 181.007 1338.82 233.083 1457.16 244.683C654.843 327.67 521.814 246.685 54.1332 247.69M-131.384 255.238C-65.8959 220.953 20.2535 182.989 91.9527 191.793C191.757 204.044 180.605 295.53 259.439 302.318C332.242 308.583 427.464 236.639 517.143 168.925C599.07 107.081 676.608 47.5322 728.57 54.1028C746.049 56.3495 755.173 65.2347 764.003 80.3375C766.723 84.9871 769.482 90.2544 772.434 95.9222C779.916 110.346 789.489 127.031 800.628 148.032C805.916 171.694 820.533 199.945 843.004 229.79C851.602 241.18 861.496 252.903 872.815 264.931C903.294 297.451 935.172 329.571 973.222 336.976C977.611 337.831 982.116 338.259 986.697 338.388C1078.22 341.008 1098.68 203.216 1231.81 187.564C1304.88 178.971 1338.35 232.044 1457.23 244.004C640.046 328.525 504.553 246.047 28.2229 247.065M-130.665 253.242C-65.113 218.55 21.7037 180.281 93.9547 189.621C194.67 202.639 182.645 296.216 262.262 303.845C335.63 310.877 431.879 238.506 522.366 170.241C605.102 107.848 683.217 47.8513 734.987 54.8834C752.401 57.2863 761.359 66.4022 769.816 81.7494C772.408 86.4601 775.026 91.7817 777.798 97.5309C784.844 112.118 793.699 129.162 804.504 150.333C810.549 173.995 825.089 202.083 847.611 232.017C856.183 243.386 866.027 255.109 877.294 267.15C907.709 299.786 939.368 332.048 977.226 339.27C981.628 340.112 986.145 340.526 990.727 340.628C1081.65 342.596 1099.98 201.906 1232.77 185.718C1305.55 176.988 1337.92 230.999 1457.34 243.312C625.301 329.374 487.344 245.389 2.35115 246.427M-129.946 251.247C-64.3174 216.147 23.141 177.572 95.9438 187.455C197.57 201.241 184.685 296.908 265.073 305.386C339.005 313.178 436.268 240.393 527.563 171.579C611.108 108.629 689.801 48.1907 741.378 55.6843C758.741 58.2365 767.519 67.5901 775.604 83.1884C778.081 87.9602 780.545 93.3361 783.15 99.16C789.746 113.903 797.908 131.32 808.367 152.654C815.156 176.317 829.632 204.235 852.192 234.27C860.726 245.626 870.531 257.342 881.734 269.397C912.085 302.141 943.539 334.546 981.192 341.585C985.607 342.406 990.124 342.814 994.731 342.881C1085.06 344.205 1101.17 200.461 1233.71 183.885C1306.17 174.939 1337.47 229.967 1457.42 242.633C610.517 330.229 470.109 244.744 -23.5591 245.803M-129.228 249.251C-63.5217 213.744 24.5783 174.871 97.9458 185.283C200.47 199.843 186.752 297.593 267.896 306.913C342.393 315.472 440.682 242.26 532.786 172.902C617.126 109.403 696.423 48.5165 747.794 56.4717C765.106 59.1733 773.704 68.7644 781.43 84.6138C783.778 89.4467 786.088 94.8701 788.54 100.775C794.7 115.681 802.156 133.465 812.268 154.955C819.814 178.618 834.226 206.373 856.812 236.497C865.321 247.832 875.074 259.548 886.226 271.623C916.512 304.483 947.748 337.03 985.209 343.879C989.636 344.687 994.153 345.087 998.773 345.121C1088.53 345.807 1102.41 199.001 1234.69 182.032C1306.82 172.868 1337.06 228.915 1457.55 241.927C595.797 331.064 452.913 244.079 -49.4052 245.151M-128.509 247.255C-62.7389 211.335 26.0156 172.162 99.9349 183.118C203.371 198.445 188.805 298.286 270.694 308.454C345.768 317.773 445.059 244.147 537.971 174.239C623.119 110.19 702.993 48.8559 754.172 57.2727C771.433 60.1303 779.851 69.9522 787.205 86.046C789.438 90.94 791.594 96.4177 793.865 102.405C799.589 117.48 806.326 135.624 816.105 157.277C824.408 180.939 838.743 208.531 861.381 238.744C869.864 250.059 879.566 261.774 890.666 273.863C920.888 306.832 951.906 339.522 989.174 346.187C993.614 346.981 998.145 347.341 1002.76 347.368C1091.94 348.006 1103.59 197.549 1235.61 180.192C1307.42 170.812 1336.58 227.87 1457.61 241.241C581.001 331.912 435.652 243.427 -75.3283 244.527M-127.79 245.26C-61.9432 208.932 27.4273 169.495 101.937 180.946C206.232 197.101 190.871 298.971 273.517 309.988C349.169 320.075 449.473 246.02 543.194 175.57C629.138 110.964 709.615 49.1885 760.589 58.0669C777.798 61.0738 786.037 71.1333 793.018 87.4782C795.136 92.4265 797.138 97.9653 799.242 104.027C804.53 119.265 810.561 137.776 820.007 159.591C829.054 183.254 843.325 210.676 866.001 240.984C874.458 252.278 884.109 263.994 895.158 276.097C925.316 309.173 956.141 341.979 993.191 348.488C997.644 349.262 1002.17 349.649 1006.82 349.615C1095.43 349.031 1104.85 196.089 1236.61 178.353C1308.11 168.755 1336.2 226.831 1457.77 240.556C566.294 332.761 418.481 242.782 -101.149 243.895M-127.072 243.264C401.233 242.131 551.497 333.616 1457.83 239.87C1335.72 225.799 1308.7 166.705 1237.52 176.52C1106.03 194.65 1098.86 350.653 1010.8 351.868C967.666 352.466 933.298 315.534 899.573 278.337C784.215 151.086 821.508 68.9069 766.967 58.8678C660.875 39.3462 422.536 332.333 276.315 311.529C192.924 299.664 209.146 195.655 103.913 178.787C28.8774 166.759 -61.1604 206.536 -127.085 243.271L-127.072 243.264Z" stroke="url(#paint0_linear_4_25)" stroke-miterlimit="10"/>
<defs>
<linearGradient id="paint0_linear_4_25" x1="-128.573" y1="204.9" x2="1461" y2="204.9" gradientUnits="userSpaceOnUse">
<stop stop-color="white"/>
<stop offset="1"/>
</linearGradient>
</defs>
</svg>
