<svg width="1440" height="446" viewBox="0 0 1440 446" fill="none" xmlns="http://www.w3.org/2000/svg">
<path opacity="0.3" d="M1722.56 508.717C1531.31 501.838 1341.31 494.959 1151.76 487.989C1015.91 482.981 880.108 478.336 743.646 473.354C707.745 472.041 671.758 470.715 635.653 469.414C720.963 472.816 805.716 476.296 891.005 479.488C932.965 481.056 975.22 482.555 1017.5 484.027C905.976 479.493 794.538 474.863 682.282 470.26C580.513 466.131 478.306 462.005 376.177 458.112C226.874 452.43 78.7075 447.475 -70.0108 441.746C-71.088 441.683 -72.2959 440.523 -71.3514 440.261M1722.35 505.315C1530.44 498.87 1341.12 492.449 1152.67 485.833C1017.62 481.069 882.671 477.029 746.343 472.322C710.615 471.086 674.684 469.812 638.546 468.6C722.86 472.092 806.117 475.742 890.362 478.791C931.8 480.288 973.797 481.667 1015.85 482.969C905.181 478.22 794.719 473.289 682.679 468.384C581.182 464.037 478.836 459.725 376.59 455.857C226.905 450.22 79.4379 446.013 -69.1926 440.278C-71.3474 440.161 -73.7332 437.823 -71.8446 437.309M1722.11 501.903C1529.54 495.901 1340.91 489.929 1153.57 483.678C1019.31 479.145 885.233 475.721 749.011 471.289C713.426 470.129 677.58 468.909 641.38 467.784C724.728 471.357 806.432 475.174 889.66 478.102C930.576 479.528 972.315 480.777 1014.15 481.919C904.327 476.954 794.841 471.713 683.017 466.527C581.791 461.97 479.278 457.461 376.943 453.619C226.848 448.016 80.0796 444.578 -68.4335 438.828C-71.6655 438.647 -75.2591 435.149 -72.4262 434.373M1721.89 498.501C1528.66 492.943 1340.72 487.419 1154.47 481.523C1021.02 477.233 887.796 474.414 751.709 470.247C716.296 469.164 680.506 468.006 644.274 466.95C726.626 470.613 806.806 474.599 889.047 477.397C929.44 478.751 970.893 479.868 1012.56 480.854C903.591 475.673 795.084 470.021 683.443 464.652C582.491 459.796 479.838 455.171 377.385 451.355C226.879 445.795 80.8392 443.117 -67.5565 437.352C-71.8661 437.118 -76.6668 432.44 -72.8898 431.412M1721.65 495.089C1527.76 489.975 1340.5 484.908 1155.38 479.358C1022.73 475.311 890.359 473.096 754.407 469.206C719.165 468.2 683.403 467.093 647.138 466.125C728.524 469.879 807.179 474.023 888.375 476.699C928.245 477.992 969.44 478.979 1010.88 479.795C902.768 474.389 795.237 468.416 683.811 462.776C583.161 457.682 480.309 452.889 377.768 449.099C226.853 443.572 81.5404 441.655 -66.7679 435.893C-72.1547 435.595 -78.1345 429.758 -73.4126 428.458M1721.44 491.688C1526.89 487.007 1340.31 482.398 1156.28 477.203C1024.44 473.398 892.922 471.779 757.075 468.173C721.977 467.243 686.299 466.189 649.973 465.309C730.363 469.143 807.494 473.466 887.702 476.011C927.05 477.233 967.988 478.089 1009.2 478.746C901.944 473.125 795.389 466.821 684.178 460.919C583.8 455.596 480.81 450.617 378.15 446.863C226.825 441.379 82.2115 440.221 -65.9794 434.443C-72.4147 434.093 -79.6311 427.085 -73.9647 425.523M1721.2 488.275C1525.99 484.038 1340.09 479.877 1157.19 475.048C1026.13 471.485 895.514 470.473 759.773 467.131C724.847 466.268 689.225 465.277 652.866 464.486C732.26 468.409 807.896 472.892 887.06 475.305C925.885 476.456 966.565 477.191 1007.58 477.68C901.178 471.843 795.6 465.208 684.575 459.044C584.469 453.481 481.311 448.335 378.563 444.598C226.827 439.147 82.9418 438.759 -65.161 432.965C-72.6734 432.551 -81.0973 424.374 -74.4869 422.56M1720.99 484.864C1525.12 481.07 1339.9 477.358 1158.12 472.883C1027.87 469.564 898.106 469.156 762.5 466.09C727.746 465.304 692.181 464.365 655.759 463.662C734.187 467.677 808.269 472.326 886.417 474.608C924.719 475.688 965.143 476.293 1005.93 476.622C900.384 470.57 795.811 463.605 684.972 457.168C585.138 451.376 481.841 446.055 378.975 442.342C226.83 436.936 83.6428 437.306 -64.3426 431.497C-72.9327 431.03 -82.5349 421.684 -74.98 419.607M1720.74 481.461C1524.22 478.101 1339.71 474.848 1159 470.727C1029.55 467.64 900.669 467.839 765.139 465.056C730.557 464.347 695.048 463.461 658.565 462.845C735.996 466.939 808.555 471.757 885.715 473.919C923.495 474.938 963.66 475.412 1004.22 475.572C899.501 469.303 795.934 462.009 685.309 455.31C585.748 449.279 482.283 443.781 379.357 440.106C226.83 434.744 84.3428 435.863 -63.5261 430.059C-73.1933 429.528 -84.0033 419.012 -75.5044 416.684M1720.53 478.05C1523.37 475.135 1339.52 472.328 1159.93 468.563C1031.29 465.719 903.29 466.524 767.866 464.016C733.456 463.374 698.003 462.559 661.488 462.012C737.953 466.198 808.987 471.184 885.102 473.204C922.359 474.151 962.268 474.495 1002.63 474.497C898.765 468.012 796.175 460.387 685.736 453.416C586.476 447.157 482.843 441.482 379.799 437.832C226.863 432.503 85.1029 434.393 -62.6777 428.572C-73.4226 427.987 -85.4401 416.302 -75.9967 413.711M1720.29 474.647C1522.47 472.176 1339.3 469.817 1160.81 466.417C1032.97 463.815 905.853 465.216 770.534 462.983C736.267 462.417 700.899 461.656 664.322 461.196C739.792 465.462 809.329 470.668 884.429 472.516C921.192 473.423 960.786 473.614 1000.95 473.448C897.941 466.748 796.356 458.793 686.103 451.559C587.115 445.061 483.314 439.219 380.182 435.586C226.835 430.301 85.7742 432.949 -61.8891 427.113C-73.7112 426.464 -86.907 413.61 -76.5487 410.767M1720.08 471.236C1521.6 469.198 1339.11 467.297 1161.74 464.253C1034.68 461.893 908.475 463.901 773.232 461.941C739.137 461.452 703.796 460.742 667.186 460.371C741.689 464.728 809.673 470.101 883.757 471.818C919.998 472.654 959.334 472.715 999.269 472.39C897.117 465.473 796.508 457.188 686.471 449.693C587.754 442.965 483.815 436.937 380.565 433.339C226.808 428.088 86.4747 431.506 -61.1003 425.654C-74 424.951 -88.4032 410.927 -77.0713 407.823M1719.84 467.833C1520.7 466.239 1338.91 464.928 1162.61 462.096C1036.39 460.071 911.067 462.585 775.901 460.908C741.978 460.486 706.693 459.839 670.05 459.557C743.557 464.003 810.016 469.545 883.085 471.13C918.802 471.905 957.881 471.836 997.59 471.341C896.293 464.209 796.69 455.594 686.809 447.825C588.394 440.869 484.257 434.663 380.919 431.092C226.752 425.884 87.1173 430.051 -60.3121 424.204C-74.2889 423.438 -89.9004 408.255 -77.6236 404.878M1719.62 464.422C1519.83 463.272 1338.72 462.418 1163.55 459.932C1038.13 458.16 913.717 461.261 778.628 459.857C744.877 459.502 709.648 458.917 672.944 458.723C745.455 463.249 810.419 468.97 882.471 470.415C917.667 471.119 956.488 470.918 995.999 470.266C895.557 462.908 796.93 453.973 687.265 445.942C589.121 438.757 484.817 432.374 381.39 428.819C226.813 423.644 87.9063 428.581 -59.4349 422.718C-74.4889 421.889 -91.2787 405.537 -78.0871 401.907M1719.38 461.019C1518.92 460.313 1338.5 459.917 1164.42 457.786C1039.82 456.256 916.28 459.954 781.267 458.833C747.688 458.555 712.515 458.032 675.778 457.917C747.323 462.534 810.733 468.423 881.769 469.736C916.442 470.379 955.006 470.048 994.29 469.236C894.703 461.663 797.082 452.397 687.602 444.104C589.759 436.681 485.287 430.121 381.742 426.601C226.755 421.47 88.5763 427.167 -58.6767 421.288C-74.8083 420.405 -92.8056 402.883 -78.6403 398.992M1719.17 457.608C1518.05 457.335 1338.34 457.408 1165.36 455.622C1041.53 454.344 918.931 458.63 783.993 457.793C750.587 457.582 715.47 457.121 678.672 457.083C749.221 461.79 811.135 467.848 881.156 469.031C915.306 469.602 953.613 469.141 992.67 468.169C893.938 460.381 797.292 450.795 687.999 442.218C590.429 434.567 485.788 427.83 382.155 424.336C226.787 419.239 89.2776 425.704 -57.8584 419.82C-75.0673 418.873 -94.272 400.181 -79.1627 396.039M1718.93 454.205C1517.15 454.376 1338.12 454.907 1166.23 453.466C1043.21 452.43 921.523 457.313 786.662 456.75C753.428 456.616 718.367 456.208 681.507 456.257C751.089 461.045 811.45 467.281 880.455 468.332C914.082 468.842 952.132 468.24 990.991 467.111C893.114 459.106 797.474 449.191 688.366 440.352C591.068 432.471 486.289 425.548 382.567 422.081C226.789 417.028 90.008 424.243 -57.0403 418.352C-75.3267 417.351 -95.7101 397.491 -79.6855 393.085M1718.72 450.794C1516.28 451.409 1337.93 452.398 1167.17 451.302C1044.95 450.519 924.174 455.99 789.36 455.708C756.298 455.641 721.293 455.295 684.4 455.433C752.987 460.311 811.852 466.716 879.812 467.625C912.917 468.064 950.709 467.342 989.341 466.043C892.319 457.823 797.656 447.577 688.763 438.476C591.766 430.367 486.79 423.266 382.98 419.826C226.791 414.816 90.7083 422.79 -56.1934 416.885C-75.5279 415.822 -97.148 394.801 -80.1497 390.134M1718.47 447.391C1515.38 448.44 1337.74 449.898 1168.07 449.156C1046.66 448.617 926.824 454.686 792.057 454.686C759.168 454.686 724.189 454.402 687.263 454.629C754.883 459.597 812.195 466.18 879.168 466.949C911.75 467.326 949.256 466.462 987.691 465.005C891.524 456.57 797.866 445.994 689.13 436.619C592.405 428.281 487.29 421.005 383.362 417.59C226.763 412.613 91.4084 421.357 -55.4051 415.436C-75.8172 414.319 -98.6444 392.118 -80.702 387.199M1718.26 443.98C1514.5 445.472 1337.55 447.388 1168.98 446.991C1048.37 446.704 929.446 453.351 794.726 453.633C762.009 453.7 727.086 453.488 690.099 453.793C756.723 458.841 812.539 465.603 878.467 466.24C910.527 466.546 947.775 465.562 986.012 463.937C890.7 455.285 798.048 444.39 689.498 434.743C593.074 426.177 487.763 418.712 383.745 415.333C226.736 410.4 92.0806 419.893 -54.6164 413.976C-76.1057 412.796 -100.112 389.436 -81.2539 384.255M1718.02 440.578C1513.6 442.513 1337.33 444.887 1169.88 444.836C1050.09 444.792 932.097 452.037 797.423 452.601C764.879 452.736 730.011 452.586 692.991 452.979C758.62 458.117 812.912 465.048 877.853 465.544C909.39 465.79 946.381 464.665 984.392 462.88C889.935 454.013 798.258 442.787 689.924 432.878C593.8 424.084 488.321 416.443 384.187 413.079C226.768 408.18 92.8399 418.442 -53.7689 412.509C-76.3358 411.276 -101.549 386.736 -81.7178 381.294M1717.81 437.166C1512.73 439.545 1337.17 442.379 1170.78 442.671C1051.8 442.88 934.748 450.703 800.121 451.56C767.749 451.761 732.937 451.673 695.856 452.144C760.518 457.363 813.285 464.473 877.182 464.837C908.196 465.011 944.93 463.765 982.713 461.811C889.111 452.729 798.44 441.183 690.262 430.991C594.411 421.967 488.764 414.149 384.541 410.812C226.711 405.956 93.5117 416.978 -53.0089 411.029C-76.653 409.732 -103.074 384.032 -82.2984 378.328M1717.57 433.764C1511.86 436.578 1336.95 439.878 1171.69 440.526C1053.51 440.977 937.369 449.388 802.79 450.527C770.59 450.795 735.834 450.77 698.691 451.328C762.357 456.637 813.6 463.915 876.48 464.148C906.972 464.261 943.448 462.875 981.034 460.763C888.287 451.455 798.621 439.589 690.63 429.134C595.079 419.883 489.265 411.877 384.923 408.575C226.684 403.753 94.1827 415.544 -52.1913 409.581C-76.913 408.23 -104.512 381.352 -82.8215 375.394M1717.36 430.352C1510.99 433.61 1336.76 437.378 1172.59 438.36C1055.22 439.065 940.021 448.054 805.487 449.485C773.46 449.82 738.76 449.857 701.584 450.504C764.284 455.904 814.002 463.351 875.866 463.452C905.835 463.504 942.054 461.988 979.413 459.706C887.522 450.183 798.832 437.986 691.055 427.27C595.777 417.789 489.794 409.607 385.365 406.321C226.744 401.543 94.9423 414.084 -51.3444 408.124C-77.1433 406.709 -105.95 378.672 -83.286 372.453M1717.11 426.95C1510.09 430.651 1336.57 434.878 1173.5 436.205C1056.93 437.152 942.701 446.731 808.185 448.453C776.359 448.857 741.685 448.965 704.448 449.689C766.152 455.169 814.375 462.795 875.194 462.755C904.64 462.735 940.602 461.088 977.734 458.648C886.698 448.908 799.013 436.393 691.423 425.393C596.446 415.684 490.296 407.315 385.777 404.066C226.746 399.332 95.6433 412.631 -50.526 406.656C-77.4025 405.188 -107.417 375.98 -83.8086 369.499M1716.9 423.538C1509.21 427.674 1336.38 432.368 1174.4 434.04C1058.64 435.24 945.352 445.397 810.854 447.4C779.201 447.871 744.553 448.04 707.312 448.855C768.05 454.425 814.719 462.219 874.551 462.048C903.475 461.968 939.15 460.189 976.114 457.581C885.933 447.626 799.253 434.791 691.82 423.517C597.144 413.581 490.797 405.034 386.189 401.811C226.749 397.11 96.3734 411.179 -49.7077 405.188C-77.6614 403.656 -108.854 373.28 -84.3309 366.546M1716.66 420.136C1508.31 424.715 1336.16 429.867 1175.31 431.885C1060.35 433.328 948.003 444.073 813.551 446.368C782.07 446.906 747.479 447.137 710.176 448.03C769.918 453.69 815.092 461.653 873.879 461.35C902.28 461.199 937.698 459.289 974.435 456.522C885.08 446.351 799.435 433.187 692.187 421.651C597.783 411.495 491.271 402.681 386.572 399.555C226.726 394.787 97.0738 409.727 -48.8903 403.729C-77.9212 402.134 -110.322 370.598 -84.825 363.603M1716.45 416.724C1507.44 421.747 1336 427.359 1176.21 429.73C1062.07 431.425 950.683 442.751 816.249 445.337C784.94 445.941 750.405 446.235 713.04 447.215C771.786 452.955 815.435 461.107 873.206 460.662C901.114 460.451 936.245 458.41 972.755 455.474C884.255 445.087 799.616 431.603 692.555 419.784C598.451 409.4 491.772 400.409 386.955 397.308C226.698 392.574 97.7455 408.273 -48.1017 402.27C-78.2102 400.621 -111.818 367.905 -85.377 360.659M1716.21 413.322C1506.54 418.788 1335.78 424.858 1177.11 427.574C1063.78 429.513 953.334 441.417 818.917 444.294C787.781 444.955 753.302 445.321 715.904 446.39C773.684 452.221 815.808 460.541 872.564 459.956C899.949 459.673 934.823 457.501 971.135 454.407C883.49 443.805 799.856 430.001 692.951 417.909C599.149 407.297 492.273 398.118 387.367 395.053C226.701 390.352 98.4756 406.821 -47.2834 400.802C-78.4399 399.091 -113.256 365.215 -85.8996 357.705M1715.99 409.91C1505.67 415.81 1335.62 422.349 1178.02 425.409C1065.49 427.601 956.014 440.084 821.615 443.252C790.652 443.981 756.227 444.419 718.768 445.565C775.552 451.486 816.182 459.976 871.892 459.258C898.754 458.914 933.371 456.602 969.456 453.348C882.666 442.53 800.008 428.396 693.319 416.042C599.788 405.211 492.774 395.846 387.75 392.807C226.674 388.14 99.147 405.377 -46.4947 399.343C-78.7288 397.578 -114.753 362.532 -86.4511 354.75M1715.75 406.508C1504.76 412.851 1335.4 419.848 1178.92 423.254C1067.2 425.688 958.695 438.751 824.312 442.22C793.551 443.017 759.153 443.516 721.632 444.75C777.45 450.752 816.525 459.419 871.248 458.572C897.588 458.166 931.947 455.724 967.806 452.301C881.871 441.267 800.218 426.813 693.715 414.176C600.486 403.117 493.274 393.564 388.162 390.552C226.676 385.928 99.8773 403.915 -45.677 397.885C-78.9883 396.056 -116.219 359.841 -86.9448 351.808M1715.54 403.097C1503.89 409.884 1335.23 417.34 1179.86 421.1C1068.94 423.787 961.404 437.42 827.01 441.189C796.421 442.042 762.049 442.613 724.525 443.937C779.347 450.028 816.927 458.865 870.605 457.875C896.422 457.399 930.525 454.825 966.156 451.243C881.077 439.984 800.428 425.221 694.083 412.31C601.154 401.023 493.775 391.293 388.545 388.305C226.649 383.715 100.578 402.472 -44.859 396.426C-79.248 394.544 -117.657 357.161 -87.4675 348.865M1715.3 399.694C1502.99 406.915 1335.01 414.839 1180.73 418.944C1070.62 421.874 964.056 436.086 829.679 440.146C799.262 441.066 764.946 441.699 727.36 443.101C781.215 449.283 817.271 458.289 869.904 457.166C895.199 456.628 929.014 453.924 964.478 450.175C880.253 438.699 800.61 423.617 694.451 410.433C601.822 398.928 494.247 389 388.957 386.05C226.651 381.493 101.278 401.019 -44.0413 394.958C-79.5074 393.013 -119.124 354.459 -87.9904 345.911M1715.09 396.283C1502.12 403.947 1334.85 412.33 1181.67 416.78C1072.36 419.962 966.766 434.745 832.376 439.104C802.132 440.082 767.872 440.787 730.253 442.277C783.113 448.539 817.644 457.733 869.291 456.471C894.062 455.862 927.621 453.027 962.857 449.118C879.487 437.427 800.85 422.025 694.877 408.559C602.52 396.835 494.806 386.721 389.399 383.786C226.682 379.273 102.038 399.559 -43.1935 393.481C-79.7373 391.482 -120.562 351.759 -88.4541 342.95M1714.84 392.88C1501.22 400.988 1334.63 409.829 1182.54 414.623C1074.05 418.049 969.417 433.411 835.045 438.071C805.002 439.117 770.769 439.883 733.088 441.461C784.952 447.813 817.988 457.177 868.589 455.782C892.838 455.112 926.139 452.146 961.149 448.068C878.634 436.162 801.001 420.44 695.185 406.7C603.13 394.748 495.219 384.446 389.723 381.547C226.626 377.069 102.651 398.113 -42.4639 392.04C-80.0849 389.977 -122.088 349.095 -89.065 340.023M1714.63 389.469C1500.37 398.022 1334.47 407.311 1183.48 412.469C1075.79 416.138 972.156 432.07 837.772 437.03C807.902 438.133 773.724 438.982 735.981 440.637C786.879 447.071 818.39 456.613 867.975 455.076C891.731 454.346 924.746 451.239 959.557 447.003C877.898 434.881 801.27 418.839 695.641 404.827C603.886 392.656 495.808 382.168 390.194 379.294C226.686 374.849 103.439 396.663 -41.5875 390.574C-80.286 388.457 -123.496 346.396 -89.5292 337.072M1714.39 386.066C1499.47 395.053 1334.25 404.81 1184.35 410.313C1077.47 414.234 974.807 430.736 840.411 435.996C810.714 437.156 776.591 438.077 738.816 439.821C788.718 446.344 818.733 456.056 867.274 454.387C890.507 453.586 923.264 450.358 957.849 445.953C877.044 433.616 801.422 417.254 695.979 402.959C604.525 390.561 496.25 379.884 390.548 377.037C226.631 372.625 104.082 395.208 -40.7983 389.105C-80.5741 386.924 -124.992 343.703 -90.0519 334.118M1714.18 382.655C1498.6 392.085 1334.09 402.301 1185.28 408.149C1079.21 412.313 977.547 429.386 843.138 434.956C813.643 436.174 779.546 437.166 741.709 438.997C790.644 445.612 819.106 455.501 866.631 453.691C889.341 452.828 921.841 449.46 956.199 444.896C876.25 432.342 801.632 415.661 696.346 401.092C605.193 388.476 496.722 377.611 390.931 374.791C226.603 370.422 104.782 393.765 -40.0098 387.645C-80.8632 385.411 -126.459 341.011 -90.6036 331.163M1713.94 379.252C1497.7 389.126 1333.87 399.8 1186.16 405.993C1080.92 410.411 980.227 428.043 845.807 433.913C816.484 435.198 782.414 436.251 744.545 438.161C792.484 444.855 819.45 454.924 865.959 452.983C888.147 452.05 920.389 448.561 954.55 443.828C875.455 431.059 801.843 414.059 696.743 399.217C605.861 386.381 497.252 375.32 391.343 372.535C226.605 368.2 105.513 392.304 -39.1919 386.187C-81.1224 383.89 -127.927 338.33 -91.1262 328.22M1713.72 375.841C1496.83 386.149 1333.71 397.292 1187.09 403.839C1082.66 408.5 982.937 426.702 848.504 432.881C819.354 434.223 785.339 435.349 747.437 437.348C794.41 444.133 819.852 454.37 865.316 452.287C886.981 451.292 918.966 447.662 952.9 442.77C874.66 429.786 802.054 412.466 697.14 397.341C606.559 384.288 497.753 373.039 391.755 370.28C226.608 365.979 106.213 390.851 -38.3739 384.719C-81.3525 382.359 -129.393 335.628 -91.6197 325.267M1713.48 372.438C1495.93 383.19 1333.52 394.792 1187.97 401.682C1084.35 406.586 985.618 425.359 851.172 431.848C822.195 433.247 788.236 434.455 750.272 436.532C796.249 443.406 820.195 453.823 864.643 451.599C885.814 450.544 917.484 446.782 951.22 441.722C873.836 428.512 802.234 410.892 697.478 395.483C607.198 382.202 498.224 370.766 392.138 368.034C226.58 363.776 106.914 389.408 -37.5854 383.26C-81.6416 380.846 -130.861 332.947 -92.1722 322.323M1713.27 369.027C1495.05 380.222 1333.33 392.282 1188.9 399.518C1086.09 404.675 988.358 424.009 853.9 430.797C825.124 432.255 791.191 433.534 753.166 435.698C798.147 442.653 820.598 453.249 864.001 450.892C884.649 449.766 916.062 445.873 949.6 440.665C873.071 427.24 802.474 409.3 697.904 393.619C607.924 380.119 498.754 368.495 392.579 365.79C226.611 361.565 107.643 387.966 -36.7094 381.814C-81.8428 379.337 -132.27 330.278 -92.6368 319.391M1713.03 365.624C1494.15 377.263 1333.14 389.783 1189.81 397.363C1087.8 402.762 991.068 422.657 856.568 429.764C827.965 431.279 794.088 432.63 756.029 434.883C800.044 441.929 820.97 452.694 863.328 450.204C883.454 449.017 914.61 444.984 947.92 439.616C872.246 425.975 802.654 407.716 698.271 391.752C608.592 378.035 499.255 366.214 392.962 363.544C226.613 359.363 108.344 386.513 -35.9208 380.355C-82.1318 377.824 -133.766 327.585 -93.1597 316.448M1712.82 362.213C1493.28 374.286 1332.95 387.263 1190.71 395.208C1089.51 400.85 993.778 421.306 859.265 428.733C830.836 430.304 797.013 431.728 758.893 434.068C801.912 441.204 821.343 452.148 862.685 449.508C882.317 448.261 913.187 444.096 946.271 438.559C871.423 424.701 802.864 406.133 698.638 389.886C609.231 375.949 499.726 363.941 393.345 361.287C226.586 357.141 109.045 385.06 -35.1317 378.885C-82.4199 376.291 -135.233 324.893 -93.7111 313.493M1712.58 358.81C1492.38 371.327 1332.76 384.763 1191.62 393.053C1091.22 398.948 996.489 419.954 861.963 427.691C833.736 429.311 799.939 430.815 761.787 433.235C803.839 440.451 821.745 451.574 862.043 448.801C881.152 447.483 911.764 443.187 944.65 437.492C870.657 423.419 803.104 404.532 699.064 388.011C609.958 373.857 500.286 361.652 393.786 359.033C226.617 354.92 109.775 383.609 -34.2844 377.418C-82.6502 374.771 -136.671 322.193 -94.2049 310.541M1712.36 355.399C1491.51 368.359 1332.6 382.255 1192.52 390.887C1092.96 397.027 999.199 418.593 864.632 426.648C836.577 428.325 802.807 429.911 764.622 432.409C805.678 439.715 822.089 451.018 861.37 448.104C879.957 446.724 910.312 442.298 942.971 436.434C869.833 422.145 803.285 402.948 699.432 386.135C610.626 371.762 500.757 359.369 394.169 356.777C226.59 352.707 110.476 382.146 -33.4668 375.96C-82.9098 373.249 -138.138 319.512 -94.6987 307.598M1712.12 351.997C1490.61 365.39 1332.38 379.754 1193.42 388.732C1094.67 395.114 1001.91 417.241 867.329 425.616C839.448 427.35 805.732 429.008 767.486 431.594C807.575 438.991 822.462 450.462 860.698 447.406C878.792 445.966 908.86 441.398 941.292 435.375C869.009 420.87 803.466 401.354 699.799 384.268C611.294 369.677 501.258 357.087 394.553 354.52C226.563 350.484 111.148 380.692 -32.6776 374.491C-83.1982 371.726 -139.605 316.82 -95.2497 304.634M1711.91 348.585C1489.73 362.422 1332.22 377.245 1194.33 386.577C1096.38 393.212 1004.65 415.891 869.998 424.573C842.318 426.365 808.629 428.095 770.35 430.769C809.444 438.246 822.864 449.898 860.026 446.708C877.597 445.197 907.378 440.508 939.613 434.316C868.185 419.596 803.647 399.77 700.138 382.4C611.933 367.601 501.701 354.813 394.906 352.273C226.507 348.27 111.819 379.248 -31.9181 373.031C-83.5159 370.202 -141.13 314.126 -95.8308 301.688M1711.67 345.183C1488.83 359.464 1332.03 374.735 1195.23 384.422C1098.1 391.3 1007.36 414.529 872.695 423.541C845.189 425.381 811.555 427.192 773.213 429.954C811.312 437.521 823.236 449.353 859.383 446.021C876.46 444.451 905.955 439.62 937.992 433.27C867.42 418.334 803.886 398.188 700.563 380.536C612.659 365.519 502.26 352.534 395.376 350.03C226.567 346.071 112.607 377.809 -31.0423 371.575C-83.7178 368.692 -142.539 311.447 -96.2957 298.747M1711.46 341.771C1487.99 356.497 1331.87 372.227 1196.14 382.257C1099.81 389.377 1010.07 413.158 875.393 422.5C848.059 424.396 814.481 426.28 776.078 429.129C813.21 436.777 823.609 448.787 858.711 445.324C875.265 443.692 904.503 438.73 936.313 432.211C866.596 417.049 804.096 396.606 700.931 378.669C613.298 363.433 502.731 350.261 395.759 347.784C226.54 343.858 113.279 376.355 -30.254 370.125C-84.0066 367.179 -144.007 308.766 -96.8187 295.813M1711.21 338.369C1487.09 353.528 1331.65 369.726 1197.04 380.101C1101.52 387.465 1012.78 411.796 878.062 421.457C850.93 423.401 817.377 425.376 778.942 428.294C815.079 436.032 824.011 448.223 858.068 444.607C874.129 442.905 903.081 437.812 934.664 431.133C865.802 415.756 804.307 395.003 701.299 376.772C613.967 361.318 503.204 347.949 396.143 345.497C226.514 341.615 113.98 374.872 -29.4348 368.627C-84.2646 365.618 -145.472 306.044 -97.3401 292.829M1711 334.957C1486.22 350.56 1331.48 367.207 1197.95 377.946C1103.26 385.554 1015.52 410.436 880.759 420.425C853.8 422.426 820.303 424.474 781.806 427.479C816.976 435.308 824.384 447.668 857.396 443.919C872.934 442.156 901.628 436.932 933.014 430.086C865.007 414.493 804.517 393.42 701.695 374.917C614.663 359.255 503.733 345.688 396.555 343.262C226.544 339.414 114.68 373.439 -28.6175 367.179C-84.4958 364.117 -146.94 303.362 -97.8635 289.896M1710.76 331.555C1485.31 347.602 1331.29 364.708 1198.85 375.791C1104.97 383.651 1018.23 409.075 883.457 419.393C856.671 421.442 823.2 423.57 784.699 426.666C818.873 434.574 824.815 447.115 856.752 443.233C871.798 441.4 900.205 436.044 931.364 429.038C864.212 413.23 804.727 391.847 702.092 373.061C615.36 357.181 504.234 343.417 396.967 341.027C226.546 337.223 115.41 372.007 -27.8002 365.741C-84.7556 362.615 -148.379 300.702 -98.358 286.974M1710.55 328.143C1484.44 344.624 1331.1 362.198 1199.78 373.627C1106.71 381.73 1021 407.696 886.155 418.341C859.572 420.438 826.126 422.648 787.563 425.831C820.771 433.83 825.217 446.55 856.11 442.526C870.632 440.632 898.782 435.146 929.715 427.971C863.417 411.947 804.937 390.254 702.46 371.175C616.029 355.077 504.735 341.125 397.35 338.751C226.52 334.98 116.083 370.523 -27.0104 364.252C-85.0434 361.073 -149.874 297.989 -98.9088 283.999M1710.31 324.731C1483.54 341.655 1330.91 359.678 1200.66 371.461C1108.4 379.807 1023.68 406.313 888.823 417.298C862.413 419.452 829.023 421.734 790.398 425.005C822.61 433.094 825.561 445.984 855.409 441.817C869.437 439.863 897.272 434.234 928.036 426.902C862.594 410.662 805.118 388.66 702.828 369.298C616.668 352.991 505.207 338.842 397.733 336.494C226.493 332.757 116.784 369.07 -26.2213 362.783C-85.3316 359.54 -151.37 295.287 -99.4599 281.034M1710.09 321.329C1482.67 338.697 1330.75 357.179 1201.59 369.317C1110.17 377.907 1026.45 404.954 891.549 416.278C865.312 418.479 831.977 420.853 793.32 424.202C824.536 432.371 826.021 445.442 854.823 441.143C868.359 439.119 895.907 433.358 926.444 425.867C861.856 409.412 805.386 387.1 703.281 367.455C617.422 350.93 505.794 336.584 398.203 334.272C226.552 330.578 117.571 367.651 -25.317 361.348C-85.5048 358.051 -152.722 292.63 -99.8674 278.115M1709.85 317.917C1481.77 335.728 1330.56 354.66 1202.47 367.15C1111.85 375.983 1029.14 403.571 894.189 415.234C868.154 417.483 834.845 419.938 796.126 423.365C826.376 431.625 826.365 444.865 854.093 440.433C867.135 438.349 894.397 432.456 924.707 424.796C860.975 408.125 805.509 385.504 703.562 365.565C618.003 348.831 506.179 334.288 398.528 332.003C226.467 328.342 118.185 366.175 -24.5863 359.876C-85.8513 356.516 -154.276 289.925 -100.477 275.158M1709.64 314.516C1480.89 332.761 1330.4 352.161 1203.4 364.996C1113.59 374.072 1031.88 402.201 896.916 414.193C871.054 416.489 837.8 419.027 799.019 422.541C828.273 430.891 826.796 444.312 853.451 439.726C865.97 437.571 892.974 431.548 923.087 423.729C860.209 406.843 805.748 383.912 703.988 363.691C618.73 346.739 506.739 331.998 398.97 329.739C226.499 326.122 118.944 364.714 -23.7385 358.399C-86.0812 354.986 -155.713 287.225 -100.97 272.196M1709.4 311.103C1479.99 329.792 1330.18 349.64 1204.28 362.83C1115.27 372.148 1034.59 400.809 899.585 413.15C873.896 415.493 840.697 418.113 801.883 421.717C830.171 430.147 827.198 443.748 852.808 439.03C864.833 436.814 891.551 430.66 921.437 422.672C859.415 405.56 805.929 382.328 704.385 361.825C619.398 344.664 507.239 329.727 399.382 327.494C226.501 323.91 119.645 363.271 -22.9207 356.941C-86.3405 353.464 -157.151 284.544 -101.464 269.253M1709.19 307.702C1479.12 326.834 1330.02 347.142 1205.21 360.686C1117.01 370.257 1037.33 399.449 902.282 412.128C876.767 414.519 843.593 417.219 804.747 420.912C832.038 429.432 827.629 443.205 852.135 438.352C863.667 436.067 890.098 429.78 919.757 421.633C858.59 404.305 806.109 380.764 704.723 359.967C620.036 342.599 507.71 327.464 399.735 325.256C226.444 321.716 120.316 361.837 -22.1324 355.492C-86.6299 351.961 -158.647 281.861 -102.016 266.319M1708.95 304.289C1478.22 323.855 1329.83 344.622 1206.09 358.52C1118.72 368.335 1040.04 398.057 904.951 411.076C879.638 413.514 846.49 416.306 807.582 420.076C833.907 428.687 828.002 442.63 851.463 437.644C862.501 435.299 888.647 428.881 918.108 420.565C857.767 403.021 806.319 379.181 705.12 358.092C620.734 340.505 508.212 325.172 400.148 322.991C226.476 319.485 121.047 360.366 -21.3141 354.024C-86.8888 350.429 -160.114 279.17 -102.539 263.365M1708.73 300.888C1477.35 320.898 1329.67 342.123 1207.02 356.365C1120.46 366.424 1042.78 396.667 907.648 410.044C882.509 412.529 849.415 415.403 810.475 419.262C835.804 427.953 828.463 442.068 850.82 436.948C861.365 434.532 887.224 427.983 916.458 419.508C856.972 401.748 806.529 377.598 705.516 356.226C621.401 338.43 508.741 322.902 400.559 320.746C226.477 317.284 121.747 358.923 -20.4965 352.566C-87.1488 348.917 -161.552 276.48 -103.033 260.423M1708.49 297.475C1476.48 317.93 1329.45 339.602 1207.9 354.199C1122.15 364.5 1045.49 395.276 910.317 409.001C885.35 411.533 852.312 414.49 813.31 418.426C837.673 427.208 828.836 441.493 850.119 436.239C860.171 433.753 885.713 427.081 914.75 418.438C856.119 400.462 806.681 376.003 705.826 354.337C622.011 336.333 509.155 320.597 400.885 318.477C226.392 315.048 122.39 357.458 -19.7653 351.084C-87.4657 347.373 -163.106 273.775 -103.642 257.446M1708.28 294.074C1475.6 314.972 1329.29 337.094 1208.83 352.055C1123.92 362.6 1048.23 393.895 913.043 407.97C888.25 410.55 855.267 413.589 816.233 417.613C839.6 426.476 829.326 440.942 849.534 435.555C859.122 433 884.349 426.195 913.187 417.394C855.412 399.203 806.978 374.444 706.309 352.485C622.795 334.273 509.772 318.34 401.384 316.235C226.482 312.85 123.177 356.018 -18.8603 349.629C-87.6378 345.855 -164.486 271.087 -104.077 254.506M1708.04 290.661C1474.7 311.993 1329.1 334.584 1209.7 349.889C1125.6 360.677 1050.92 392.493 915.683 406.926C891.092 409.554 858.135 412.674 819.038 416.786C841.41 425.738 829.699 440.367 848.803 434.855C857.898 432.23 882.838 425.303 911.45 416.333C854.529 397.926 807.1 372.858 706.618 350.616C623.375 332.195 510.185 316.065 401.738 313.988C226.425 310.636 123.849 354.564 -18.0722 348.18C-87.9274 344.352 -165.954 268.415 -104.601 251.572M1707.82 287.26C1473.83 309.036 1328.94 332.076 1210.64 347.735C1127.34 358.765 1053.66 391.102 918.409 405.896C893.992 408.56 861.061 411.771 821.931 415.973C843.336 425.015 830.13 439.804 848.189 434.159C856.791 431.465 881.444 424.406 909.829 415.276C853.764 396.654 807.339 371.276 707.015 348.741C624.073 330.102 510.687 313.773 402.15 311.733C226.427 308.424 124.579 353.112 -17.254 346.712C-88.1863 342.821 -167.421 265.724 -105.123 248.619M1707.58 283.847C1472.93 306.067 1328.75 329.556 1211.54 345.57C1129.05 356.843 1056.4 389.702 921.108 404.844C896.864 407.556 863.987 410.859 824.825 415.139C845.234 424.262 830.592 439.222 847.547 433.453C855.655 430.688 880.022 423.508 908.18 414.209C852.969 395.371 807.52 369.692 707.412 346.865C624.77 328.018 511.217 311.493 402.562 309.478C226.43 306.203 125.28 351.66 -16.4357 345.244C-88.4456 341.299 -168.887 263.022 -105.645 245.665M1707.34 280.445C1472.03 303.098 1328.56 327.056 1212.42 343.423C1130.76 354.931 1059.08 388.32 923.746 403.82C899.676 406.579 866.853 409.964 827.63 414.332C847.072 423.545 830.965 438.656 846.816 432.773C854.46 429.939 878.51 422.626 906.471 413.169C852.116 394.105 807.671 368.127 707.75 345.017C625.379 325.961 511.658 309.229 402.915 307.24C226.372 304.008 125.951 350.226 -15.6771 343.803C-88.7642 339.795 -170.384 260.359 -106.228 242.739M1707.13 277.033C1471.16 300.13 1328.37 324.536 1213.35 341.259C1132.51 353.01 1061.82 386.909 926.473 402.779C902.576 405.575 869.809 409.053 830.524 413.498C848.97 422.801 831.426 438.075 846.203 432.057C853.353 429.154 877.118 421.709 904.851 412.102C851.351 392.823 807.91 366.545 708.176 343.133C626.105 323.869 512.218 306.94 403.357 304.976C226.433 301.779 126.682 348.754 -14.8294 342.326C-88.9941 338.264 -171.822 257.649 -106.691 239.778M1706.89 273.631C1470.25 297.171 1328.18 322.027 1214.23 339.103C1134.19 351.096 1064.51 385.507 929.142 401.736C905.447 404.58 872.706 408.139 833.388 412.673C850.868 422.058 831.829 437.49 845.53 431.359C852.188 428.376 875.636 420.818 903.172 411.044C850.527 391.549 808.091 364.971 708.515 341.265C626.715 321.792 512.66 304.666 403.711 302.728C226.377 299.575 127.353 347.31 -14.0406 340.867C-89.2825 336.741 -173.318 254.966 -107.243 236.833M1706.68 270.219C1469.38 294.204 1328.02 319.508 1215.16 336.939C1135.93 349.175 1067.25 384.096 931.84 400.694C908.318 403.576 875.632 407.227 836.252 411.848C852.736 421.323 832.261 436.907 844.887 430.663C851.052 427.61 874.213 419.92 901.551 409.987C849.761 390.277 808.3 363.388 708.94 339.401C627.44 319.719 513.219 302.386 404.152 300.474C226.408 297.355 128.112 345.859 -13.1935 339.4C-89.513 335.221 -174.727 252.277 -107.737 233.881M1706.43 266.817C1468.48 291.235 1327.83 316.998 1216.04 334.792C1137.64 347.273 1069.93 382.694 934.508 399.671C911.16 402.6 878.527 406.343 839.086 411.042C854.575 420.606 832.664 436.333 844.185 429.984C849.886 426.852 872.731 419.049 899.842 408.947C848.907 389.021 808.451 361.833 709.278 337.543C628.05 317.652 513.661 300.122 404.506 298.237C226.351 295.16 128.754 344.414 -12.4345 337.96C-89.8312 333.717 -176.253 249.603 -108.289 230.946M1706.22 263.406C1467.61 288.267 1327.67 314.48 1216.97 332.628C1139.38 345.351 1072.65 381.282 937.235 398.621C914.061 401.586 881.454 405.421 842.009 410.21C856.531 419.855 833.126 435.731 843.572 429.268C848.78 426.056 871.338 418.132 898.223 407.871C848.142 387.729 808.69 360.242 709.675 335.658C628.747 315.569 514.192 297.832 404.947 295.973C226.383 292.94 129.514 342.954 -11.5869 336.483C-90.0612 332.186 -177.69 246.903 -108.782 227.984M1705.98 260.003C1466.71 285.308 1327.45 311.969 1217.84 330.472C1141.06 343.428 1075.33 379.87 939.874 397.587C916.873 400.599 884.321 404.516 844.815 409.382C858.341 419.117 833.471 435.135 842.871 428.57C847.586 425.278 869.857 417.242 896.544 406.812C847.319 386.455 808.842 358.656 710.043 333.791C629.385 313.493 514.663 295.549 405.33 293.717C226.356 290.717 130.185 341.5 -10.7979 335.013C-90.3203 330.654 -179.156 244.201 -109.334 225.029M1705.77 256.592C1465.83 282.331 1327.29 309.45 1218.78 328.308C1142.81 341.507 1078.04 378.448 942.601 396.546C919.773 399.596 887.276 403.605 847.737 408.56C860.297 418.386 833.933 434.543 842.257 427.874C846.479 424.502 868.463 416.344 894.923 405.756C846.553 385.183 809.081 357.085 710.469 331.917C630.111 311.41 515.222 293.27 405.772 291.463C226.387 288.506 130.945 340.049 -9.92136 333.548C-90.5213 329.135 -180.565 241.512 -109.769 222.079M1705.53 253.189C1464.96 279.373 1327.09 306.94 1219.65 326.162C1144.52 339.604 1080.73 377.035 945.24 395.512C922.586 398.598 890.144 402.7 850.543 407.743C862.107 417.648 834.277 433.956 841.555 427.185C845.255 423.732 866.981 415.464 893.214 404.706C845.699 383.917 809.232 355.52 710.777 330.058C630.691 309.342 515.635 291.005 406.096 289.224C226.301 286.301 131.557 338.603 -9.19202 332.106C-90.8692 327.63 -182.121 238.847 -110.38 219.152M1705.31 249.778C1464.09 276.405 1326.93 304.422 1220.59 323.998C1146.26 337.683 1083.44 375.614 947.967 394.471C925.486 397.605 893.099 401.799 853.436 406.919C864.033 416.916 834.681 433.352 840.913 426.479C844.12 422.945 865.559 414.556 891.594 403.639C844.935 382.625 809.442 353.937 711.203 328.183C631.418 307.26 516.195 288.715 406.537 286.97C226.361 284.092 132.317 337.152 -8.34441 330.639C-91.0988 326.099 -183.529 236.148 -110.873 216.2M1705.07 246.375C1463.19 273.446 1326.71 301.911 1221.49 321.842C1147.97 335.761 1086.15 374.193 950.665 393.44C928.357 396.61 896.024 400.896 856.329 406.105C865.931 416.182 835.084 432.768 840.269 425.792C842.955 422.168 864.106 413.676 889.944 402.592C844.11 381.361 809.651 352.374 711.6 326.318C632.085 305.195 516.695 286.444 406.949 284.715C226.363 281.88 133.046 335.701 -7.52658 329.171C-91.3586 324.577 -184.996 233.456 -111.367 213.247M1704.86 242.964C1462.32 270.469 1326.55 299.392 1222.4 319.677C1149.68 333.839 1088.84 372.76 953.334 392.387C931.2 395.594 898.921 399.973 859.164 405.269C867.77 415.436 835.43 432.152 839.598 425.084C841.79 421.38 862.654 412.767 888.265 401.523C843.287 380.077 809.803 350.789 711.938 324.44C632.694 303.108 517.167 284.161 407.304 282.457C226.307 279.656 133.689 334.245 -6.73782 327.712C-91.647 323.054 -186.492 230.764 -111.919 210.302M1704.62 239.561C1461.42 267.51 1326.36 296.883 1223.3 317.532C1151.39 331.936 1091.52 371.337 956.031 391.365C934.071 394.61 901.818 399.079 862.028 404.454C869.667 414.712 835.775 431.555 838.925 424.397C840.596 420.611 861.202 411.877 886.615 400.475C842.492 378.814 810.012 349.226 712.335 322.584C633.391 301.045 517.667 281.889 407.715 280.222C226.308 277.464 134.419 332.804 -5.92038 326.264C-91.9071 321.553 -187.931 228.093 -112.442 207.359M1704.41 236.15C1460.54 264.542 1326.2 294.364 1224.2 315.367C1153.14 330.005 1094.18 369.904 958.729 390.323C936.942 393.605 904.744 398.167 864.921 403.631C871.565 413.968 836.15 430.96 838.312 423.691C839.461 419.814 859.809 410.98 884.995 399.409C841.726 377.532 810.222 347.643 712.761 320.7C634.088 298.961 518.198 279.599 408.187 277.949C226.37 275.225 135.179 331.333 -5.04317 324.778C-92.1071 320.003 -189.338 225.374 -112.876 204.389M1704.17 232.747C1459.64 261.573 1325.98 291.853 1225.11 313.212C1154.85 328.093 1096.86 368.471 961.397 389.29C939.784 392.609 907.64 397.273 867.756 402.815C873.433 413.243 836.466 430.362 837.61 423.002C838.237 419.044 858.327 410.089 883.286 398.359C840.873 376.266 810.344 346.077 713.07 318.841C634.668 296.893 518.64 277.335 408.511 275.71C226.284 273.03 135.82 329.898 -4.31306 323.326C-92.4546 318.498 -190.893 222.699 -113.486 201.452M1703.95 229.336C1458.77 258.605 1325.82 289.325 1226.01 311.046C1156.56 326.16 1099.55 367.028 964.095 388.238C942.656 391.594 910.566 396.351 870.649 401.981C875.331 412.499 836.811 429.755 836.967 422.296C837.043 418.255 856.904 409.191 881.637 397.292C840.079 374.983 810.553 344.494 713.467 316.966C635.336 294.808 519.141 275.043 408.923 273.455C226.285 270.818 136.55 328.436 -3.49564 321.868C-92.7144 316.976 -192.332 220.019 -114.009 198.508M1703.71 225.933C1457.87 255.647 1325.63 286.815 1226.92 308.901C1158.27 324.258 1102.2 365.604 966.792 387.217C945.526 390.61 913.491 395.458 873.513 401.176C877.228 411.775 837.156 429.169 836.324 421.609C835.878 417.488 855.481 408.303 880.016 396.245C839.312 373.721 810.763 342.931 713.892 315.101C636.061 292.746 519.7 272.774 409.364 271.201C226.317 268.597 137.281 326.985 -2.61905 320.402C-92.9154 315.457 -193.74 217.32 -114.445 195.558M1703.5 222.522C1457 252.679 1325.44 284.295 1227.82 306.736C1159.98 322.326 1104.86 364.151 969.461 386.174C948.368 389.604 916.388 394.545 876.348 400.35C879.067 411.039 837.443 428.57 835.623 420.91C834.625 416.706 853.97 407.411 878.308 395.185C838.459 372.445 810.885 341.355 714.201 313.232C636.642 290.668 520.113 270.499 409.689 268.953C226.26 266.393 137.923 325.539 -1.88876 318.941C-93.2623 313.932 -195.295 214.635 -115.055 192.611M1703.26 219.119C1456.09 249.71 1325.25 281.775 1228.73 304.581C1161.69 320.413 1107.51 362.717 972.159 385.132C951.211 388.598 919.315 393.632 879.242 399.516C880.965 410.295 837.789 427.964 835.009 420.205C833.461 415.919 852.577 406.504 876.688 394.119C837.695 371.153 811.124 339.773 714.628 311.358C637.338 288.594 520.673 268.21 410.13 266.699C226.291 264.183 138.653 324.088 -1.04123 317.474C-93.4632 312.412 -196.703 211.935 -115.548 189.659M1703.05 215.708C1455.22 246.742 1325.06 279.256 1229.63 302.416C1163.41 318.481 1110.17 361.263 974.856 384.09C954.082 387.593 922.211 392.728 882.105 398.692C882.862 409.551 838.075 427.375 834.337 419.507C832.266 415.14 851.125 405.615 875.038 393.061C836.9 369.88 811.304 338.199 715.024 309.482C638.006 286.509 521.173 265.928 410.542 264.443C226.294 261.961 139.383 322.626 -0.223663 316.016C-93.7229 310.891 -198.17 209.254 -116.071 186.715M1702.8 212.306C1454.32 243.783 1324.87 276.746 1230.54 300.271C1165.15 316.58 1112.82 359.829 977.524 383.067C956.924 386.607 925.107 391.835 884.94 397.886C884.701 408.835 838.361 426.796 833.635 418.818C831.014 414.368 849.643 404.724 873.329 392.011C836.046 368.615 811.426 336.643 715.333 307.623C638.586 284.451 521.615 263.664 410.867 262.195C226.208 259.756 140.025 321.181 0.506592 314.554C-94.0702 309.375 -199.725 206.569 -116.652 183.759M1702.59 208.894C1453.48 240.807 1324.71 274.217 1231.44 298.105C1166.86 314.647 1115.45 358.364 980.223 382.016C959.796 385.592 928.033 390.912 887.833 397.052C886.628 408.092 838.706 426.199 833.022 418.113C829.849 413.581 848.25 403.827 871.709 390.945C835.281 367.333 811.636 335.06 715.759 305.749C639.283 282.368 522.146 261.374 411.338 259.942C226.268 257.546 140.784 319.73 1.41252 313.089C-94.2415 307.847 -201.075 203.872 -117.087 180.809M1702.35 205.492C1452.58 237.848 1324.49 271.706 1232.34 295.95C1168.57 312.735 1118.11 356.911 982.891 380.983C962.638 384.587 930.93 390.009 890.668 396.236C888.467 407.356 838.963 425.619 832.32 417.424C828.596 412.819 846.768 402.936 870.03 389.896C834.457 366.068 811.787 333.495 716.127 303.882C639.921 280.302 522.646 259.102 411.72 257.695C226.241 255.333 141.485 318.288 2.20052 311.64C-94.5307 306.334 -202.572 201.199 -117.639 177.875M1702.14 202.08C1451.7 234.88 1324.33 269.178 1233.28 293.786C1170.31 310.804 1120.76 355.457 985.618 379.942C965.509 383.582 933.885 389.098 893.561 395.412C890.394 406.623 839.308 425.033 831.706 416.728C827.43 412.052 845.374 402.049 868.409 388.84C833.691 364.796 811.996 331.922 716.552 302.018C640.618 278.228 523.176 256.832 412.162 255.441C226.272 253.123 142.215 316.826 3.04811 310.173C-94.7607 304.814 -204.009 198.499 -118.103 174.923M1701.9 198.678C1450.8 231.921 1324.11 266.667 1234.15 291.64C1172 308.89 1123.36 354.001 988.286 378.909C968.351 382.586 936.781 388.204 896.425 394.587C892.262 405.878 839.594 424.444 831.034 416.021C826.207 411.262 843.894 401.138 866.73 387.771C832.868 363.512 812.147 330.347 716.891 300.14C641.227 276.151 523.648 254.549 412.516 253.184C226.245 250.91 142.887 315.372 3.80769 308.703C-95.0783 303.28 -205.506 195.806 -118.684 171.968M1701.68 195.266C1449.93 228.944 1323.92 264.137 1235.09 289.476C1173.74 306.969 1125.99 352.536 990.984 377.867C971.222 381.581 939.678 387.29 899.29 393.762C894.131 405.143 839.909 423.866 830.362 415.323C824.984 410.491 842.442 400.239 865.08 386.713C832.073 362.239 812.328 328.773 717.288 298.265C641.895 274.066 524.149 252.257 412.928 250.929C226.247 248.688 143.588 313.919 4.65518 307.236C-95.3084 301.759 -206.943 193.106 -119.178 169.015M1701.44 191.864C1449.03 225.985 1323.73 261.628 1235.96 287.319C1175.42 305.046 1128.59 351.07 993.652 376.834C974.036 380.574 942.575 386.387 902.153 392.948C896.027 404.419 840.196 423.287 829.719 414.636C823.789 409.732 841.018 399.361 863.43 385.666C831.277 360.975 812.508 327.209 717.684 296.409C642.562 272.012 524.678 249.997 413.34 248.684C226.249 246.486 144.317 312.477 5.47246 305.788C-95.5684 300.247 -208.411 190.434 -119.672 166.083M1701.23 188.452C1448.16 223.017 1323.54 259.098 1236.9 285.155C1177.16 303.125 1131.21 349.605 996.379 375.784C976.937 379.561 945.53 385.465 905.047 392.114C897.926 403.665 840.54 422.701 829.077 413.92C822.595 408.944 839.596 398.442 861.781 384.588C830.455 359.671 812.689 325.625 718.052 294.513C643.201 269.916 525.151 247.694 413.724 246.407C226.223 244.254 145.019 310.995 6.26247 304.298C-95.8559 298.704 -209.877 187.723 -120.223 163.108M1700.99 185.05C1447.26 220.048 1323.35 256.588 1237.77 282.999C1178.84 301.201 1133.78 348.137 999.019 374.75C979.72 378.562 948.398 384.561 907.853 391.297C899.765 402.939 840.768 422.129 828.375 413.231C821.342 408.182 838.114 397.562 860.102 383.549C829.63 358.417 812.839 324.07 718.419 292.666C643.839 267.86 525.651 245.432 414.106 244.181C226.194 242.061 145.69 309.571 7.05016 302.859C-96.1454 297.201 -211.374 185.05 -120.776 160.183M1700.78 181.638C1446.38 217.081 1323.16 254.058 1238.71 280.845C1180.56 299.279 1136.41 346.662 1001.75 373.719C982.621 377.559 951.352 383.659 910.774 390.484C901.691 402.216 841.141 421.564 827.761 412.545C820.176 407.425 836.72 396.675 858.48 382.503C828.864 357.155 813.048 322.517 718.844 290.812C644.535 265.806 526.18 243.172 414.575 241.948C226.254 239.871 146.477 308.141 7.92566 301.413C-96.3184 295.703 -212.783 182.381 -121.211 157.243M1700.53 178.236C1445.48 214.122 1322.95 251.537 1239.58 278.689C1182.24 297.355 1138.95 345.194 1004.41 372.676C985.434 376.552 954.249 382.756 913.61 389.648C903.56 401.461 841.427 420.975 827.06 411.837C818.924 406.643 835.239 395.774 856.773 381.433C828.011 355.869 813.17 320.931 719.154 288.923C645.115 263.718 526.623 240.878 414.901 239.669C226.169 237.636 147.091 306.655 8.68582 299.933C-96.6355 294.159 -214.279 179.668 -121.792 154.277M1700.32 174.825C1444.61 211.154 1322.76 249.018 1240.51 276.525C1183.98 295.434 1141.58 343.709 1007.11 371.634C988.306 375.537 957.175 381.843 916.474 388.823C905.428 400.726 841.713 420.396 826.417 411.13C817.729 405.864 833.817 394.866 855.152 380.367C827.246 354.587 813.351 319.357 719.58 287.048C645.813 261.635 527.153 238.598 415.342 237.415C226.201 235.415 147.851 305.204 9.53326 298.466C-96.8656 292.639 -215.716 176.978 -122.285 151.325M1700.08 171.422C1443.71 208.185 1322.57 246.498 1241.39 274.368C1185.66 293.51 1144.12 342.23 1009.78 370.601C991.118 374.54 960.042 380.939 919.338 388.008C907.296 400.001 842.028 419.838 825.745 410.442C816.505 405.114 832.335 393.985 853.473 379.318C826.422 353.323 813.502 317.791 719.947 285.192C646.421 259.578 527.624 236.325 415.725 235.179C226.202 233.224 148.551 303.771 10.3215 297.016C-97.1546 291.126 -217.213 174.305 -122.808 148.392M1699.87 168.011C1442.84 205.217 1322.38 243.968 1242.32 272.214C1187.4 291.589 1146.69 340.753 1012.51 369.561C994.019 373.536 962.997 380.027 922.231 387.185C909.223 399.259 842.372 419.262 825.131 409.747C815.339 404.346 830.941 393.088 851.852 378.262C825.656 352.051 813.711 316.229 720.344 283.316C647.089 257.503 528.154 234.044 416.137 232.914C226.204 231.002 149.252 302.309 11.1401 295.538C-97.4136 289.594 -218.65 171.595 -123.33 145.428M1699.63 164.598C1441.96 202.25 1322.16 241.447 1243.23 270.049C1189.12 289.657 1149.26 339.256 1015.18 368.518C996.832 372.519 965.894 379.114 925.095 386.36C911.091 398.524 842.687 418.694 824.458 409.049C814.116 403.576 829.489 392.199 850.173 377.203C824.832 350.776 813.862 314.653 720.711 281.449C647.727 255.427 528.626 231.772 416.52 230.667C226.177 228.799 149.953 300.856 11.9284 294.089C-97.7025 288.081 -220.147 168.922 -123.883 142.493M1699.41 161.197C1441.09 199.282 1321.97 238.928 1244.13 267.894C1190.8 287.743 1151.8 337.777 1017.87 367.486C999.674 371.523 968.82 378.221 927.959 385.545C912.988 397.8 843.002 418.126 823.786 408.351C812.921 402.817 828.037 391.299 848.524 376.145C824.038 349.503 814.013 313.088 721.108 279.584C648.395 253.362 529.155 229.501 416.932 228.422C226.179 226.587 150.653 299.413 12.7754 292.632C-97.9327 286.56 -221.585 166.232 -124.347 139.552M1699.17 157.784C1440.19 196.313 1321.75 236.397 1245.04 265.729C1192.51 285.811 1154.34 336.279 1020.57 366.434C1002.55 370.499 971.746 377.299 930.824 384.7C914.858 397.035 843.317 417.539 823.144 407.635C811.727 402.028 826.614 390.391 846.875 375.068C823.244 348.2 814.194 311.494 721.477 277.687C649.005 251.265 529.628 227.188 417.316 226.136C226.152 224.344 151.355 297.93 13.5656 291.133C-98.2201 285.008 -223.051 163.51 -124.898 136.567M1698.96 154.383C1439.32 193.356 1321.56 233.877 1245.94 263.583C1194.22 283.899 1156.88 334.8 1023.24 365.411C1005.36 369.512 974.642 376.405 933.687 383.895C916.754 396.321 843.631 416.991 822.471 406.957C810.502 401.288 825.162 389.512 845.195 374.029C822.419 346.946 814.315 309.948 721.843 275.841C649.642 249.209 530.128 224.937 417.728 223.911C226.154 222.163 152.084 296.508 14.3821 289.705C-98.4807 283.516 -224.519 160.859 -125.421 133.644M1698.72 150.97C1438.42 190.387 1321.34 231.346 1246.85 261.418C1195.94 281.966 1159.39 333.301 1025.94 364.37C1008.2 368.496 977.568 375.493 936.551 383.07C918.623 395.576 843.976 416.414 821.829 406.25C809.308 400.509 823.739 388.603 843.575 372.963C821.654 345.664 814.525 308.365 722.269 273.966C650.31 247.135 530.658 222.656 418.169 221.657C226.184 219.952 152.814 295.047 15.2294 288.238C-98.7111 281.995 -225.957 158.159 -125.915 130.691M1698.51 147.569C1437.55 187.419 1321.15 228.836 1247.75 259.263C1197.62 280.043 1161.91 331.801 1028.61 363.337C1011.04 367.49 980.435 374.588 939.386 382.254C920.462 394.849 844.261 415.855 821.127 405.561C808.084 399.749 822.228 387.721 841.866 371.913C820.801 344.398 814.618 306.807 722.578 272.097C650.89 245.066 531.1 220.382 418.493 219.408C226.128 217.738 153.457 293.602 15.9598 286.776C-99.0579 280.47 -227.482 155.475 -126.496 127.746M1698.27 144.156C1436.64 184.45 1320.93 226.305 1248.65 257.098C1199.33 278.121 1164.42 330.301 1031.3 362.285C1013.89 366.474 983.362 373.676 942.28 381.421C922.389 394.107 844.605 415.279 820.484 404.855C806.889 398.98 820.806 386.813 840.217 370.845C820.006 343.115 814.798 305.224 722.975 270.222C651.557 242.992 531.602 218.091 418.906 217.143C226.131 215.516 154.158 292.139 16.8076 285.299C-99.2586 278.941 -228.919 152.764 -126.989 124.783M1698.05 140.755C1435.77 181.492 1320.74 223.786 1249.56 254.953C1201.01 276.207 1166.93 328.812 1034 361.263C1016.73 365.478 986.287 372.783 945.143 380.616C924.256 393.382 844.948 414.732 819.84 404.178C805.723 398.233 819.382 385.945 838.595 369.809C819.24 341.863 814.978 303.679 723.4 268.378C652.224 240.937 532.16 215.841 419.346 214.919C226.16 213.336 154.916 290.708 17.6533 283.872C-99.49 277.45 -230.359 150.114 -127.484 121.871M1697.81 137.342C1434.87 178.514 1320.52 221.255 1250.46 252.787C1202.73 274.275 1169.41 327.301 1036.67 360.22C1019.54 364.471 989.184 371.87 947.978 379.78C926.125 392.637 845.235 414.153 819.14 403.459C804.471 397.451 817.902 385.024 836.888 368.729C818.388 340.568 815.071 302.092 723.71 266.479C652.805 238.839 532.574 213.536 419.672 212.64C226.076 211.101 155.559 289.233 18.3849 282.38C-99.836 275.905 -231.883 147.39 -128.064 118.895M1697.6 133.941C1434 175.556 1320.3 218.734 1251.37 250.632C1204.44 272.352 1171.9 325.79 1039.37 359.178C1022.38 363.455 992.11 370.957 950.871 378.956C928.023 391.903 845.578 413.587 818.526 402.764C803.305 396.684 816.508 384.137 835.267 367.672C817.622 339.296 815.281 300.519 724.136 264.614C653.472 236.774 533.133 211.267 420.113 210.386C226.107 208.89 156.289 287.781 19.2322 280.914C-100.066 274.374 -233.321 144.7 -128.557 115.943M1697.36 130.528C1433.1 172.587 1320.09 216.213 1252.27 248.467C1206.12 270.419 1174.35 324.278 1042.06 358.137C1025.23 362.439 995.036 370.045 953.735 378.131C929.92 391.159 845.923 413.01 817.854 402.066C802.11 395.925 815.056 383.238 833.617 366.615C816.827 338.022 815.431 298.954 724.532 262.749C654.14 234.709 533.633 208.985 420.525 208.141C226.109 206.678 157.019 286.34 20.0789 279.457C-100.297 272.864 -234.759 142.019 -129.051 113M1697.15 127.127C1432.22 169.629 1319.9 213.693 1253.18 246.322C1207.83 268.516 1176.8 322.776 1044.73 357.114C1028.04 361.452 997.932 369.161 956.599 377.326C931.788 390.444 846.266 412.464 817.181 401.388C800.886 395.174 813.603 382.368 831.938 365.576C815.974 336.757 815.553 297.408 724.9 260.892C654.748 232.652 534.13 206.804 420.937 205.906C226.163 204.619 157.719 284.897 20.896 278.018C-100.557 271.362 -236.198 139.349 -129.546 110.078M1696.9 123.715C1431.32 166.65 1319.65 211.161 1254.08 244.157C1209.52 266.583 1179.26 321.254 1047.43 356.062C1030.88 360.426 1000.83 368.238 959.463 376.492C933.656 389.699 846.581 411.886 816.539 400.672C799.721 394.397 812.151 381.449 830.289 364.498C815.18 335.464 815.734 295.814 725.268 259.005C655.358 230.555 534.632 204.512 421.32 203.629C226.136 202.386 158.421 283.424 21.6857 276.529C-100.845 269.819 -237.693 136.636 -130.096 107.093M1696.69 120.313C1430.48 163.694 1319.46 208.641 1255.01 242.003C1211.23 264.661 1181.74 319.743 1050.16 355.031C1033.75 359.432 1003.78 367.336 962.356 375.678C935.583 388.966 846.954 411.331 815.895 399.985C798.555 393.639 810.728 380.571 828.668 363.452C814.414 334.202 815.913 294.26 725.693 257.151C656.054 228.502 535.161 202.242 421.761 201.395C226.167 200.185 159.15 281.992 22.5322 275.082C-101.076 268.308 -239.131 133.956 -130.59 104.161M1696.45 116.901C1429.58 160.725 1319.21 206.109 1255.89 239.836C1212.91 262.727 1184.14 318.219 1052.8 353.987C1036.54 358.413 1006.65 366.421 965.192 374.842C937.423 388.22 847.24 410.752 815.224 399.278C797.331 392.869 809.276 379.661 826.989 362.383C813.59 332.917 816.036 292.673 726.061 255.264C656.664 226.415 535.663 199.95 422.145 199.129C226.141 197.962 159.851 280.529 23.3213 273.613C-101.364 266.776 -240.598 131.264 -131.113 101.207M1696.24 113.499C1428.71 157.757 1319.02 203.599 1256.82 237.692C1214.62 260.815 1186.59 316.717 1055.52 352.957C1039.41 357.409 1009.61 365.52 968.085 374.028C939.349 387.487 847.613 410.196 814.58 398.591C796.165 392.121 807.853 378.783 825.339 361.336C812.795 331.654 816.186 291.118 726.428 253.408C657.273 224.358 536.134 197.677 422.527 196.893C226.113 195.769 160.552 279.087 24.1386 272.165C-101.624 265.274 -242.066 128.593 -131.636 98.2736M1696 110.087C1427.81 154.788 1318.77 201.067 1257.7 235.526C1216.31 258.881 1188.96 315.181 1058.19 351.914C1042.22 356.402 1012.5 364.617 970.92 373.202C941.188 386.751 847.927 409.629 813.879 397.882C794.912 391.34 806.372 377.872 823.631 360.266C811.942 330.369 816.279 289.541 726.767 251.53C657.882 222.27 536.606 195.394 422.881 194.625C226.057 193.535 161.195 277.621 24.8989 270.684C-101.941 263.73 -243.59 125.879 -132.216 95.3077M1695.78 106.685C1426.93 151.831 1318.58 198.548 1258.63 233.372C1218.02 256.969 1191.41 313.669 1060.89 350.882C1045.06 355.396 1015.43 363.714 973.812 372.388C943.114 386.028 848.3 409.073 813.265 397.197C793.775 390.593 804.978 376.985 822.039 359.22C811.205 329.108 816.488 287.988 727.221 249.667C658.579 220.207 537.165 193.125 423.352 192.382C226.146 191.337 161.983 276.182 25.775 269.229C-102.142 262.22 -244.97 123.201 -132.652 92.3677M1695.54 103.273C1426.03 148.862 1318.34 196.016 1259.51 231.206C1219.67 255.034 1193.75 312.133 1063.56 349.829C1047.88 354.369 1018.33 362.791 976.648 371.552C944.954 385.272 848.586 408.494 812.564 396.488C792.552 389.813 803.497 376.084 820.332 358.151C810.353 327.822 816.582 286.4 727.531 247.788C659.13 218.128 537.608 190.831 423.677 190.124C226.061 189.112 162.596 274.726 26.5055 267.767C-102.46 260.696 -246.524 120.506 -133.262 89.4206M1695.33 99.8714C1425.16 145.894 1318.14 193.496 1260.44 229.061C1221.38 253.122 1196.18 310.62 1066.26 348.807C1050.69 353.382 1021.22 361.897 979.511 370.738C946.822 384.547 848.93 407.938 811.921 395.791C791.357 389.054 802.074 375.186 818.682 357.093C809.558 326.549 816.732 284.835 727.927 245.922C659.768 216.062 538.108 188.56 424.118 187.87C226.092 186.901 163.355 273.265 27.3526 266.3C-102.69 259.176 -247.962 117.816 -133.755 86.4682M1695.09 96.4588C1424.26 142.925 1317.9 190.974 1261.32 226.895C1223.07 251.188 1198.52 309.083 1068.92 347.764C1053.5 352.365 1024.12 360.983 982.376 369.913C948.72 383.813 849.273 407.371 811.249 395.093C790.162 388.285 800.592 374.296 817.032 356.035C808.763 325.266 816.883 283.27 728.324 244.047C660.436 213.987 538.638 186.279 424.53 185.615C226.094 184.68 164.085 271.813 28.1998 264.833C-102.92 257.645 -249.371 115.117 -134.219 83.507M1694.88 93.0574C1423.39 139.968 1317.68 188.453 1262.25 224.741C1224.78 249.276 1200.91 307.549 1071.65 346.724C1056.38 351.35 1027.07 360.082 985.269 369.089C950.618 383.069 849.647 406.806 810.635 394.398C789.026 387.529 799.199 373.398 815.411 354.989C807.997 324.004 817.063 281.706 728.721 242.191C661.074 211.921 539.139 184.008 424.942 183.379C226.096 182.488 164.786 270.381 29.0175 263.385C-103.18 256.143 -250.838 112.445 -134.742 80.5735M1694.64 89.6449C1422.48 136.989 1317.46 185.922 1263.13 222.575C1226.43 247.341 1203.22 306.011 1074.29 345.68C1059.16 350.342 1029.94 359.167 988.104 368.263C952.486 382.334 849.961 406.238 809.934 393.699C787.773 386.757 797.717 372.508 813.703 353.929C807.144 322.728 817.156 280.138 729.059 240.323C661.653 209.853 539.61 181.735 425.296 181.122C226.039 180.274 165.457 268.917 29.7767 261.924C-103.498 254.619 -252.364 109.761 -135.324 77.6275M1694.42 86.2435C1421.61 134.031 1317.24 183.401 1264.06 220.431C1228.14 245.429 1205.59 304.485 1077.02 344.659C1062 349.346 1032.9 358.276 990.996 367.459C954.382 381.62 850.334 405.693 809.29 393.013C786.607 386.01 796.294 371.62 812.082 352.883C806.378 321.466 817.336 278.584 729.484 238.459C662.321 207.788 540.14 179.454 425.737 178.878C226.07 178.063 166.187 267.475 30.6239 260.467C-103.729 253.109 -253.773 107.072 -135.817 74.6852M1694.18 82.831C1420.71 131.062 1316.99 180.879 1264.96 218.266C1229.83 243.495 1207.93 302.948 1079.72 343.607C1064.84 348.33 1035.82 357.354 993.861 366.624C956.281 380.866 850.649 405.105 808.648 392.306C785.442 385.232 794.871 370.721 810.432 351.815C805.584 320.183 817.458 276.998 729.852 236.582C662.93 205.711 540.641 177.173 426.12 176.621C226.072 175.852 166.888 266.022 31.4421 258.999C-103.988 251.577 -255.24 104.38 -136.311 71.7328M1693.97 79.4296C1419.84 128.104 1316.77 178.358 1265.87 216.11C1231.54 241.583 1210.27 301.412 1082.38 342.574C1067.63 347.322 1038.69 356.449 996.725 365.8C958.149 380.131 850.993 404.538 807.976 391.608C784.247 384.473 793.419 369.822 808.753 350.756C804.76 318.909 817.58 275.432 730.22 234.716C663.539 203.634 541.112 174.9 426.503 174.375C226.045 173.639 167.589 264.579 32.2309 257.54C-104.276 250.054 -256.736 101.688 -136.863 68.7881M1693.73 76.017C1418.97 125.127 1316.53 175.826 1266.77 213.945C1233.22 239.65 1212.58 299.864 1085.08 341.533C1070.47 346.306 1041.62 355.536 999.589 364.975C960.017 379.396 851.337 403.972 807.333 390.912C783.052 383.704 791.996 368.934 807.133 349.7C803.994 317.637 817.76 273.868 730.646 232.841C664.207 201.559 541.672 172.611 426.944 172.111C226.077 171.418 168.319 263.108 33.0778 256.073C-104.507 248.533 -258.145 98.9986 -137.356 65.8357M1693.52 72.6157C1418.09 122.169 1316.31 173.315 1267.68 211.8C1234.9 237.736 1214.86 298.335 1087.78 340.501C1073.28 345.309 1044.54 354.644 1002.45 364.16C961.914 378.662 851.681 403.415 806.66 390.214C781.857 382.945 790.515 368.033 805.454 348.641C803.17 316.362 817.882 272.291 730.984 230.974C664.787 199.491 542.114 170.337 427.327 169.865C226.049 169.205 169.019 261.665 33.8664 254.614C-104.795 247.011 -259.641 96.3159 -137.879 62.8922M1693.27 69.2031C1417.19 119.2 1316.06 170.783 1268.58 209.635C1236.59 235.802 1217.14 296.786 1090.45 339.458C1076.1 344.292 1047.44 353.73 1005.32 363.335C963.783 377.927 852.025 402.849 805.988 389.516C780.662 382.176 789.063 367.143 803.775 347.582C802.317 315.087 817.975 270.724 731.351 229.107C665.396 197.424 542.614 168.065 427.71 167.618C226.022 167.002 169.691 260.221 34.655 253.154C-105.084 245.498 -261.137 93.6232 -138.431 59.9375M1693.06 65.8017C1416.32 116.233 1315.84 168.272 1269.49 207.48C1238.27 233.889 1219.42 295.237 1093.14 338.426C1078.91 343.294 1050.36 352.828 1008.18 362.52C965.68 377.194 852.368 402.292 805.345 388.83C779.496 381.428 787.64 366.255 802.154 346.536C801.552 313.815 818.154 269.17 731.777 227.243C666.063 195.349 543.145 165.785 428.151 165.364C226.053 164.792 170.45 258.77 35.5311 251.699C-105.256 243.979 -262.517 90.9452 -138.895 56.9963M1692.82 62.3892C1415.42 113.264 1315.59 165.74 1270.39 205.314C1239.95 231.955 1221.7 293.688 1095.84 337.384C1081.75 342.279 1053.29 351.915 1011.07 361.696C967.578 376.46 852.741 401.727 804.702 388.123C778.302 380.649 786.217 365.347 800.504 345.468C800.757 312.532 818.306 267.585 732.145 225.366C666.673 193.272 543.616 163.502 428.535 163.108C226.026 162.569 171.122 257.306 36.3204 250.229C-105.545 242.457 -264.013 88.2425 -139.418 54.0427M1692.61 58.9878C1414.55 110.306 1315.37 163.219 1271.29 203.169C1241.64 230.042 1223.95 292.157 1098.51 336.351C1084.54 341.27 1056.19 351.012 1013.91 360.87C969.446 375.725 853.056 401.159 804.03 387.425C777.107 379.89 784.765 364.458 798.825 344.41C799.934 311.257 818.399 266.017 732.512 223.499C667.282 191.205 544.117 161.22 428.917 160.862C226.028 160.367 171.822 255.863 37.1088 248.77C-105.833 240.934 -265.509 85.5598 -139.97 51.098M1692.37 55.5753C1413.65 107.337 1315.12 160.697 1272.2 201.004C1243.32 228.118 1226.2 290.597 1101.21 335.31C1087.35 340.263 1059.08 350.108 1016.77 360.046C971.315 374.98 853.4 400.592 803.358 386.728C775.913 379.122 783.313 363.558 797.146 343.351C799.11 309.983 818.521 264.451 732.88 221.623C667.891 189.128 544.589 158.937 429.301 158.605C226.001 158.144 172.523 254.41 37.8981 247.301C-106.122 239.411 -266.976 82.8683 -140.521 48.1433M1692.15 52.1739C1412.77 104.369 1314.91 158.176 1273.1 198.849C1245 226.195 1228.42 289.046 1103.88 334.277C1090.16 339.256 1061.98 349.205 1019.64 359.231C973.212 374.256 853.744 400.036 802.685 386.04C774.717 378.373 781.86 362.679 795.496 342.303C798.314 308.72 818.642 262.884 733.276 219.767C668.529 187.062 545.118 156.677 429.712 156.36C226.003 155.942 173.224 252.958 38.7152 245.853C-106.382 237.899 -268.444 80.1867 -141.016 45.2109M1691.91 48.7613C1411.87 101.4 1314.66 155.654 1274.01 196.684C1246.69 224.271 1230.64 287.494 1106.57 333.225C1092.98 338.239 1064.91 348.282 1022.5 358.396C975.08 373.511 854.088 399.459 802.043 385.323C773.553 377.585 780.438 361.76 793.847 341.226C797.52 307.427 818.794 261.299 733.644 217.88C669.139 184.975 545.591 154.374 430.096 154.094C225.976 153.71 173.925 251.495 39.5338 244.375C-106.641 236.367 -269.91 77.4852 -141.538 42.2473M1691.7 45.36C1411 98.4428 1314.44 153.133 1274.94 194.54C1248.4 222.359 1232.9 285.954 1109.3 332.204C1095.82 337.243 1067.86 347.391 1025.39 357.592C976.977 372.787 854.489 398.915 801.399 384.647C772.357 376.846 778.985 360.891 792.197 340.188C796.725 306.173 818.915 259.753 734.04 216.025C669.777 182.919 546.12 152.114 430.536 151.86C226.007 151.519 174.655 250.063 40.3805 242.928C-106.871 234.857 -271.319 74.8061 -142.032 39.315M1691.46 41.9474C1410.1 95.4639 1314.19 150.611 1275.82 192.373C1250.05 220.434 1235.06 284.39 1111.94 331.16C1098.6 336.235 1070.73 346.476 1028.23 356.766C978.845 372.052 854.804 398.347 800.727 383.949C771.162 376.077 777.533 359.991 790.547 339.131C795.93 304.9 819.066 258.178 734.437 214.159C670.386 180.852 546.62 149.842 430.949 149.605C226.009 149.297 175.384 248.611 41.1984 241.46C-107.131 233.335 -272.786 72.1145 -142.525 36.3626M1691.25 38.546C1409.23 92.5062 1313.97 148.09 1276.75 190.219C1251.76 218.512 1237.28 282.839 1114.67 330.12C1101.45 335.219 1073.68 345.575 1031.12 355.932C980.743 371.308 855.178 397.772 800.085 383.242C769.997 375.309 776.11 359.093 788.897 338.063C795.136 303.617 819.188 256.601 734.805 212.273C670.996 178.755 547.122 147.541 431.332 147.338C225.982 147.074 176.086 247.139 41.9877 239.99C-107.419 231.802 -274.282 69.4118 -143.077 33.3979M1691.01 35.1335C1408.33 89.5374 1313.69 145.567 1277.63 188.053C1253.42 216.577 1239.42 281.284 1117.34 329.077C1104.23 334.211 1076.58 344.661 1033.96 355.106C982.612 370.563 855.493 397.194 799.384 382.533C768.773 374.529 774.63 358.183 787.19 336.993C794.283 302.322 819.281 255.024 735.144 210.395C671.576 176.677 547.565 145.257 431.686 145.081C225.955 144.861 176.728 245.683 42.7473 238.52C-107.736 230.268 -275.778 66.7191 -143.658 30.442M1690.79 31.7321C1407.48 86.5808 1313.47 143.056 1278.56 185.909C1255.1 214.674 1241.64 279.743 1120.03 328.055C1107.04 333.214 1079.48 343.768 1036.85 354.303C984.509 369.849 855.865 396.649 798.769 381.858C767.636 373.792 773.235 357.315 785.597 335.958C793.546 301.071 819.461 253.47 735.598 208.552C672.272 174.633 548.152 143.009 432.156 142.848C226.015 142.662 177.516 244.254 43.6525 237.075C-107.909 228.77 -277.158 64.0511 -144.064 27.5131M1690.55 28.3196C1406.58 83.602 1313.23 140.524 1279.43 183.742C1256.75 212.739 1243.75 278.177 1122.7 327.002C1109.83 332.196 1082.37 342.844 1039.69 353.467C986.377 369.104 856.12 396.109 798.068 381.149C766.354 373.03 771.754 356.405 783.89 334.888C792.693 299.785 819.525 251.891 735.907 206.663C672.823 172.534 548.566 140.703 432.481 140.579C225.93 140.437 178.13 242.788 44.3829 235.604C-108.227 227.236 -278.712 61.3461 -144.674 24.556M1690.34 24.9182C1405.71 80.6443 1313.01 138.013 1280.37 181.588C1258.46 210.827 1245.94 276.624 1125.43 325.971C1112.67 331.19 1085.33 341.943 1042.61 352.654C988.304 368.371 856.523 395.545 797.483 380.455C765.247 372.265 770.389 355.519 782.298 333.833C791.957 298.514 819.734 250.328 736.362 204.8C673.49 170.469 549.154 138.435 432.951 138.336C225.99 138.227 178.918 241.338 45.2592 234.148C-108.428 225.726 -280.092 58.6681 -145.139 21.6149M1690.1 21.5056C1404.81 77.6754 1312.73 135.489 1281.24 179.422C1260.12 208.902 1248.04 275.058 1128.07 324.927C1115.42 330.18 1088.19 341.038 1045.41 351.827C990.114 367.634 856.837 394.977 796.753 379.755C763.993 371.503 768.85 354.616 780.59 332.773C791.104 297.239 819.798 248.749 736.7 202.932C674.07 168.401 549.597 136.151 433.305 136.089C225.933 136.023 179.589 239.894 46.0185 232.687C-108.746 224.202 -281.617 55.9742 -145.72 18.6689M1689.88 18.1043C1403.94 74.7077 1312.25 132.948 1282.18 177.278C1261.66 206.973 1250.21 273.514 1130.8 323.897C1118.27 329.174 1091.15 340.137 1048.31 351.003C992.041 366.891 857.211 394.401 796.11 379.058C762.828 370.736 767.427 353.718 778.94 331.715C790.309 295.966 819.92 247.183 737.068 201.055C674.68 166.314 550.098 133.87 433.718 133.824C225.936 133.792 180.29 238.431 46.8661 231.21C-108.976 222.672 -283.055 53.2739 -146.184 15.7078M1689.64 14.6917C1403.03 71.7388 1312.06 130.428 1283.05 175.112C1263.34 205.049 1252.29 271.947 1133.46 322.854C1121.05 328.166 1094.05 339.223 1051.17 350.178C993.909 366.156 857.555 393.835 795.467 378.362C761.663 369.968 766.004 352.829 777.29 330.658C789.514 294.693 820.042 245.607 737.465 199.19C675.289 164.247 550.598 131.598 434.13 131.578C225.938 131.59 181.02 236.99 47.6837 229.762C-109.235 221.16 -284.493 50.6035 -146.707 12.7742M1689.43 11.2903C1402.16 68.7811 1311.87 127.918 1283.99 172.958C1265.08 203.138 1254.42 270.392 1136.16 321.822C1123.86 327.169 1096.97 338.321 1054.03 349.364C995.806 365.432 857.928 393.27 794.795 377.664C760.467 369.209 764.552 351.93 775.641 329.6C788.69 293.418 819.958 244.082 737.861 197.324C675.751 162.204 551.128 129.318 434.541 129.333C225.939 129.388 181.721 235.537 48.5013 228.304C-109.495 219.648 -285.96 47.912 -147.23 9.82067M1689.19 7.87779C1401.26 65.8123 1311.65 125.397 1284.86 170.791C1266.73 201.203 1256.5 268.825 1138.83 320.769C1126.65 326.141 1099.84 337.396 1056.87 348.527C997.646 364.676 858.243 392.692 794.123 376.956C759.273 368.43 763.1 351.03 773.962 328.531C787.867 292.134 820.11 242.487 738.2 195.436C676.361 160.107 551.571 127.024 434.896 127.056C225.913 127.145 182.393 234.063 49.262 226.814C-109.812 218.094 -287.485 45.1981 -147.78 6.84596M1688.98 4.47642C1400.39 62.8446 1311.46 122.888 1285.79 168.647C1268.47 199.302 1258.6 267.278 1141.53 319.747C1129.46 325.154 1102.76 336.513 1059.76 347.724C999.572 363.963 858.645 392.138 793.479 376.28C758.107 367.682 761.676 350.152 772.311 327.504C787.071 290.881 820.289 240.943 738.596 193.601C677.028 158.062 552.1 124.783 435.307 124.841C225.913 124.974 183.093 232.65 50.0786 225.385C-110.073 216.612 -288.924 42.5378 -148.304 3.93239M1688.74 1.06387C1399.49 59.8757 1311.24 120.367 1286.7 166.482C1270.19 197.38 1260.68 265.711 1144.22 318.705C1132.27 324.147 1105.69 335.601 1062.63 346.899C1001.44 363.228 858.989 391.571 792.807 375.582C756.912 366.913 760.224 349.263 770.661 326.446C786.277 289.607 820.47 239.359 738.992 191.735C677.695 155.987 552.601 122.502 435.719 122.595C225.915 122.762 183.823 231.198 50.9251 223.939C-110.304 215.102 -290.363 39.8674 -148.799 1" stroke="url(#paint0_linear_4_11)" stroke-miterlimit="10"/>
<defs>
<linearGradient id="paint0_linear_4_11" x1="746.634" y1="-37.473" x2="729.879" y2="376.528" gradientUnits="userSpaceOnUse">
<stop stop-color="#033C70"/>
<stop offset="1" stop-color="#0C1E3F"/>
</linearGradient>
</defs>
</svg>
