<svg width="61" height="81" viewBox="0 0 61 81" fill="none" xmlns="http://www.w3.org/2000/svg">
<path d="M16.6667 6.75415V21.5416C16.6667 25.5641 18.1241 29.4218 20.7184 32.2661C23.3127 35.1104 26.8312 36.7083 30.5 36.7083C34.1689 36.7083 37.6874 35.1104 40.2817 32.2661C42.8759 29.4218 44.3334 25.5641 44.3334 21.5416V6.75415M20.125 51.875L16.6667 48.0833M40.875 51.875L44.3334 48.0833M16.6667 67.0416L9.75004 78.4166M44.3334 67.0416L51.25 78.4166M20.125 67.0416C10.4417 67.0416 2.83337 58.7 2.83337 48.0833V32.9166C2.83337 24.8717 5.74825 17.1563 10.9368 11.4677C16.1253 5.77914 23.1624 2.58331 30.5 2.58331C37.8377 2.58331 44.8748 5.77914 50.0633 11.4677C55.2518 17.1563 58.1667 24.8717 58.1667 32.9166V48.0833C58.1667 58.7 50.5584 67.0416 40.875 67.0416H20.125Z" stroke="white" stroke-width="5" stroke-linecap="round" stroke-linejoin="round"/>
</svg>
