<svg width="1355" height="706" viewBox="0 0 1355 706" fill="none" xmlns="http://www.w3.org/2000/svg">
<path d="M95.0379 92.6822C37.0912 163.344 4.79753 247.648 1.38984 338.952C-1.71735 422.112 13.2388 514.713 64.7006 582.383M106.062 80.9414C48.4665 156.284 16.8374 244.492 13.5296 339.197C10.4905 426.102 25.1839 522.158 76.1569 594.609M117.352 69.9048C60.2306 149.502 29.3621 241.145 26.2408 338.968C23.3576 429.306 37.8648 528.446 88.4449 605.208M128.862 59.6279C71.502 142.22 40.64 236.555 37.2584 336.94C34.1181 430.057 48.2946 531.727 98.3038 612.058M140.522 50.0924C82.974 135.237 51.7666 231.827 47.7256 334.409C43.9802 429.509 57.153 533.071 105.902 616.374M152.286 41.3393C94.5196 128.789 63.0099 227.35 58.3056 331.928C53.938 428.78 66.0909 533.988 113.578 620.004M164.096 33.3943C106.141 122.835 74.2954 223.178 68.9121 329.49C63.9692 427.177 74.4121 535.42 121.291 622.915M175.892 26.269C117.777 117.428 85.5934 219.322 79.5437 327.126C73.9991 426.163 83.493 535.509 129.052 625.168M187.631 19.9753C129.37 112.595 96.8768 215.754 90.2003 324.835C84.0664 424.979 92.6504 535.228 136.906 626.734M199.226 14.5377C140.846 108.346 108.113 212.543 100.822 322.672C94.1397 423.68 101.825 534.617 144.792 627.669M210.645 9.99769C152.204 104.723 119.228 209.743 111.365 320.634C104.198 421.834 110.526 534.241 152.724 627.974M221.832 6.33803C163.372 101.725 130.223 207.296 121.843 318.723C114.209 420.33 119.763 532.957 160.731 627.663M232.727 3.61318C174.318 99.4054 141.053 205.288 132.212 316.993C124.166 418.781 128.986 531.399 168.811 626.78M243.272 1.82022C184.971 97.7475 151.673 203.714 142.443 315.428C134.04 417.155 138.209 529.553 176.935 625.295M253.421 1C195.328 96.8227 162.053 202.604 152.518 314.101C143.842 415.525 147.415 527.476 185.143 623.297M263.09 1.14813C205.274 96.5965 172.15 201.968 162.381 312.964C153.503 413.846 156.576 525.151 193.395 620.725M272.261 2.29257C214.822 97.127 181.948 201.835 172.059 312.076C163.042 412.577 166.204 522.132 201.746 617.64M280.846 4.47199C223.899 98.425 191.359 202.229 181.45 311.448C172.428 410.912 175.255 519.413 210.135 614.067M288.803 7.68419C232.46 100.531 200.412 203.152 190.582 311.108C181.654 409.296 184.229 516.533 218.593 610.009M296.072 11.9549C240.462 103.415 209.003 204.655 199.411 311.055C190.689 407.743 193.139 513.477 227.132 605.481M302.06 16.7934C247.486 106.853 216.928 206.513 207.769 311.194C199.452 406.161 201.941 510.285 235.75 600.524M306.608 21.616C253.22 110.167 223.752 208.214 215.279 311.03C207.596 404.289 210.397 506.817 244.406 595.124M310.568 26.9698C258.487 113.89 230.219 210.156 222.556 310.927C215.603 402.294 218.746 503.2 253.169 589.297M313.954 32.8411C263.273 118.005 236.343 212.31 229.569 310.896C223.439 400.248 227.062 499.365 261.982 583.084M316.825 39.2186C267.637 122.487 242.139 214.707 236.364 310.926C231.119 398.165 235.359 495.356 270.885 576.502M319.225 46.09C271.64 127.296 247.648 217.362 242.953 311.033C238.688 395.99 243.617 491.245 279.879 569.55M321.182 53.4425C275.261 132.518 252.903 220.178 249.366 311.202C246.153 393.622 251.704 487.125 288.948 562.257M322.755 61.2647C278.591 138.084 257.943 223.284 255.631 311.449C253.54 391.352 259.958 482.812 298.12 554.638M323.974 69.5436C281.629 143.995 262.772 226.553 261.748 311.776C260.827 389.061 268.151 478.294 307.364 546.72M324.867 78.2808C284.421 150.239 267.428 230.114 267.744 312.212C268.028 386.767 276.401 473.794 316.681 538.533M325.494 87.4505C287.008 156.818 271.958 233.886 273.665 312.715C275.217 384.428 284.712 469.224 326.126 530.064M325.897 97.0405C289.419 163.733 276.391 237.868 279.51 313.301C282.349 382.073 293.123 464.66 335.643 521.34M326.092 107.037C291.669 171 280.755 242.076 285.292 313.985C289.449 379.787 301.581 460.027 345.243 512.376M326.151 117.444C293.831 178.564 285.079 246.513 291.055 314.768C296.548 377.531 310.225 455.417 354.955 503.216M326.104 128.234C295.148 185.495 289.48 251.962 296.799 315.637C303.668 375.419 318.972 450.755 364.764 493.831M325.995 139.41C297.164 193.671 293.877 256.935 302.565 316.637C310.752 372.874 327.778 446.931 374.667 484.306M325.852 150.943C299.163 202.177 298.408 262.102 308.37 317.71C317.892 370.936 337.113 442.313 384.68 474.586M325.735 162.838C301.281 210.89 302.965 267.601 314.212 318.915C325.809 371.829 347.204 433.906 394.814 464.757M325.658 175.066C303.099 219.56 307.841 273.635 320.135 320.21C333.407 370.504 356.819 428.886 405.029 454.773M325.692 187.644C305.371 228.928 312.921 279.607 326.167 321.655C341.236 369.451 366.77 423.781 415.362 444.71M325.856 200.518C307.815 238.594 318.294 285.767 332.308 323.191C349.314 368.597 377.088 418.523 425.788 434.536M326.205 213.717C310.969 249.015 323.917 291.824 338.602 324.851C357.808 368.037 387.592 413.03 436.332 424.296M326.768 227.215C314.127 259.364 330.08 298.298 345.062 326.648C366.674 367.555 398.55 407.358 447.007 414.019M327.606 240.985C318.543 270.44 336.679 304.693 351.745 328.572C376.134 367.26 409.676 401.523 457.785 403.705M328.732 255.03C323.859 281.964 343.378 310.546 358.581 330.619C386.018 366.858 421.152 395.302 468.665 393.367M330.204 269.351C332.962 294.315 349.243 314.976 365.61 332.82C396.272 366.245 432.995 388.956 479.688 383.051M332.067 283.909C336.791 289.819 339.837 297.558 343.883 304.039C351.457 316.168 362.3 325.744 372.993 335.154C407.179 365.262 444.88 382.353 490.826 372.74M334.364 298.718C340.077 298.218 344.764 306.804 348.357 310.887C357.718 321.567 368.89 329.491 380.542 337.611C418.277 363.914 456.904 375.556 502.092 362.465M337.11 313.738C342.186 307.953 349.837 316.028 354.063 319.265C364.871 327.559 376.33 333.813 388.414 340.215C429.618 362.033 468.914 368.744 513.455 352.253M340.364 328.984C344.937 320.627 353.735 324.846 360.163 327.837C372.174 333.429 384.119 338.327 396.61 342.979C441.175 359.586 480.764 361.981 524.959 342.105M344.183 344.433C349.445 334.427 358.353 334.522 367.961 336.984C380.311 340.147 392.723 342.968 405.186 345.906C452.45 357.039 492.901 355.218 536.601 332.079M348.567 360.083C360.386 337 393.39 346.829 414.014 348.976C463.77 354.149 504.74 348.671 548.339 322.145M353.606 375.896C366.842 349.316 397.758 352.65 423.295 352.198C474.83 351.288 516.79 342.22 560.257 312.349M359.297 391.9C373.642 362.212 403.389 359.399 432.97 355.599C485.988 348.778 528.908 335.831 572.268 302.702M365.701 408.042C382.398 375.71 409.286 367.139 443.04 359.149C496.704 346.447 541.476 329.378 584.416 293.206M372.149 422.775C390.056 387.887 417.737 375.054 453.562 362.881C507.793 344.438 553.864 323.348 596.711 283.919M375.688 430.439C395.188 393.401 424.442 377.108 462.386 362.367C517.972 340.77 565.555 316.879 609.114 274.767M379.729 439.006C400.77 399.701 431.664 380.053 471.501 362.357C528.088 337.228 577.418 310.419 621.679 265.853M384.278 448.332C406.809 406.643 439.285 383.636 480.935 362.867C538.467 334.175 589.406 304.325 634.359 257.19M389.371 458.291C413.336 414.157 447.398 387.749 490.691 363.826C549.112 331.552 601.535 298.584 647.172 248.778M395.026 468.783C420.388 422.129 455.945 392.358 500.814 365.22C560.08 329.364 613.847 293.197 660.141 240.662M401.282 479.664C427.983 430.446 464.993 397.338 511.309 366.951C571.36 327.551 626.329 288.15 673.256 232.812M408.156 490.822C436.124 439.078 474.557 402.633 522.176 369.002C582.908 326.125 639.07 283.39 686.512 225.287M415.656 502.141C444.849 447.841 484.599 408.139 533.432 371.318C594.815 325.021 651.964 279.011 699.923 218.114M423.831 513.481C454.188 456.693 495.181 413.802 545.097 373.812C607.037 324.206 665.088 274.918 713.476 211.266M432.688 524.74C464.135 465.475 506.277 419.548 557.171 376.486C619.621 323.653 678.409 271.209 727.167 204.813M442.261 535.776C474.737 474.132 517.92 425.294 569.686 379.241C632.569 323.307 691.975 267.772 741.028 198.713M452.571 546.476C485.983 482.577 530.129 430.954 582.646 382.046C645.866 323.151 705.784 264.649 755.054 193.026M463.639 556.726C497.909 490.683 542.923 436.442 596.051 384.86C659.557 323.202 719.836 261.855 769.216 187.791M475.5 566.383C510.549 498.336 556.261 441.699 609.936 387.584C673.66 323.332 734.118 259.332 783.531 182.938M488.159 575.346C523.893 505.45 570.203 446.685 624.3 390.231C688.147 323.582 748.671 257.153 798.021 178.598M496.548 580.537C534.199 509.746 582.466 449.599 637.499 391.725C702.24 323.64 763.243 255.163 812.662 174.698M500.847 582.915C540.663 511.184 591.113 450.285 647.893 391.478C714.388 322.605 776.814 253.049 827.422 171.278M505.253 585.169C547.212 512.626 599.916 451.036 658.406 391.439C726.647 321.921 790.533 251.404 842.329 168.369M509.839 587.274C553.951 514.035 608.901 451.869 669.082 391.595C739.034 321.546 804.404 250.17 857.41 166.002M514.651 589.203C560.939 515.356 618.039 452.81 679.964 391.949C751.68 321.472 818.452 249.419 872.679 164.191M519.729 590.973C568.158 516.66 627.419 453.821 691.051 392.501C764.467 321.736 832.693 249.11 888.091 162.949M525.136 592.53C575.812 517.9 637.327 454.903 702.719 393.24C777.868 322.377 847.501 249.275 904.05 162.281M530.912 593.89C583.889 519.046 647.735 456.081 714.993 394.241C792.026 323.416 863.302 250.01 921.226 162.295M537.118 595.012C592.315 520.109 658.355 457.329 727.414 395.465C806.252 324.833 879.045 251.303 938.267 163.006M543.811 595.901C601.12 521.091 669.258 458.662 739.996 396.927C820.499 326.654 894.732 253.14 955.17 164.416M551.035 596.543C610.347 521.994 680.446 460.068 752.768 398.615C834.828 328.868 910.377 255.535 971.908 166.536M558.835 596.912C620.025 522.79 691.948 461.533 765.746 400.487C849.226 331.416 925.967 258.418 988.499 169.297M567.268 596.997C630.2 523.453 703.823 463.017 778.945 402.542C863.707 334.313 941.518 261.787 1004.93 172.711M576.38 596.772C640.929 523.972 716.072 464.505 792.41 404.754C878.317 337.505 957.031 265.63 1021.19 176.736M586.24 596.253C652.256 524.334 728.752 466.016 806.155 407.125C893.04 341.02 972.505 269.931 1037.31 181.387M596.881 595.401C664.197 524.526 741.895 467.478 820.21 409.613C907.908 344.801 987.973 274.663 1053.26 186.604M608.374 594.203C676.825 524.523 755.543 468.923 834.62 412.204C922.949 348.849 1003.46 279.785 1069.06 192.375M620.751 592.633C690.169 524.312 769.714 470.28 849.372 414.871C938.167 353.108 1018.92 285.294 1084.69 198.67M634.081 590.709C704.287 523.882 784.448 471.593 864.508 417.644C953.573 357.622 1034.37 291.206 1100.15 205.532M648.411 588.39C719.21 523.204 799.778 472.807 880.073 420.453C969.215 362.32 1049.86 297.45 1115.47 212.861M663.769 585.662C734.951 522.281 815.733 473.909 896.04 423.297C985.034 367.214 1065.34 304.011 1130.58 220.669M680.243 582.531C751.613 521.088 832.357 474.887 912.494 426.18C1001.13 372.295 1080.85 310.918 1145.55 228.959M697.862 578.956C769.184 519.596 849.693 475.729 929.424 429.045C1017.47 377.489 1096.41 318.058 1160.34 237.658M716.684 574.937C787.762 517.81 867.742 476.42 946.859 431.906C1034.1 382.828 1111.97 325.515 1174.95 246.793M736.769 570.451C807.352 515.688 886.579 476.907 964.843 434.724C1051.03 388.268 1127.6 333.22 1189.39 256.322M758.159 565.485C827.995 513.23 906.204 477.203 983.376 437.497C1068.25 393.824 1143.27 341.129 1203.66 266.217M780.899 560.04C849.765 510.427 926.658 477.312 1002.5 440.2C1085.82 399.441 1158.99 349.256 1217.75 276.477M805.047 554.078C872.706 507.238 947.975 477.177 1022.23 442.819C1103.8 405.064 1174.69 357.698 1231.65 287.087M830.662 547.586C896.804 503.662 970.213 476.772 1042.59 445.326C1122 410.814 1190.57 366.121 1245.38 297.99M857.787 540.567C922.176 499.676 993.369 476.127 1063.6 447.708C1140.61 416.556 1206.5 374.734 1258.9 309.185M885.809 533.176C948.478 495.535 1017.3 475.261 1085.33 449.968C1159.62 422.347 1222.51 383.494 1272.28 320.661M903.047 528.616C965.876 493.459 1034.42 476.207 1102.19 453.563C1175.17 429.184 1236.86 393.335 1285.42 332.397M919.087 524.384C982.057 491.824 1050.17 477.544 1117.64 457.661C1189.57 436.452 1250.46 403.455 1298.37 344.369M934.047 520.428C997.318 490.445 1065.11 479.126 1132.4 461.983C1203.35 443.904 1263.64 413.841 1311.1 356.559M948.074 516.711C1011.79 489.284 1079.36 480.918 1146.61 466.536C1216.62 451.575 1276.44 424.51 1323.64 368.942M961.299 513.185C1025.56 488.332 1092.99 482.866 1160.31 471.265C1229.4 459.35 1288.91 435.363 1336 381.502M973.839 509.81C1038.73 487.522 1106.11 484.96 1173.54 476.156C1241.65 467.257 1301.06 446.416 1348.14 394.209M985.841 506.551C1051.47 486.848 1118.78 487.204 1186.4 481.173C1253.53 475.174 1312.85 457.595 1360.1 407.037M997.408 503.357C1063.78 486.239 1131.09 489.473 1198.91 486.272C1264.97 483.154 1324.36 468.903 1371.82 419.982M1008.71 500.193C1075.84 485.704 1143.17 491.759 1211.2 491.433C1276.11 491.119 1335.63 480.285 1383.38 433.019M1019.85 497.02C1087.72 485.216 1155.06 494.021 1223.26 496.624C1286.91 499.053 1346.61 491.667 1394.7 446.131M1030.97 493.803C1099.57 484.684 1166.88 496.293 1235.22 501.825C1297.52 506.862 1357.37 503.095 1405.84 459.291M1042.18 490.475C1111.46 484.083 1178.69 498.508 1247.09 506.978C1307.92 514.515 1367.9 514.483 1416.74 472.453M1053.65 487.017C1123.53 483.404 1190.6 500.613 1258.99 512.09C1318.19 522.019 1378.28 525.82 1427.46 485.663M1075.67 480.111C1144.1 480.137 1208.67 500.916 1274.77 515.874C1330.93 528.583 1389.49 536.623 1437.96 498.819M1100.18 472.182C1167.26 475.793 1229.37 499.901 1293.18 518.67C1345.01 533.921 1401.56 547.125 1448.26 511.965M1122.92 464.608C1188.89 471.76 1248.9 499.055 1310.58 521.602C1358.17 538.996 1413.09 557.628 1458.35 525.057M1144 457.366C1209.11 468.029 1267.22 498.494 1327.05 524.673C1367.91 542.559 1427.31 570.356 1468.22 538.066M1163.49 450.461C1227.92 464.571 1284.48 498.08 1342.59 527.854C1379.46 546.746 1438.05 580.747 1477.86 550.977M1181.49 443.911C1245.39 461.447 1300.72 497.858 1357.26 531.136C1390.31 550.58 1448.52 590.88 1487.29 563.761M1198.1 437.722C1261.66 458.594 1315.94 497.901 1371.13 534.549C1400.87 554.3 1458.54 600.745 1496.49 576.434M1213.39 431.854C1276.74 456.011 1330.18 498.124 1384.21 538.037C1411.16 557.947 1468.18 610.259 1505.45 588.922M1227.47 426.356C1290.74 453.675 1343.53 498.561 1396.57 541.647C1416.76 558.061 1436.98 574.994 1459.24 588.592C1474.86 598.138 1495.65 609.388 1514.18 601.268M1240.41 421.204C1303.71 451.632 1356.04 499.171 1408.23 545.307C1428.11 562.885 1447.89 580.99 1469.68 596.219C1484.08 606.279 1504.2 619.897 1522.69 613.401M1252.32 416.401C1315.73 449.799 1367.75 499.956 1419.23 549.006C1438.48 567.343 1457.49 586.229 1478.36 602.749C1492.04 613.592 1512.01 630.196 1530.97 625.307M1263.28 411.938C1326.9 448.21 1378.75 500.891 1429.66 552.79C1449.12 572.62 1468.24 593.008 1489.22 611.261C1501.89 622.298 1520.53 639.913 1539.03 636.971M1273.39 407.849C1337.29 446.913 1389.07 501.994 1439.53 556.618C1458.85 577.535 1477.76 598.977 1498.36 618.649C1510.65 630.371 1528.19 649.197 1546.82 648.406M1282.73 404.095C1346.95 445.794 1398.77 503.237 1448.88 560.448C1468.47 582.832 1487.56 605.794 1508.33 627.13C1520.05 639.183 1536.28 658.301 1554.42 659.529M1291.38 400.709C1355.98 444.917 1407.94 504.626 1457.77 564.341C1476.93 587.293 1495.56 610.735 1515.51 633.008C1527.33 646.188 1543.08 667.009 1561.74 670.35M1299.47 397.682C1364.47 444.286 1416.59 506.133 1466.25 568.242C1485.01 591.706 1503.21 615.659 1522.49 638.718C1534.33 652.863 1549.91 675.848 1568.86 680.887M1307.05 395.004C1372.5 443.861 1424.86 507.763 1474.36 572.139C1493.45 596.972 1511.91 622.305 1531.35 646.868C1542.97 661.549 1557.37 684.042 1575.73 691.038M1314.22 392.68C1380.11 443.66 1432.71 509.502 1482.11 576.017C1501.54 602.176 1520.23 628.889 1539.84 654.914C1551.34 670.193 1564.58 692.008 1582.36 700.83M1321.08 390.727C1387.4 443.7 1440.29 511.371 1489.59 579.924C1508.65 606.425 1527 633.436 1545.96 660.004C1557.88 676.686 1570.78 699.275 1588.72 710.264M1327.71 389.123C1394.46 443.931 1447.59 513.312 1496.8 583.76C1515.52 610.56 1533.52 637.842 1551.93 664.856C1564.35 683.074 1576.86 705.845 1594.85 719.268M1334.21 387.886C1401.34 444.398 1454.72 515.375 1503.85 587.588C1522.88 615.555 1541.1 644.056 1559.62 672.357C1571.82 690.982 1583.71 713.116 1600.75 727.858M1340.67 387.007C1408.16 445.091 1461.73 517.517 1510.73 591.364C1530.03 620.467 1548.46 650.116 1567.07 679.659C1578.99 698.572 1590.36 720.176 1606.4 736.003M1347.17 386.49C1414.94 445.984 1468.68 519.742 1517.49 595.091C1535.78 623.322 1553.24 652.058 1570.68 680.808C1583.42 701.82 1595.27 725.276 1611.78 743.675M1353.81 386.34C1421.79 447.111 1475.64 522.04 1524.2 598.743C1542.39 627.473 1559.75 656.722 1576.91 686.076C1589.57 707.731 1601.21 731.206 1616.94 750.874M1360.67 386.546C1428.78 448.432 1482.61 524.411 1530.88 602.307C1549.26 631.982 1566.72 662.215 1583.87 692.619C1596.1 714.296 1607.31 737.23 1621.81 757.512M1369.31 387.275C1437 450.19 1490.31 527.02 1537.82 605.827C1568.92 657.42 1594.07 712.969 1626.45 763.677M1381.7 389.13C1494.14 496.103 1559.01 634.753 1630.85 769.269M1393.93 391.927C1502.32 497.068 1575.17 637.19 1634.97 774.3M1405.98 395.622C1471.12 459.831 1521.62 537.597 1564.89 617.785C1592.75 669.414 1619.68 723.155 1638.83 778.742M1417.84 400.17C1482.1 464.291 1531.63 541.907 1573.47 622.051C1599.88 672.628 1628.18 726.942 1642.43 782.553M1429.52 405.529C1492.86 469.316 1541.38 546.52 1581.81 626.391C1597.59 657.545 1612.15 689.371 1624.96 721.856C1633.05 742.372 1642.08 763.856 1645.77 785.731M1441 411.67C1503.4 474.847 1550.94 551.44 1589.94 630.821C1605.08 661.654 1619.01 693.189 1630.92 725.412C1638.28 745.286 1647.21 766.924 1648.87 788.263M1452.28 418.52C1513.71 480.856 1560.29 556.623 1597.84 635.282C1612.13 665.194 1625.19 695.793 1636.09 727.115C1642.89 746.644 1652.08 769.087 1651.67 790.133M1463.36 426.05C1523.8 487.3 1569.36 561.979 1605.48 639.701C1618.91 668.606 1631.11 698.167 1641.06 728.462C1647.28 747.372 1656.78 770.953 1654.2 791.298M1474.22 434.217C1533.63 494.162 1578.22 567.539 1612.89 644.109C1626.15 673.393 1638.15 703.433 1647.32 734.264C1652.34 751.185 1660.78 773.819 1656.48 791.745M1484.84 442.976C1543.21 501.357 1586.83 573.231 1620.07 648.447C1632.46 676.492 1643.61 705.295 1651.82 734.868C1656.26 750.852 1664.88 774.921 1658.47 791.444M1495.25 452.271C1552.55 508.842 1595.17 579.01 1626.96 652.641C1638.5 679.377 1648.86 706.858 1656.15 735.075C1660 750.036 1668.73 775.621 1660.21 790.382" stroke="url(#paint0_linear_4_4)" stroke-miterlimit="10"/>
<defs>
<linearGradient id="paint0_linear_4_4" x1="1486.38" y1="616.57" x2="1672.16" y2="626.053" gradientUnits="userSpaceOnUse">
<stop stop-color="#FF7304"/>
<stop offset="0.4" stop-color="#0672D6"/>
</linearGradient>
</defs>
</svg>
